<svg width="136" height="129" viewBox="0 0 136 129" fill="none" xmlns="http://www.w3.org/2000/svg">
<g clip-path="url(#clip0_40_486)">
<path d="M63.8923 5.82995C62.4676 7.24194 63.5877 8.72056 66.0785 8.72056C67.4746 8.72056 67.6872 8.80623 67.6872 9.35833C67.6872 9.9612 67.4905 9.9961 64.0288 9.9961C62.0234 9.9961 60.3703 10.0849 60.3703 10.1928C60.3703 10.3007 60.6463 10.7862 61.0081 11.3002C61.5443 12.0649 61.63 12.6202 61.5538 14.7778L61.4618 17.3448L60.3544 15.8249C59.7325 14.9745 58.6124 13.9528 57.8033 13.5023C56.5405 12.7979 55.982 12.6963 53.3389 12.6963C50.6958 12.6963 50.1152 12.7915 48.1923 13.7053C44.2737 15.5647 42.1224 18.2046 41.418 22.0186L41.0245 24.1445L39.6887 21.6696C38.9494 20.302 38.3529 19.0867 38.3529 18.9503C38.3529 18.8139 38.0958 18.4775 37.7912 18.2046C37.2709 17.7414 36.9726 17.9159 33.6917 20.6193C31.7562 22.2153 27.9676 25.2551 25.3245 27.3302C22.6814 29.4085 20.4952 31.306 20.4952 31.5217C20.4952 31.7375 22.0151 33.3208 23.8967 35.0596C28.634 39.4384 31.6642 42.4464 31.6515 42.7605C31.6451 42.8938 31.0042 42.954 30.2458 42.8938C28.6974 42.7732 27.552 43.2682 26.0258 44.7214L25.0231 45.6733L24.0712 44.0043C22.6687 41.5452 22.0309 41.0883 19.9812 41.0883C18.6454 41.0883 18.125 41.2438 17.5507 41.8181C16.9097 42.4591 16.8209 42.8652 16.8209 45.2037V47.8627L14.9996 47.9959C12.7531 48.1609 11.5696 48.9447 10.9921 50.6581C10.4273 52.3334 11.0238 53.6344 12.9054 54.8496C13.6637 55.3383 14.3333 55.7698 14.4094 55.8205C14.4824 55.8713 13.9239 56.5789 13.191 57.369C11.6933 58.9777 10.9318 60.5261 10.9318 61.954C10.9318 62.56 10.7065 63.0201 10.294 63.2454C9.92913 63.4453 9.65625 63.8165 9.65625 64.1116C9.65625 64.8223 13.0894 69.8642 13.8478 70.2704C14.1619 70.4386 15.9134 70.813 17.7061 71.0954C19.4989 71.3778 21.317 71.6697 21.7136 71.7395C22.3609 71.8537 23.3826 73.2816 23.3826 74.0716C23.3826 74.262 23.1098 74.4048 22.7449 74.4048C22.38 74.4048 22.1039 74.5476 22.1008 74.738C22.0944 75.106 25.8988 82.4833 27.003 84.2443C27.4028 84.882 28.1612 86.1893 28.6942 87.1603C32.0037 93.1731 36.5887 99.646 38.08 100.414C40.3645 101.588 44.0643 99.7475 50.2579 94.3534C51.6858 93.1096 52.3077 92.3735 52.0951 92.1704C51.8857 91.9705 51.2606 92.3481 50.2579 93.2873C47.0373 96.2985 42.9442 99.2779 42.0272 99.2779C41.8273 99.2779 38.9081 96.4825 35.5289 93.0525C30.0237 87.4649 29.2051 86.4939 27.5488 83.5779C25.1849 79.4181 23.0463 75.4487 23.0463 75.2266C23.0463 75.1251 24.8993 75.0457 27.1775 75.0457H31.3088L32.7208 77.0352C33.4982 78.1299 35.4845 81.03 37.1408 83.4891C38.7971 85.9482 40.3518 87.9821 40.6025 88.0138C40.8532 88.0455 42.0684 86.9191 43.29 85.523C44.518 84.1205 47.8211 80.6334 50.626 77.7777C55.4585 72.8564 55.8456 72.5391 57.962 71.749C59.1772 71.2953 60.7764 70.832 61.4713 70.7305C62.7088 70.5528 62.7818 70.594 63.8701 72.0504C64.4825 72.8691 65.1806 73.6147 65.4027 73.6909C65.6279 73.767 66.3101 73.2816 66.9225 72.6121L68.0299 71.3968V79.3547C68.0299 83.7271 68.0236 89.7875 68.014 92.8082C68.0045 96.0288 68.1251 98.3102 68.3028 98.3165C68.8263 98.3356 68.8771 97.0315 68.8485 84.0634C68.8327 76.9876 68.8961 71.2159 68.9882 71.2159C69.0802 71.2159 69.6608 71.7331 70.2542 72.3392C71.5329 73.6465 72.1136 73.7067 73.113 72.6438C74.0554 71.6411 74.3505 71.6538 75.8672 72.7548C77.5077 73.9479 80.3824 75.5122 81.7912 75.9786C83.0096 76.3816 84.7231 78.1712 89.2953 83.8223C90.72 85.5833 92.1606 87.2681 92.5128 87.5886C93.141 88.1566 93.1664 88.1502 94.0453 87.2681C94.5308 86.7827 94.9496 86.2972 94.956 86.2052C94.9655 86.1037 95.0734 86.0751 95.2289 86.129C95.3621 86.1766 95.3843 86.0529 95.2733 85.872C95.1559 85.6816 95.489 84.9899 96.0031 84.3522C96.5171 83.7144 97.1168 82.8513 97.323 82.4547C97.5293 82.0612 97.8275 81.8011 97.9767 81.8931C98.1226 81.9819 98.2305 81.8772 98.2051 81.6646C98.1797 81.4489 99.0967 79.856 100.226 78.1553L102.292 75.0426H110.796L108.952 78.4758C106.896 82.3024 106.547 82.9307 105.471 84.7615C105.062 85.4595 104.497 86.5193 104.227 87.1C103.713 88.2042 103.387 88.5373 96.7043 94.804C92.6048 98.6497 91.9099 99.2494 91.5418 99.2716C91.1357 99.2938 86.6649 95.5719 84.8341 93.6903C83.0921 91.8975 82.2576 91.5073 82.9557 92.8082C83.3967 93.6332 87.8072 97.5804 89.8125 98.9479C90.7232 99.5699 92.0463 100.265 92.7888 100.512C96.0158 101.588 96.974 100.522 105.363 86.5225C105.896 85.634 109.907 78.4123 110.83 76.683C111.9 74.6777 111.932 74.4048 111.103 74.4048C110.186 74.4048 110.088 73.9796 110.758 72.8849C111.338 71.9362 111.713 71.7776 114.264 71.3968C116.996 70.9907 118.931 70.6131 119.61 70.3529C120.032 70.1911 121.197 68.8172 122.225 67.2687C124.198 64.2925 124.363 63.3786 122.983 63.0328C122.057 62.8011 121.451 63.3215 119.918 65.66L118.884 67.2402L114.419 67.2846C111.928 67.31 109.552 67.4908 109.044 67.6939C108.527 67.9002 108.067 67.9922 107.981 67.9065C107.899 67.824 108.279 66.9641 108.816 66.0249C110.386 63.2739 112.779 61.9349 117.151 61.3511C120.971 60.8434 122.634 59.6757 125.119 55.7571C126.235 53.9961 127.438 50.8992 127.171 50.4709C127.057 50.29 126.477 49.8172 125.899 49.4397C125.312 49.0557 123.104 47.4883 120.978 45.9462C118.852 44.4073 116.992 43.1508 116.831 43.1508C116.669 43.1508 116.494 43.833 116.437 44.6548L116.329 46.1588L114.978 42.8493C114.099 40.6917 113.731 39.4288 113.931 39.2194C114.099 39.0449 115.844 37.9534 117.817 36.7889C119.791 35.6276 121.451 34.5266 121.514 34.3425C121.616 34.0411 117.484 33.0321 115.117 32.7782C114.724 32.737 114.28 32.6894 114.099 32.6735C113.899 32.6545 113.819 31.0331 113.886 28.3297C113.959 25.3534 113.886 24.0176 113.642 24.0176C113.448 24.0176 112.198 24.8426 110.862 25.8516C108.219 27.8474 106.858 28.7866 106.61 28.7866C106.512 28.7866 105.427 27.9013 104.212 26.8289L101.994 24.8711L101.81 21.9869C101.594 18.6171 100.991 17.202 98.8968 15.1681C96.3013 12.6487 91.1516 11.2939 87.5978 12.195C85.8971 12.6265 83.4538 14.1876 82.3021 15.5774C81.8737 16.0978 81.0678 17.3099 80.5061 18.2808L79.4876 20.0418L79.6082 15.8947C79.6748 13.6165 79.789 11.3922 79.8588 10.9607C80.0048 10.0723 80.0334 10.0818 75.9338 10.0215C73.9888 9.99293 73.7762 9.9263 73.7762 9.35198C73.7762 8.81257 73.9888 8.71421 75.1438 8.71421C75.9021 8.71421 76.7683 8.527 77.0888 8.2922C77.7266 7.82577 77.8345 6.30273 77.2697 5.73794C77.0222 5.49044 74.8994 5.33814 70.7396 5.26833C64.8474 5.1668 64.546 5.19218 63.905 5.82361L63.8923 5.82995ZM72.7926 8.857C72.7926 8.92997 72.8814 9.22189 72.9893 9.49477C73.1575 9.9263 72.8687 9.9961 70.9237 9.9961C68.8581 9.9961 68.6613 9.93899 68.6613 9.35833C68.6613 8.77767 68.8739 8.72056 70.727 8.72056C71.8502 8.72056 72.7926 8.78402 72.7926 8.857ZM78.6531 10.9068C79.1703 10.9321 79.1989 11.0083 78.8562 11.4208C78.2755 12.1188 62.5374 12.1188 61.96 11.4208C61.6331 11.0242 61.979 10.9543 64.5586 10.8782C67.1097 10.802 76.8826 10.8211 78.6499 10.9068H78.6531ZM78.5325 12.9406C78.5325 13.1596 78.5452 16.2659 78.5643 19.88C78.5801 23.494 78.5801 26.6702 78.5643 26.9716C78.5357 27.4635 78.0788 27.5174 73.919 27.5174H69.3023L69.2103 22.5072L69.1182 17.4971H64.0161L63.924 22.5072C63.832 27.4888 63.8289 27.5174 63.1054 27.5174H62.3756L62.3598 20.0323L62.3439 12.5472H70.4382C76.6954 12.5472 78.5325 12.636 78.5325 12.9406ZM94.5371 13.4007C96.6313 14.2225 98.7604 15.8027 99.7218 17.2527C103.907 23.5702 98.0021 34.2315 90.317 34.2315C88.556 34.2315 88.3117 34.3235 87.2488 35.3864C86.1858 36.4494 83.4538 37.9693 83.1492 37.6646C83.0667 37.5822 83.2857 36.8746 83.6284 36.1162C84.6564 33.838 84.5073 33.1717 82.5432 31.2869C80.3633 29.1927 79.5035 27.3683 79.4971 24.8172C79.4844 19.3501 83.4665 13.8069 88.0991 12.8328C89.7681 12.4837 92.8999 12.7598 94.5371 13.4007ZM55.2681 17.1925C55.2681 17.57 53.6277 18.9249 53.1739 18.9249C52.9137 18.9249 52.4441 19.1978 52.0792 19.5627C51.7207 19.9212 51.1083 20.2005 50.6831 20.2005C50.2579 20.2005 49.7376 20.4194 49.4996 20.7018C49.268 20.9778 48.5731 21.4443 47.967 21.733C47.3293 22.0376 46.6439 22.704 46.352 23.2973C45.8602 24.3 45.3684 24.6649 45.3684 24.0271C45.3684 23.1133 46.463 21.7172 47.526 21.2729C48.1638 21.0064 48.9062 20.4987 49.1347 20.1687C49.3695 19.8356 49.9089 19.5627 50.3341 19.5627C50.7593 19.5627 51.397 19.2739 51.7461 18.9249C52.111 18.56 52.6377 18.2871 52.9772 18.2871C53.3167 18.2871 53.8149 18.0143 54.1449 17.6494C54.7223 17.0116 55.2681 16.7895 55.2681 17.1925ZM68.4646 20.321C68.4551 21.5617 68.4202 23.6908 68.3885 24.998L68.3282 27.3968L66.9606 27.4539C64.6062 27.5523 64.6538 27.6411 64.5745 23.0244C64.5301 20.5051 64.6284 18.6806 64.8188 18.4521C64.9933 18.2459 65.8977 18.065 66.8083 18.0587L68.4773 18.0428L68.4614 20.321H68.4646ZM38.6733 21.2634C39.1969 22.3486 40.3518 24.5284 41.2371 26.1086C42.1224 27.6887 43.0648 29.4561 43.3313 30.0431C43.8041 31.0743 43.7945 31.1219 43.0743 31.6233C42.6618 31.9088 41.4783 32.8512 40.4153 33.7365C34.98 38.277 31.6197 40.917 31.2739 40.917C31.1216 40.917 30.8773 40.5965 30.7281 40.203C30.5758 39.8096 30.3315 39.5431 30.1824 39.6097C30.0364 39.6732 29.7604 39.413 29.589 39.0481C29.4177 38.6832 29.1067 38.3659 28.9195 38.3659C28.7323 38.3659 26.8856 36.8397 24.8486 34.9962L21.1266 31.6264L22.6465 30.4715C23.4969 29.8242 24.325 29.1705 24.5281 28.9802C25.0263 28.5201 28.0501 26.0832 32.2417 22.7642C34.2153 21.2 35.9921 19.9847 36.1603 20.0831C36.3348 20.1878 36.4237 20.0831 36.3729 19.8387C36.3221 19.5944 36.4522 19.4453 36.6775 19.4897C36.8901 19.531 37.071 19.4104 37.071 19.2327C37.071 18.5061 37.7595 19.385 38.6702 21.2666L38.6733 21.2634ZM57.1814 20.2005C57.1814 20.3655 56.6801 20.7367 56.074 21.0191C55.468 21.3015 54.7953 21.733 54.5859 21.9773C54.3733 22.2248 53.9926 22.4184 53.7197 22.4184C53.4468 22.4184 52.974 22.65 52.6409 22.9515C52.3077 23.2497 51.9714 23.402 51.8698 23.3005C51.5557 22.98 52.5362 21.7806 53.1105 21.7806C53.4151 21.7806 54.3257 21.365 55.1761 20.8382C56.8165 19.8197 57.1814 19.7055 57.1814 20.2005ZM49.6487 25.0298C49.3187 25.3947 48.8301 25.6009 48.5096 25.5152C48.1352 25.4137 47.8782 25.5755 47.7354 26.0007C47.5831 26.4576 47.4276 26.5433 47.1897 26.3053C46.6693 25.7849 47.7354 24.3507 48.4969 24.5475C48.8015 24.6268 49.2838 24.4459 49.5155 24.1635C49.8169 23.7986 49.9978 23.7511 50.0929 24.0112C50.1723 24.227 49.9819 24.6649 49.6519 25.0298H49.6487ZM54.2972 25.2868C54.2972 25.4676 54.1607 25.6073 53.9767 25.6073C53.7927 25.6073 53.6562 25.4708 53.6562 25.2868C53.6562 25.1027 53.7927 24.9663 53.9767 24.9663C54.1607 24.9663 54.2972 25.1027 54.2972 25.2868ZM113.02 28.8247C112.915 32.6196 113.144 33.6762 114.038 33.5366C114.857 33.4097 118.411 34.022 118.411 34.2918C118.411 34.4377 118.776 34.4726 119.201 34.3679C119.686 34.2473 119.991 34.3044 119.991 34.5202C119.991 34.7233 119.794 34.8692 119.521 34.8692C119.248 34.8692 119.052 34.9835 119.052 35.1421C119.052 35.434 117.319 36.2495 116.926 36.1416C116.799 36.1067 116.637 36.1924 116.523 36.3574C116.164 36.8746 114.029 38.3627 113.645 38.3627C113.436 38.3627 113.099 38.5309 112.855 38.7562C112.499 39.0862 112.509 39.2734 112.899 39.8794C113.153 40.2729 113.286 40.825 113.188 41.0788C113.083 41.3517 113.109 41.5484 113.248 41.5484C113.642 41.5484 114.622 43.449 114.41 43.7949C114.305 43.9662 114.505 44.4009 114.876 44.7976C115.244 45.191 115.53 45.6796 115.53 45.9208C115.53 46.4412 114.102 46.4666 113.556 45.9557C113.328 45.7399 112.69 45.5718 112.173 45.5876C111.655 45.6035 110.824 45.4226 110.364 45.1942C109.907 44.9657 109.317 44.8451 109.089 44.934C108.647 45.1053 106.994 47.5327 106.411 48.8717C106.211 49.3286 105.824 49.887 105.535 50.1314C105.262 50.363 105.018 50.7564 105.018 50.9659C105.018 51.188 104.805 51.5402 104.532 51.7718C104.116 52.124 104.047 52.0606 104.047 51.3308C104.047 50.8738 103.92 50.4804 103.774 50.4804C103.479 50.4804 102.422 47.8373 102.355 46.9266C102.336 46.6538 102.203 46.4824 102.073 46.5617C101.943 46.6411 101.829 46.4697 101.829 46.1968C101.829 45.924 101.641 45.4797 101.435 45.2545C101.105 44.8991 100.918 44.9086 100.312 45.2989C99.9185 45.5527 99.3728 45.6923 99.1285 45.6035C98.8841 45.5146 98.624 45.5781 98.5669 45.7399C98.5097 45.9049 98.0211 46.0985 97.5039 46.1651C96.9867 46.2318 96.149 46.4412 95.6826 46.622C95.1368 46.8314 94.8164 46.8441 94.8164 46.6538C94.8164 46.4634 94.9147 46.3492 95.0607 46.3492C95.1971 46.3492 95.4827 45.8478 95.7143 45.21C95.9428 44.5723 96.3235 43.998 96.5806 43.9028C96.8439 43.8044 97.0375 43.5379 97.0375 43.265C97.0375 43.008 97.2881 42.3385 97.5864 41.7927C98.1036 40.8503 98.3796 39.0132 98.0084 39.0037C97.9069 39.0037 97.4849 38.4991 97.0502 37.8614C96.3902 36.8904 96.3426 36.6747 96.7297 36.405C97.1295 36.1257 97.1231 36.1035 96.698 36.2241C96.2823 36.3415 95.1273 35.085 95.121 34.5075C95.121 34.406 96.6377 34.3393 98.4907 34.3552C102.136 34.3869 102.225 34.3393 102.136 32.4736C102.121 32.1214 102.044 30.4842 101.968 28.8152C101.892 27.1462 101.914 25.969 102.013 26.1879C102.111 26.4005 102.336 26.5814 102.498 26.5814C102.955 26.5814 104.009 27.7808 103.777 28.0378C103.663 28.1647 103.726 28.1869 103.91 28.0822C104.104 27.9711 104.745 28.298 105.354 28.812C105.96 29.326 106.246 29.7448 105.992 29.7544C105.747 29.7639 105.627 29.8622 105.735 29.967C105.846 30.078 106.296 29.9289 106.753 29.6338C107.21 29.3387 107.715 29.1896 107.892 29.3006C108.073 29.4149 108.172 29.3863 108.121 29.2403C108.067 29.0849 108.095 28.977 108.197 28.9675C108.286 28.9579 108.803 28.5677 109.32 28.1171C109.85 27.6538 110.916 26.7717 111.703 26.1435C112.493 25.5121 113.131 24.998 113.131 24.9885C113.131 24.979 113.083 26.7051 113.023 28.831L113.02 28.8247ZM50.8957 27.7173C50.3785 28.1393 49.782 28.463 49.5123 28.463C49.2426 28.463 49.5123 28.0758 50.1501 27.5523C50.7561 27.0541 51.3812 26.7178 51.5335 26.8067C51.689 26.9018 51.4129 27.2953 50.8957 27.7173ZM70.5746 28.3233L79.3226 28.3075L80.4458 30.0399C81.0582 30.9823 82.0419 32.0548 82.6035 32.3943C83.181 32.7433 83.6347 33.27 83.6347 33.5937C83.6347 34.3584 82.7368 36.4494 82.0038 37.3886C81.1693 38.4611 81.6611 38.7911 83.4824 38.3754C85.0404 38.02 86.3064 37.2871 87.8865 35.8338C88.5433 35.2278 89.1462 35.012 90.2695 34.9771C91.0881 34.9517 92.297 34.828 92.9284 34.7042C93.9597 34.5012 94.1437 34.571 94.6609 35.3864C94.9814 35.8909 95.6445 36.9349 96.1459 37.7249C97.6023 40.0095 97.5864 40.1555 95.4795 43.9821C93.6075 47.3835 93.4012 48.1514 94.4451 47.8278C96.2061 47.2788 100.956 46.035 101.007 46.108C101.042 46.1588 101.673 47.7326 102.419 49.6173L103.771 53.0347L101.962 54.8718C100.975 55.8745 99.7885 57.3309 99.3506 58.0766L98.5446 59.4441L99.9408 61.221C100.705 62.1919 101.841 63.6293 102.447 64.394C103.05 65.1523 104.186 66.5802 104.938 67.5226L106.322 69.255L105.227 70.9557C104.621 71.8981 104.031 72.9738 103.907 73.3704C103.748 73.8654 103.437 74.0875 102.888 74.0938C102.159 74.1034 100.896 75.1409 100.864 75.7565C100.858 75.8898 100.106 77.0479 99.1983 78.3235C98.2876 79.6022 96.5393 82.1342 95.3114 83.9587L93.0776 87.2681L92.2589 86.3099C91.8084 85.7832 89.381 82.8926 86.8617 79.8877C80.9377 72.812 79.8208 71.8125 76.7683 70.8701L74.3981 70.1371L76.5558 69.1376C79.1671 67.9287 79.9413 67.3227 81.0202 65.641C82.6447 63.1089 81.8737 58.048 78.9799 52.2478C76.7525 47.7833 75.772 46.933 73.8841 47.8246C72.7894 48.3418 70.8761 50.8453 70.8761 51.7623C70.8761 52.0796 70.3303 52.4826 69.4482 52.8094C68.1727 53.2853 67.8998 53.2917 66.8971 52.8697C65.4693 52.2731 64.2985 52.289 64.0573 52.9141C63.9494 53.1933 63.8574 53.9929 63.8574 54.6592C63.8574 55.3256 63.6766 56.0363 63.464 56.2108C59.1201 59.7424 58.8695 60.1136 59.5961 61.8715C60.0847 63.055 61.538 65.3427 62.3375 66.1836C62.7691 66.6405 64.4952 69.2392 64.4952 69.4327C64.4952 69.4994 63.7051 69.6453 62.7342 69.7564C60.6685 69.9912 56.9752 71.2223 55.2935 72.2313C54.6462 72.6184 53.5071 73.5925 52.7011 74.4429C49.1061 78.2378 43.455 84.276 42.2112 85.6499C41.4402 86.5003 40.7167 87.0936 40.5644 86.9984C40.282 86.8207 35.8557 80.5192 33.1364 76.4165C31.9085 74.5635 31.4484 74.1065 30.817 74.0938C30.1729 74.0812 29.9063 73.8051 29.3669 72.5899C28.6149 70.8891 25.5974 67.7161 24.7407 67.7256C24.2965 67.7288 24.4361 67.4655 25.3467 66.577C25.9845 65.9551 26.7079 64.9334 26.911 64.3591L27.2918 63.2961L28.6879 64.2512C30.4806 65.4792 31.8799 65.6949 33.3966 64.9842C35.4305 64.0259 35.5733 62.2935 33.8535 59.3775L32.9397 57.8291H33.9107C35.6114 57.8291 37.0487 56.9977 37.5818 55.7032C37.8452 55.0654 37.9943 54.1198 37.9023 53.6534C37.7532 52.8887 37.9467 52.6285 39.5586 51.4291C41.3799 50.0711 41.7067 49.8045 43.1409 48.4973C43.5756 48.1006 44.8416 47.0631 45.9649 46.1842C47.0881 45.3021 48.3002 44.2962 48.6683 43.9377C49.0395 43.5759 50.6577 42.2401 52.2982 40.9455C53.9386 39.6509 55.2586 38.4991 55.2586 38.3627C55.2586 38.1596 51.7968 35.7259 46.3583 32.1119C44.9908 31.2044 43.7787 30.0717 44.1721 30.0717C44.2705 30.0717 44.8416 30.3541 45.4159 30.6904C47.783 32.0707 50.8227 32.499 53.9513 31.8961L55.0746 31.6804L57.2925 34.8692C59.0249 37.36 59.5897 37.9724 59.8816 37.6646C60.2402 37.2807 60.126 34.9613 59.5643 31.3789C59.4247 30.4873 59.5993 29.8908 60.4052 28.4947C61.3539 26.8542 61.4364 26.7876 61.6204 27.5364L61.8172 28.3424L70.5651 28.3265L70.5746 28.3233ZM101.191 30.5571V33.5937H95.8159L97.6372 31.7407C98.6525 30.7094 99.7028 29.3641 100.007 28.7041C100.302 28.0663 100.702 27.5206 100.874 27.5206C101.045 27.5206 101.194 28.8564 101.194 30.5571H101.191ZM47.5545 33.838C49.2553 35.0342 51.4478 36.5287 52.4759 37.195L54.3289 38.3944L51.9904 40.3522C48.4366 43.3253 48.3605 43.3634 47.4943 42.5987C47.1167 42.2655 46.4313 41.6595 46.0061 41.2819L45.216 40.5838L46.4154 39.4606C47.0849 38.8355 47.6148 38.2009 47.6148 38.0327C47.6148 37.6329 45.9744 36.1448 42.8458 33.6984C42.3921 33.343 42.4365 33.2002 43.2266 32.4895C43.712 32.0516 44.207 31.6835 44.3054 31.6835C44.4038 31.6835 45.8538 32.645 47.5545 33.8412V33.838ZM41.9637 34.3838C41.8622 34.6566 41.6623 34.7931 41.5068 34.6947C41.0562 34.406 41.1736 33.8983 41.6877 33.8983C41.9732 33.8983 42.0748 34.0792 41.9606 34.3838H41.9637ZM40.7358 35.1738C40.831 35.3325 40.704 35.5229 40.4312 35.6308C40.1583 35.7355 39.9616 35.6212 39.9616 35.3579C39.9616 34.8407 40.4629 34.7233 40.7358 35.177V35.1738ZM43.3916 35.4467C43.4582 35.6466 43.2837 35.8116 43.0108 35.8116C42.7379 35.8116 42.5095 35.5673 42.5095 35.2944C42.5095 34.7518 43.198 34.8692 43.3916 35.4467ZM39.1873 36.7064C38.9145 36.9793 38.5908 37.1125 38.4734 36.9951C38.1752 36.7001 39.0192 35.7958 39.3841 36.0179C39.5681 36.1321 39.492 36.4018 39.1873 36.7064ZM42.0177 36.1448C42.354 36.6905 41.6433 37.322 41.1959 36.8746C40.8278 36.5033 41.0499 35.8116 41.5385 35.8116C41.6877 35.8116 41.9066 35.9639 42.0177 36.1448ZM44.7306 36.9031C44.3149 37.3251 43.6105 36.6588 43.9278 36.1448C44.0928 35.8783 44.2737 35.8846 44.6068 36.1765C44.9114 36.4399 44.9527 36.6842 44.7306 36.9063V36.9031ZM37.3946 37.9661C37.0297 38.2263 36.6267 38.3659 36.5284 38.2707C36.2682 38.0105 37.4708 37.1062 37.8039 37.3124C37.9499 37.4013 37.7595 37.7059 37.3946 37.9661ZM40.5993 37.5726C40.5993 38.2104 39.9838 38.5372 39.5681 38.1184C39.3872 37.9375 39.3301 37.6329 39.4444 37.4489C39.768 36.9349 40.5993 37.0237 40.5993 37.5695V37.5726ZM43.344 37.6012C43.5724 38.2072 42.8141 38.8291 42.3762 38.3913C42.0367 38.0486 42.3572 37.084 42.8141 37.084C42.9918 37.084 43.2393 37.3283 43.344 37.6012ZM46.5011 37.7852C46.6122 37.9661 46.5551 38.2707 46.3742 38.4547C45.9871 38.8418 44.9559 38.1818 45.2383 37.7249C45.4858 37.3251 46.2441 37.36 46.5043 37.7852H46.5011ZM38.8478 38.7276C39.0636 39.0735 38.1974 39.9714 37.6516 39.9714C37.2455 39.9714 37.3787 38.7498 37.8039 38.5785C38.4417 38.3183 38.6099 38.3437 38.8478 38.7244V38.7276ZM41.7607 38.8767C42.0494 39.6351 41.364 40.1586 40.7516 39.6478C40.3867 39.3432 40.355 39.1369 40.6247 38.8164C41.1038 38.2485 41.529 38.2707 41.7607 38.8767ZM45.1843 39.3939C44.8987 39.8508 40.2598 43.4649 39.9616 43.4649C39.1905 43.4649 39.3841 42.4019 40.2947 41.6404C44.0611 38.4991 44.1658 38.4325 44.7591 38.7974C45.0637 38.9846 45.2636 39.267 45.1843 39.3939ZM35.4813 39.5621C35.1164 39.8128 34.7134 39.9492 34.6151 39.8508C34.3549 39.5907 35.5574 38.7149 35.8906 38.9212C36.0366 39.01 35.8462 39.3114 35.4813 39.5621ZM40.1139 40.8979C39.9933 41.0978 39.6284 41.3929 39.2635 41.5865C38.3814 42.0561 38.0768 41.1137 38.8351 40.276C39.3301 39.7303 39.4793 39.7049 39.8695 40.0952C40.1139 40.3395 40.2249 40.7139 40.1139 40.9011V40.8979ZM36.5887 44.6801C37.0678 45.5908 37.5374 46.3492 37.6199 46.3492C37.7024 46.3492 38.2894 45.9398 38.9272 45.4385C39.7987 44.751 40.7284 45.1466 41.7162 46.6252L42.6301 47.9928L41.3704 49.0716C40.6818 49.6586 39.5015 50.5914 38.7749 51.1213L37.439 52.0923L36.027 49.465C35.2433 48.0086 34.0122 45.7241 33.2634 44.3311L31.9117 41.8245L32.7938 40.8979L33.6759 39.9714L34.6944 41.4913C35.2497 42.3194 36.1127 43.7695 36.5918 44.6801H36.5887ZM36.7727 40.4125C36.7727 40.6441 36.5284 41.0471 36.2555 41.2628C35.8303 41.5992 35.6907 41.5928 35.4622 41.2184C35.1545 40.7107 35.678 39.9746 36.3475 39.9746C36.5823 39.9746 36.7727 40.1713 36.7727 40.4156V40.4125ZM46.3076 42.5225L47.7354 43.7981L46.628 44.7563C46.022 45.2798 45.1272 45.9589 44.6544 46.2603C44.169 46.5681 43.7882 46.9139 43.7882 47.0504C43.7882 47.1868 43.6073 47.2947 43.3947 47.2947C43.0489 47.2947 40.9039 44.4707 40.9039 44.0138C40.9039 43.7346 44.1531 41.2501 44.518 41.2501C44.7211 41.2501 45.5207 41.8213 46.3107 42.5257L46.3076 42.5225ZM21.9516 42.3512C22.3546 42.6145 23.1447 43.7695 23.7126 44.9245L24.7439 47.0187L26.0511 45.7748C26.7809 45.0799 27.7074 44.2962 28.1453 44.0043C29.5827 43.0461 31.6134 43.4681 32.7271 44.9562C33.2761 45.6923 33.2951 45.9145 32.8985 47.098C32.6541 47.8278 32.1369 48.9034 31.7435 49.4968C31.3405 50.1028 31.0296 50.6803 31.0296 50.8167C31.0296 50.9532 31.972 51.2387 33.1238 51.4609C35.7066 51.9527 37.0678 52.9807 37.0583 54.4308C37.0456 56.2394 35.9794 57.039 33.3966 57.1723C32.5145 57.2198 31.7625 57.3055 31.6959 57.369C31.5404 57.5149 32.3813 58.8349 33.0698 59.533C33.349 59.8154 33.7933 60.6562 34.0503 61.386C34.4691 62.5695 34.4659 62.8075 34.0249 63.4802C32.8858 65.2285 30.8138 65.1016 28.5991 63.1502C26.984 61.7287 26.8253 61.7794 26.2383 63.9053C25.8354 65.3618 24.4519 66.6532 23.0114 66.9134C22.069 67.0847 21.6978 66.9863 20.9902 66.3803C20.289 65.7774 20.0796 65.257 19.8828 63.6483C19.7496 62.5537 19.5592 61.5764 19.4576 61.478C19.3561 61.3765 18.7279 61.7763 18.0615 62.3664C15.4184 64.6954 13.632 65.1682 12.4834 63.8482C10.9984 62.138 12.1058 58.8793 14.9012 56.7439C15.8436 56.0236 15.9864 55.7793 15.6754 55.4049C15.4724 55.1606 15.0821 54.948 14.8409 54.948C14.3047 54.948 12.5627 53.8247 11.9694 53.0949C11.4934 52.5079 11.4522 51.0008 11.8869 50.179C12.3121 49.3825 14.476 48.5703 16.1768 48.5703H17.6046L17.4206 46.2635C17.2112 43.6521 17.5761 42.3353 18.639 41.8879C19.5243 41.5135 20.9775 41.7197 21.9484 42.3543L21.9516 42.3512ZM37.9023 41.9165C38.0197 42.1068 37.8547 42.5225 37.5184 42.8874C36.9536 43.4935 36.906 43.4998 36.5316 42.9636C36.2333 42.5384 36.2238 42.2972 36.4903 41.9768C36.9187 41.4596 37.604 41.431 37.9055 41.9165H37.9023ZM39.1144 43.6775C39.3111 44.1947 38.0609 45.4639 37.6231 45.191C37.1947 44.9245 37.3787 44.0424 37.9562 43.6077C38.686 43.0619 38.8859 43.0714 39.1144 43.6775ZM120.99 46.9108C122.904 48.2656 124.909 49.6713 125.423 50.0171C126.53 50.7628 126.486 51.5402 125.185 54.1547C123.154 58.232 121.019 59.882 116.919 60.5483C111.665 61.3987 109.644 62.7948 107.302 67.1831L106.655 68.3983L105.684 67.1831C105.151 66.5167 103.552 64.54 102.146 62.8107C100.74 61.0782 99.579 59.5298 99.579 59.3775C99.579 58.2765 103.587 53.939 105.532 52.9395C106.147 52.6222 107.778 52.3905 110.24 52.27C115.647 52.0034 116.434 51.4164 117.129 47.1392C117.316 45.9843 117.383 44.9086 117.281 44.7404C116.878 44.09 117.652 44.5437 120.994 46.9108H120.99ZM112.823 46.6823C114.219 47.0662 115.552 47.4311 115.768 47.4914C116.266 47.631 116.288 48.5956 115.815 49.63C115.26 50.8389 113.581 51.4577 110.818 51.4704C109.45 51.4767 107.756 51.5973 107.007 51.7401C106.249 51.886 105.655 51.8733 105.655 51.7083C105.655 51.5434 106.246 50.4645 106.975 49.2778C107.705 48.0943 108.492 46.8124 108.736 46.4063C109.012 45.9494 109.38 45.7336 109.723 45.8288C110.021 45.9113 111.424 46.2952 112.82 46.6791L112.823 46.6823ZM34.5389 48.1705C34.7769 48.6496 35.3195 49.6142 35.7224 50.2805C36.3824 51.3752 36.4015 51.4894 35.8906 51.3276C35.567 51.226 34.6468 50.9849 33.7964 50.7818C32.9461 50.5788 32.3178 50.3313 32.3686 50.2202C32.4193 50.1092 32.7366 49.4143 33.0825 48.6559C33.4284 47.8976 33.7933 47.2884 33.9011 47.2884C34.009 47.2884 34.2946 47.6818 34.5389 48.1705ZM66.84 53.5868C68.0553 54.0183 68.4805 54.05 68.9659 53.7486C69.975 53.1235 73.0369 53.2822 74.0681 54.0151C74.9661 54.6529 75.9814 56.6773 75.9814 57.8322C75.9814 59.4727 71.9739 61.5034 67.9633 61.8968C65.6851 62.119 65.4312 61.735 66.7099 59.9899C67.243 59.2601 67.6904 58.489 67.6904 58.2891C67.6904 57.8481 66.0214 56.2235 65.5645 56.2235C65.133 56.2235 64.5015 54.7957 64.5015 53.8247C64.5015 52.8538 64.8061 52.8697 66.84 53.5899V53.5868ZM64.0922 57.8005C64.3016 58.1337 64.3746 58.4986 64.2604 58.6128C63.9812 58.8825 63.1371 58.819 62.6199 58.4859C62.2487 58.2479 62.2392 58.1019 62.5723 57.7085C63.1308 57.039 63.6385 57.0707 64.0954 57.8005H64.0922ZM76.7398 62.1443C77.3776 62.7821 77.3934 64.3242 76.7715 64.8446C76.1972 65.3237 74.0396 65.33 73.1575 64.8573C72.7926 64.6605 72.4086 64.5209 72.2627 64.5304C72.1231 64.54 71.9644 65.6537 71.9137 66.9895C71.8629 68.3253 71.774 69.4835 71.7169 69.5406C71.6598 69.5977 70.1971 69.5374 68.4963 69.4042L65.3836 69.1598L63.9558 67.1386C63.1625 66.0154 62.5946 65.0508 62.6802 64.9683C62.7627 64.8858 63.226 64.9683 63.6829 65.146C65.9548 66.0249 69.242 65.2507 72.7957 63.0042C75.0422 61.5827 75.9783 61.3796 76.743 62.1443H76.7398ZM19.207 64.2068C19.2101 64.6478 19.4291 65.4062 19.702 65.9234C19.9717 66.4406 20.1208 66.9165 20.0351 67.0022C19.9526 67.0847 18.8643 67.2307 17.6205 67.3227C15.5866 67.4718 15.2788 67.4147 14.5681 66.7452C13.7494 65.971 13.5717 65.4855 14.1111 65.4855C14.8124 65.4855 17.2239 64.21 17.9536 63.4516C18.7977 62.5759 19.1879 62.8138 19.2038 64.21L19.207 64.2068ZM11.4426 63.8229C11.6267 63.9529 12.2105 64.6923 12.7468 65.4823C13.944 67.2444 16.0604 68.1022 19.0959 68.0556C23.6523 67.9858 24.9533 68.2841 26.508 69.7437C27.9359 71.0858 29.3161 73.7702 28.7545 74.1129C28.2691 74.408 25.1659 74.4175 24.7153 74.1224C24.5471 74.0114 24.1791 73.4688 23.884 72.8913C23.1098 71.3746 22.3165 71.0319 18.1535 70.4132C15.1773 69.9721 14.2539 69.7151 13.7526 69.1852C12.5119 67.8779 10.2306 64.2417 10.44 63.899C10.6843 63.5024 10.9572 63.4802 11.4426 63.8165V63.8229ZM123.053 64.0259C123.269 64.5844 120.505 68.8489 119.502 69.5025C119.102 69.7627 117.011 70.2545 114.886 70.5909C110.786 71.235 110.634 71.3143 109.625 73.3514L109.114 74.3826L106.744 74.3223C105.436 74.2874 104.373 74.151 104.37 74.0177C104.364 73.5798 106.623 70.1466 107.41 69.3946C108.46 68.3951 110.326 68.0588 114.911 68.0461C117.887 68.0377 120.033 67.0011 121.349 64.9366C122.26 63.5087 122.748 63.2454 123.05 64.0259H123.053ZM66.7321 71.5269C66.1737 72.225 65.6184 72.7993 65.501 72.7993C65.1361 72.7929 63.8765 70.813 64.0541 70.5242C64.1493 70.3719 65.0124 70.2514 65.9865 70.2514H67.7475L66.729 71.5269H66.7321ZM72.2468 70.483C73.6144 70.7114 73.6652 70.8606 72.7767 71.9838L72.1262 72.8024L71.0633 71.9997C69.0104 70.4481 69.3626 70.0007 72.2468 70.483Z" fill="#F4EFE4"/>
<path d="M12.0994 38.5754C11.8995 39.7907 11.0872 40.9139 10.4082 40.9139C9.54513 40.9139 9.71012 41.5358 10.7413 42.1768C11.3474 42.5543 11.982 43.2746 12.1628 43.7982C12.4928 44.7405 13.1592 45.1276 13.156 44.3756C13.1528 43.7982 14.7488 41.8848 15.2343 41.8848C16.1862 41.8848 15.9927 41.3042 14.7774 40.5078C13.927 39.9493 13.4162 39.3337 13.2417 38.6674C12.8704 37.2396 12.3215 37.1951 12.0962 38.5754H12.0994ZM14.3871 41.1646C14.5616 41.2629 13.0513 42.8177 12.7784 42.824C12.642 42.824 12.2453 42.548 11.8836 42.1894L11.23 41.5517L11.9598 40.641L12.6896 39.7304L13.4796 40.4126C13.9048 40.7806 14.3268 41.1265 14.3903 41.1646H14.3871Z" fill="#F4EFE4"/>
<path d="M66.0181 13.7244C65.1075 13.9592 64.933 15.349 65.7135 16.1296C66.2815 16.6975 66.5036 16.742 67.2017 16.4278C68.2964 15.936 68.5153 15.2538 67.8934 14.3051C67.3794 13.5245 67.1128 13.442 66.0181 13.7213V13.7244Z" fill="#F4EFE4"/>
<path d="M70.619 13.7308C69.5941 13.8482 69.5719 13.8831 69.6607 15.1872L69.7527 16.523H76.7682V13.6673L74.2172 13.6356C72.821 13.6197 71.1933 13.661 70.619 13.7276V13.7308ZM76.2384 15.1745C76.1368 15.8535 75.994 15.8884 73.3541 15.8884C70.7142 15.8884 70.5745 15.8599 70.5745 15.1745C70.5745 14.4891 70.6666 14.4606 73.4588 14.4606C76.251 14.4606 76.3431 14.4764 76.2384 15.1745Z" fill="#F4EFE4"/>
<path d="M70.6348 18.4839C70.3587 18.6013 70.2413 19.5469 70.2413 21.6411C70.2413 24.2239 70.3175 24.6523 70.7871 24.7823C71.2377 24.9061 75.921 24.8395 77.0442 24.6935C77.1775 24.6776 77.2473 23.2498 77.1965 21.5491L77.1045 18.4364L74.068 18.3761C72.399 18.3412 70.8537 18.3919 70.6348 18.4839ZM76.5429 19.8801C76.6032 20.5305 76.2224 21.0065 74.5534 22.3645C72.5798 23.9701 71.2154 24.4809 71.171 23.6305C71.1615 23.4116 71.1234 22.3106 71.0917 21.1556L71.0314 19.0741H73.7507C76.4223 19.0741 76.4699 19.0868 76.5461 19.8801H76.5429Z" fill="#F4EFE4"/>
<path d="M85.6302 17.4051C85.7032 17.6272 86.2331 17.8938 86.8391 18.0112C87.4452 18.1317 87.9719 18.3697 88.0385 18.5569C88.1052 18.7441 89.0571 19.3343 90.1803 19.8927C91.3035 20.4512 92.2745 21.089 92.3665 21.3365C92.4585 21.5808 92.6965 21.7775 92.8996 21.7775C93.1026 21.7775 93.7055 22.1488 94.2195 22.5835C94.7367 23.0182 95.365 23.3894 95.5871 23.3894C95.8251 23.3894 96.1614 23.5861 96.393 23.859C96.6215 24.1319 96.9673 24.3286 97.2117 24.3286C97.9478 24.3286 97.3322 23.4529 96.301 23.0277C95.7553 22.8024 94.9842 22.3011 94.54 21.8822C94.1148 21.4824 93.5691 21.1366 93.3565 21.1366C93.1439 21.1366 92.8869 20.9398 92.7949 20.6955C92.7028 20.4512 91.7922 19.8483 90.761 19.3438C89.7297 18.8393 88.6763 18.1762 88.4098 17.8557C87.8513 17.1862 85.4303 16.7896 85.6334 17.3988L85.6302 17.4051Z" fill="#F4EFE4"/>
<path d="M84.4405 20.2004C84.3358 20.375 84.5167 20.6288 84.8181 20.7335C85.1227 20.8382 85.6526 21.1523 85.9414 21.403C86.246 21.6632 86.7314 21.7806 87.0361 21.66C87.4771 21.4887 87.3407 21.3015 86.3063 20.6732C84.8784 19.807 84.7007 19.7626 84.4405 20.2004Z" fill="#F4EFE4"/>
<path d="M82.8795 22.6914C82.7779 22.8564 83.2094 23.3007 83.8187 23.6624C84.4247 24.0241 85.0276 24.554 85.1259 24.8174C85.2243 25.0807 85.567 25.3028 85.8716 25.3028C86.1762 25.3028 86.5125 25.5122 86.6077 25.7597C86.7727 26.1913 88.5306 27.2161 89.108 27.2161C89.7363 27.2161 89.3206 26.645 88.2894 26.0897C87.6834 25.7629 87.1662 25.2965 87.1662 25.0744C87.1662 24.8523 87.0139 24.6428 86.8457 24.6175C86.6712 24.5921 86.3761 24.5572 86.1921 24.5413C86.0112 24.5254 85.7542 24.3604 85.6304 24.1764C85.1957 23.5386 83.0698 22.3868 82.8858 22.6883L82.8795 22.6914Z" fill="#F4EFE4"/>
<path d="M89.0699 22.6913C89.0699 22.9578 90.8024 24.3317 91.1356 24.3317C91.253 24.3317 92.0779 24.8204 92.9886 25.4296C94.7813 26.629 96.3901 27.2001 96.3901 26.6417C96.3901 26.4449 96.0252 26.1847 95.6 26.08C95.1589 25.969 94.1436 25.401 93.2932 24.7886C92.4428 24.1762 91.6686 23.6939 91.5322 23.6939C91.3958 23.6939 91.015 23.4211 90.6501 23.0562C90.0123 22.4184 89.0699 22.2026 89.0699 22.6913Z" fill="#F4EFE4"/>
<path d="M90.65 27.822C90.65 28.0631 92.3825 29.1293 92.7759 29.1293C92.8426 29.1293 92.8965 28.9325 92.8965 28.6882C92.8965 28.4439 92.4396 28.0885 91.8938 27.895C91.0646 27.6031 90.65 27.5787 90.65 27.822Z" fill="#F4EFE4"/>
<path d="M106.804 33.3812C106.15 34.7488 105.931 34.7932 104.592 33.8349C103.682 33.1813 103.637 33.1781 103.878 33.762C104.021 34.1046 104.205 34.7805 104.288 35.266C104.424 36.0656 104.348 36.1481 103.469 36.1481C102.101 36.1481 101.886 36.7065 102.891 37.6362L103.71 38.3945L103.012 39.5495L102.314 40.7045L103.498 40.5236C104.592 40.3554 104.697 40.4062 104.868 41.1931C105.255 42.9541 105.332 43.0462 105.817 42.3481C106.556 41.2851 106.924 40.9202 107.264 40.9202C107.445 40.9202 107.53 41.0313 107.445 41.1646C107.359 41.301 107.641 41.4089 108.098 41.4089C108.85 41.4089 108.892 41.3327 108.736 40.238C108.584 39.1751 108.65 39.0513 109.482 38.8705C109.999 38.7594 110.545 38.4834 110.741 38.2327C111.014 37.89 110.878 37.7472 110.12 37.5822C108.876 37.3125 108.876 36.9635 110.12 35.8085C111.091 34.9074 111.1 34.8757 110.377 34.8471C109.983 34.8313 109.298 34.8471 108.92 34.8789C108.378 34.9264 108.206 34.7583 108.206 34.1808C108.206 33.7556 108.019 33.1623 107.781 32.8291C107.391 32.2833 107.311 32.3278 106.804 33.3907V33.3812Z" fill="#F4EFE4"/>
<path d="M38.9651 59.1967C38.9461 59.4093 38.9492 59.7742 38.9746 59.9868C39.0032 60.2343 38.6541 60.3802 38.0481 60.3802C36.8043 60.3802 36.8043 60.8594 38.0481 61.2941C38.7462 61.5384 38.9714 61.8049 38.9143 62.3221C38.8699 62.7156 39.0095 63.0805 39.2348 63.1566C39.4982 63.2486 39.6283 62.9123 39.6283 62.1539C39.6283 61.1513 39.7234 61.0148 40.4342 61.0148C40.8911 61.0148 41.2401 60.8752 41.2401 60.6944C41.2401 60.5135 40.8911 60.3739 40.4342 60.3739C39.7964 60.3739 39.6283 60.2089 39.6283 59.5838C39.6283 58.7937 39.0349 58.4415 38.9651 59.1904V59.1967Z" fill="#F4EFE4"/>
<path d="M23.0144 48.3545C22.8462 51.15 21.1106 53.3647 19.0957 53.3647C18.312 53.3647 18.4897 53.9327 19.4606 54.5355C21.6468 55.8968 23.0429 57.9148 23.0429 59.7107C23.0429 60.5928 23.5347 61.2718 23.8964 60.8942C23.9789 60.8086 24.1122 60.1359 24.2011 59.3744C24.4866 56.8836 26.2698 54.6371 27.9611 54.6371C28.9352 54.6371 28.4465 53.7677 27.1424 53.1743C25.7749 52.5524 24.0138 50.4868 24.0138 49.5063C24.0138 48.3228 23.081 47.244 23.0112 48.3514L23.0144 48.3545Z" fill="#F4EFE4"/>
<path d="M27.0631 49.4461C26.4476 50.2362 26.0224 51.058 26.1303 51.2389C26.3111 51.534 26.6887 51.1469 28.1546 49.1732C29.2684 47.6724 28.2435 47.9294 27.06 49.4461H27.0631Z" fill="#F4EFE4"/>
<path d="M19.2258 48.5068C19.2416 48.9002 20.8503 50.5597 21.0376 50.3725C21.2692 50.144 19.9143 48.2625 19.5177 48.2625C19.3368 48.2625 19.2194 48.3608 19.2226 48.5068H19.2258Z" fill="#F4EFE4"/>
<path d="M18.642 57.8292C17.9059 58.7113 17.7282 59.1047 18.0614 59.1047C18.5024 59.1047 20.1873 57.2517 20.1873 56.7662C20.1873 56.2808 19.6288 56.6457 18.6389 57.8292H18.642Z" fill="#F4EFE4"/>
<path d="M26.7555 57.1312C26.6508 57.2993 27.1426 57.9593 27.8724 58.6193C29.1479 59.7743 29.6207 59.9329 29.2463 59.0762C28.929 58.3464 26.9586 56.8107 26.7555 57.1312Z" fill="#F4EFE4"/>
<path d="M120.809 50.271C120.454 50.5312 120.169 51.2546 120.064 52.1685C119.918 53.444 120.007 53.7518 120.717 54.4625C121.72 55.4652 121.961 55.4779 122.964 54.5736C124.119 53.5328 124.217 51.5434 123.167 50.4836C122.434 49.7443 121.628 49.6713 120.809 50.2742V50.271ZM122.856 51.1182C123.376 52.0891 123.227 53.5392 122.542 54.1674C121.755 54.8877 121.127 54.4594 120.835 52.9998C120.47 51.1785 122.085 49.6745 122.856 51.1182Z" fill="#F4EFE4"/>
<path d="M115.523 52.727C115.523 52.8889 115.993 53.4378 116.542 53.9106C117.097 54.3897 118.166 55.3384 118.896 55.9952C120.203 57.1724 120.962 57.5119 120.962 56.9154C120.962 56.7504 120.629 56.3887 120.232 56.1253C119.829 55.8588 118.712 54.9164 117.741 54.0248C115.98 52.4097 115.523 52.1432 115.523 52.7239V52.727Z" fill="#F4EFE4"/>
<path d="M110.757 53.6091C110.757 53.8439 112.337 55.4304 114.311 57.1755C114.797 57.6039 115.295 57.8514 115.418 57.7244C115.545 57.5975 114.673 56.579 113.461 55.4335C111.367 53.4536 110.757 53.0443 110.757 53.6091Z" fill="#F4EFE4"/>
<path d="M113.286 53.609C113.283 53.7422 114.311 54.8084 115.587 55.9919C117.805 58.048 118.887 58.6731 118.506 57.6799C118.401 57.407 118.233 57.1945 118.122 57.1945C118.011 57.1945 116.983 56.3346 115.86 55.3065C113.854 53.4725 113.302 53.1108 113.286 53.6121V53.609Z" fill="#F4EFE4"/>
<path d="M105.306 55.0368C104.7 55.4461 104.015 56.1442 103.742 56.6328C103.266 57.48 103.285 57.5276 104.653 58.9269L106.049 60.3547L107.356 59.2918C108.067 58.7143 109.301 57.9084 110.059 57.5308L111.455 56.8327L110.24 55.573C109.206 54.5006 108.828 54.3134 107.705 54.3134C106.855 54.3134 106.001 54.5735 105.306 55.0431V55.0368Z" fill="#F4EFE4"/>
<path d="M101.191 58.6192C101.191 59.1046 106.033 64.21 106.325 64.0323C106.493 63.9276 105.585 62.6901 104.294 61.2623C102.098 58.8317 101.191 58.0607 101.191 58.6192Z" fill="#F4EFE4"/>
</g>
<defs>
<clipPath id="clip0_40_486">
<rect width="117.541" height="95.6056" fill="white" transform="translate(9.6499 5.22717)"/>
</clipPath>
</defs>
</svg>
