<svg width="183" height="207" viewBox="0 0 183 207" fill="none" xmlns="http://www.w3.org/2000/svg">
<path d="M204.459 76.9611H171.885C169.927 76.9611 168.948 74.5962 170.334 73.223L193.372 50.1843C194.224 49.3324 194.224 47.9465 193.372 47.0819L159.577 13.2867C158.725 12.4348 157.339 12.4348 156.475 13.2867L133.436 36.3254C132.05 37.7113 129.698 36.7323 129.698 34.7743V2.1869C129.698 0.97902 128.719 0 127.511 0H79.717C78.5091 0 77.5301 0.97902 77.5301 2.1869V34.7616C77.5301 36.7196 75.1652 37.6986 73.792 36.3127L50.7533 13.274C49.9014 12.4221 48.5028 12.4221 47.6509 13.274L13.8557 47.0692C13.0038 47.9211 13.0038 49.3197 13.8557 50.1716L36.8944 73.2103C38.2803 74.5962 37.3013 76.9484 35.3433 76.9484H2.74318C1.53529 76.9484 0.556274 77.9274 0.556274 79.1353V126.929C0.556274 128.137 1.53529 129.116 2.74318 129.116H35.3178C37.2759 129.116 38.2549 131.481 36.869 132.854L13.8303 155.893C12.9784 156.745 12.9784 158.131 13.8303 158.995L47.6255 192.791C48.4774 193.642 49.876 193.642 50.7279 192.791L73.7666 169.752C75.1525 168.366 77.5047 169.345 77.5047 171.303V203.878C77.5047 205.086 78.4837 206.065 79.6916 206.065H127.486C128.693 206.065 129.672 205.086 129.672 203.878V171.303C129.672 169.345 132.037 168.366 133.411 169.752L156.449 192.791C157.301 193.642 158.7 193.642 159.552 192.791L193.347 158.995C194.199 158.143 194.199 156.758 193.347 155.893L170.308 132.854C168.922 131.468 169.901 129.116 171.859 129.116H204.434C205.642 129.116 206.621 128.137 206.621 126.929V79.1353C206.621 77.9274 205.642 76.9484 204.434 76.9484" fill="#FFEA1F"/>
</svg>
