<svg width="179" height="242" viewBox="0 0 179 242" fill="none" xmlns="http://www.w3.org/2000/svg">
<path fill-rule="evenodd" clip-rule="evenodd" d="M39.7989 211.549L14.3235 176.826C12.2757 174.033 12.8755 170.11 15.6684 168.063L58.6318 136.544L5.96416 128.455C2.54096 127.93 0.191809 124.726 0.720696 121.306L6.30837 84.9278C6.83319 81.5046 10.0368 79.1555 13.4575 79.6844L66.1252 87.7732L34.606 44.8098C32.5582 42.0169 33.158 38.0943 35.9509 36.0465L65.6191 14.2771C68.4119 12.2293 72.3345 12.8291 74.3823 15.6219L105.901 58.5854L113.99 5.91774C114.515 2.49454 117.719 0.145398 121.139 0.674285L157.517 6.26196C160.94 6.78678 163.29 9.99034 162.761 13.4111L154.672 66.0787L197.635 34.5596C200.428 32.5118 204.351 33.1116 206.399 35.9045L228.168 65.5726C230.216 68.3655 229.616 72.2881 226.823 74.3359L183.86 105.855L236.527 113.944C239.95 114.469 242.3 117.672 241.771 121.093L236.181 157.464C235.657 160.887 232.453 163.237 229.032 162.708L176.365 154.619L207.884 197.582C209.932 200.375 209.332 204.298 206.539 206.346L176.871 228.115C174.078 230.163 170.155 229.563 168.107 226.77L136.588 183.807L128.499 236.474C127.975 239.898 124.771 242.247 121.35 241.718L84.9792 236.128C81.556 235.604 79.2068 232.4 79.7357 228.979L87.8246 176.312L39.8038 211.541L39.7989 211.549Z" fill="#0043FF"/>
</svg>
