<svg width="189" height="291" viewBox="0 0 189 291" fill="none" xmlns="http://www.w3.org/2000/svg">
<path fill-rule="evenodd" clip-rule="evenodd" d="M-76.303 276.646L-109.683 231.149C-112.367 227.489 -111.581 222.349 -107.921 219.666L-51.6261 178.367L-120.637 167.768C-125.122 167.08 -128.2 162.882 -127.507 158.4L-120.186 110.734C-119.498 106.249 -115.3 103.171 -110.818 103.864L-41.8076 114.463L-83.1071 58.1675C-85.7904 54.508 -85.0045 49.3682 -81.345 46.685L-42.4707 18.1605C-38.8112 15.4773 -33.6714 16.2631 -30.9881 19.9226L10.3114 76.2178L20.9103 7.20718C21.598 2.72175 25.7956 -0.356334 30.2778 0.336667L77.9437 7.65822C82.4291 8.34589 85.5072 12.5435 84.8142 17.0257L74.2154 86.0363L130.51 44.7367C134.17 42.0535 139.31 42.8393 141.993 46.4989L170.517 85.3732C173.201 89.0327 172.415 94.1725 168.755 96.8557L112.46 138.155L181.471 148.754C185.956 149.442 189.034 153.639 188.341 158.122L181.018 205.779C180.33 210.264 176.132 213.343 171.65 212.65L102.64 202.051L143.939 258.346C146.622 262.005 145.837 267.145 142.177 269.828L103.303 298.353C99.6432 301.036 94.5034 300.25 91.8202 296.591L50.5206 240.296L39.9217 309.306C39.234 313.792 35.0364 316.87 30.5542 316.177L-17.1031 308.853C-21.5885 308.165 -24.6666 303.968 -23.9736 299.486L-13.3747 230.475L-76.2965 276.636L-76.303 276.646Z" fill="#0043FF"/>
</svg>
