<svg width="126" height="124" viewBox="0 0 126 124" fill="none" xmlns="http://www.w3.org/2000/svg">
<g clip-path="url(#clip0_31_384)">
<path d="M48.6971 0.584886C44.4165 1.73891 43.7221 3.18815 43.031 12.4371C42.7962 15.5604 42.5345 18.2173 42.4439 18.3683C42.0984 18.9386 40.9779 28.1607 40.7666 32.183C40.572 35.8933 39.9044 40.8449 38.898 46.0347C38.6833 47.1451 38.5122 49.0774 38.5122 50.4059C38.5122 52.9823 39.4213 54.6529 41.0886 55.1461C42.3366 55.5151 47.0969 58.2827 47.0969 58.6383C47.0969 58.7893 44.8526 58.947 42.1219 58.9906C39.3911 59.0342 35.8452 59.2321 34.2584 59.4301C29.7329 60.0004 29.9778 60.1211 30.4139 57.5447C30.9809 54.19 30.5716 52.7307 28.8372 51.9088L27.3947 51.2244L27.6664 48.4333C27.8912 46.1319 27.8174 45.5214 27.237 44.941C25.4892 43.1932 23.842 44.6693 23.6609 48.1414L23.53 50.6004L21.5407 50.6977L19.5513 50.795L20.3732 49.8959C21.8392 48.2957 22.9463 45.7596 22.9463 44.005C22.9463 42.0526 21.6782 40.3719 19.8633 39.919C18.2228 39.5097 15.5626 40.4625 14.0093 42.0157C12.701 43.324 12.3991 44.4345 12.6339 47.0478C12.7144 47.9334 12.5735 47.8663 11.1209 46.3466C9.60121 44.7498 9.40329 44.6693 7.1422 44.6693C2.85151 44.6693 0 46.7861 0 49.9765C0 52.9521 2.88842 54.3913 8.03791 53.9887C10.4198 53.8008 11.2584 54.0793 10.2218 54.7167C9.35296 55.2501 9.98701 57.1589 13.855 65.6262C14.328 66.6595 15.0593 68.6119 15.4921 69.9773L16.2738 72.4564L13.5631 73.7044C12.0804 74.3888 10.0373 75.2409 9.05775 75.5898C6.56184 76.4788 6.13243 76.9216 6.13243 78.6191C6.13243 80.5984 7.38039 82.5273 9.41 83.678C10.8525 84.4965 11.0538 84.7716 10.8358 85.6439C10.5405 86.8448 9.10136 89.0791 7.56825 90.7162C5.64264 92.7726 6.87383 92.4506 9.01749 90.3338C11.0706 88.3109 11.292 87.868 14.1167 80.179C15.0627 77.6026 16.5757 75.8716 18.6556 74.9826C20.8395 74.0499 23.4093 73.6574 24.1574 74.1405C24.6539 74.4626 24.5868 74.6504 23.7279 75.3784C23.1644 75.8548 22.2452 76.4922 21.6614 76.8142C20.4135 77.4986 19.4473 79.1927 19.7895 80.0985C20.1854 81.1552 20.7053 80.8399 23.1744 78.032C25.989 74.8316 27.3947 74.003 29.3874 74.372L30.8299 74.637L29.6188 75.7441C28.2535 76.992 25.7945 80.4474 25.7945 81.115C25.7945 82.0979 27.0089 81.427 28.4816 79.6322C31.105 76.4318 31.4706 76.197 33.8726 76.197C35.0837 76.197 36.0566 76.3446 36.0566 76.5291C36.0566 76.7136 35.0434 77.7334 33.7921 78.8069C30.7863 81.3901 29.6457 83.5706 31.2962 83.5706C31.5545 83.5706 32.6616 82.8326 33.7552 81.9335C36.0867 80.018 37.1502 79.914 39.6092 81.3632C40.8974 82.1247 41.3637 82.6581 41.3637 83.3761C41.3637 84.5267 40.6995 84.8186 38.0862 84.8186C36.2142 84.8186 35.9928 84.936 34.3155 86.8079C31.4539 90.0083 30.1019 92.1386 30.6085 92.6619C30.9406 93.0041 31.4539 92.7894 32.5073 91.8702C33.9498 90.6122 37.848 89.1193 38.5558 89.5588C38.7537 89.6796 38.9014 90.166 38.8946 90.6726C38.8577 93.0611 33.9531 96.4192 27.4349 98.5159C24.8216 99.358 22.225 100.348 21.6212 100.73C20.1384 101.673 16.3912 105.256 16.3912 105.732C16.3912 106.728 18.3034 105.93 20.2927 104.105C22.4263 102.149 25.4825 100.683 29.696 99.5995C30.5951 99.368 32.0242 98.8078 32.8561 98.3583L34.3792 97.5397L35.8418 98.5159C36.6604 99.0627 37.5293 99.5693 37.8111 99.6666C38.6296 99.9484 36.0935 104.722 33.299 108.154C31.9336 109.831 30.8769 111.334 30.9842 111.452C31.0916 111.569 32.5207 110.261 34.1242 108.583C36.4591 106.138 37.6601 104.37 39.9245 100.039C43.3698 93.4436 44.081 92.5848 46.0838 92.5848C47.5129 92.5848 47.5263 92.6049 47.5263 94.3594C47.5263 95.3357 47.1573 96.8553 46.7078 97.7343C46.067 98.9822 46 99.4049 46.3958 99.6632C47.0265 100.073 48.0631 98.8279 49.5627 95.8623C51.1427 92.7391 54.0882 89.5622 56.1882 88.7134C57.1443 88.3276 59.1136 87.9251 60.6366 87.8043C62.901 87.6265 63.411 87.7037 63.6156 88.2538C63.9175 89.0623 62.4683 90.4881 61.0257 90.8034C58.1373 91.4341 55.7186 93.0108 55.7186 94.2621C55.7186 95.5135 56.46 95.6208 58.6842 94.5473C61.8074 93.041 62.4783 92.9068 63.2097 93.6382C64.149 94.5775 64.1087 94.6815 62.1563 96.3723C60.8681 97.486 60.5192 98.0127 60.8479 98.3415C61.1767 98.6702 61.8611 98.4421 63.3841 97.5028C65.2963 96.3219 65.5714 96.2616 66.6415 96.7782C68.4263 97.637 68.2015 99.056 66.0578 100.495C64.2228 101.723 63.7397 102.85 65.0447 102.85C65.4439 102.85 66.1551 102.568 66.5845 102.246C67.0206 101.918 68.0673 101.632 68.8859 101.622C70.2512 101.606 70.429 101.73 70.8417 103.008C71.4354 104.843 71.0463 106.178 69.4897 107.647C67.6178 109.415 66.759 109.637 66.759 108.355C66.759 106.772 65.3902 107.067 64.7663 108.785C63.7263 111.66 58.7982 115.001 53.0214 116.742C50.9918 117.356 49.5392 118.131 47.9692 119.436C46.7581 120.442 45.6074 121.271 45.4129 121.271C44.913 121.271 44.9432 122.391 45.4531 122.71C45.9899 123.046 47.3653 122.271 49.4318 120.466C50.559 119.483 52.0083 118.731 53.6454 118.282C56.1044 117.604 60.0327 115.799 61.5659 114.642C62.2569 114.119 62.6595 114.206 65.1152 115.42C68.0405 116.866 69.1677 117.064 70.4626 116.366C71.1134 116.014 71.5931 116.168 72.8042 117.115C73.6361 117.765 76.434 119.463 78.9702 120.862L83.6131 123.418L87.3972 121.798C89.4604 120.915 92.9392 119.104 95.046 117.819C97.1729 116.521 101.678 113.978 105.073 112.166C121.189 103.565 121.407 103.421 120.414 102.23C120.106 101.861 119.334 101.297 118.67 100.962C118.012 100.626 116.406 99.3613 115.08 98.1335C113.5 96.6708 111.102 95.1142 108.056 93.5878C105.519 92.313 102.507 90.686 101.383 89.9781C100.263 89.2737 97.8505 87.8781 96.0557 86.8952C94.261 85.9122 91.7114 84.4663 90.4165 83.6948L88.0547 82.2891L84.7 84.2215C82.865 85.2782 80.3087 86.9656 79.0607 87.9485C77.8128 88.9315 76.4407 89.7433 76.0381 89.7433C75.6356 89.7433 71.2979 87.7305 66.4201 85.2748C61.5424 82.8192 56.5573 80.3937 55.3563 79.8905C53.4843 79.1055 53.2059 78.8505 53.4239 78.1159C53.5648 77.6395 53.85 76.1634 54.0681 74.798C54.2828 73.4528 54.7424 70.8562 55.0812 69.0615C55.4234 67.2667 55.8192 65.0861 55.9601 64.2441C56.101 63.3853 56.4197 62.7043 56.6814 62.7043C57.8119 62.7043 64.0785 66.2402 64.2161 66.9581C64.3 67.3908 64.149 68.773 63.8806 70.0612L63.3942 72.3826L60.3716 73.8856C57.7952 75.1637 57.349 75.5428 57.349 76.4419C57.349 77.3946 57.9159 77.7636 63.3372 80.3434C66.6147 81.9033 69.7514 83.3023 70.2646 83.4364C71.5629 83.7753 73.1531 82.836 76.3501 79.8503C78.6146 77.7368 79.1748 76.9618 79.413 75.6233C79.6646 74.2177 79.8457 73.9996 80.6811 74.0969C81.6405 74.2076 88.9136 77.5925 97.1863 81.7792C101.165 83.792 101.843 84.0101 104.131 83.99C107.331 83.9631 111.625 82.0208 112.719 80.1086C113.45 78.8304 115.423 71.4064 116.523 65.7873C116.875 63.9824 117.533 60.9498 117.982 59.0376C119.405 52.989 119.955 49.9429 120.421 45.4979C120.673 43.1161 121.048 39.9358 121.266 38.3557C121.844 34.1958 122.025 32.3071 122.313 27.4696C122.622 22.2799 122.555 22.1658 117.751 19.7303C114.004 17.8315 111.001 17.1438 111.001 18.1838C111.001 18.593 111.763 19.0291 113.205 19.4518C114.416 19.8041 115.644 20.3777 115.929 20.7199C116.563 21.4848 116.238 29.459 115.493 31.3712C115.231 32.0421 114.849 34.377 114.631 36.6012C114.416 38.8052 113.782 43.059 113.225 46.0246C112.668 48.9902 111.93 53.462 111.585 55.9344C111.239 58.4304 110.333 62.3017 109.555 64.6165C108.78 66.9178 108.15 69.1755 108.15 69.6485C108.15 70.5308 106.06 78.4681 105.315 80.4172C104.791 81.7826 103.49 82.5173 102.259 82.1382C101.765 81.9872 97.8304 80.1354 93.5364 78.0387C89.2457 75.942 83.697 73.3589 81.2447 72.3223C78.7856 71.2823 75.2162 69.5949 73.304 68.575C71.3918 67.5552 68.7248 66.267 67.3729 65.7067C66.0209 65.1499 63.2566 63.8751 61.227 62.8787C59.1974 61.879 56.1882 60.6076 54.5344 60.0507C52.8805 59.4904 49.462 57.8366 46.9259 56.3638C44.3897 54.8911 42.1286 53.6901 41.8938 53.6901C41.6589 53.6901 41.1423 53.3379 40.7163 52.8716C39.9514 52.0363 39.9849 50.4897 40.9142 44.052C41.1088 42.6967 41.5482 39.7211 41.8938 37.4197C42.2393 35.1184 42.5211 32.1595 42.5245 30.8243C42.5312 28.4425 43.7053 19.3613 44.0844 18.7272C44.1884 18.5561 44.4467 15.9562 44.6581 12.9906C45.1109 6.58984 45.7383 3.80542 46.889 3.06067C47.3318 2.77552 48.5663 2.31592 49.5828 2.06096C52.4611 1.33634 66.7523 3.82219 76.8567 6.80789C81.1105 8.06256 86.7934 9.72986 89.5006 10.5115C92.1945 11.2898 96.2705 12.786 98.5148 13.8126C104.057 16.3521 109.394 18.1838 109.87 17.7107C110.109 17.4726 109.401 17.0431 108.076 16.6171C106.875 16.2313 103.393 14.7351 100.35 13.2993C96.9984 11.7159 92.0569 9.85398 87.8434 8.57919C84.019 7.42181 78.2925 5.68071 75.1424 4.71455C71.5395 3.61084 66.1283 2.40985 60.5863 1.48731C50.8307 -0.143089 51.2769 -0.109542 48.6837 0.591595L48.6971 0.584886ZM119.187 41.1938L119.166 42.0123L118.797 41.1938C118.586 40.7241 118.418 40.1069 118.408 39.7513C118.391 39.2044 118.438 39.2044 118.797 39.7513C119.032 40.1069 119.2 40.7275 119.187 41.1938ZM20.8563 41.858C21.3293 42.3612 21.695 43.3006 21.695 44.005C21.695 45.7663 19.6285 49.2351 17.6358 50.8118C15.8813 52.204 15.5558 53.3714 16.3442 55.4782C16.5623 56.0619 16.5824 56.5316 16.3878 56.5316C15.784 56.5316 14.2643 51.9255 13.7778 48.6111C13.3451 45.6858 13.3753 45.2832 14.1066 43.9279C15.5391 41.2743 19.2494 40.1371 20.8563 41.8614V41.858ZM119.049 44.9008C118.925 45.253 118.814 45.83 118.814 46.1286C118.814 46.4272 118.657 46.6955 118.462 46.6955C118.267 46.6955 118.19 46.1286 118.287 45.4677C118.381 44.8035 118.653 44.2399 118.871 44.2399C119.089 44.2399 119.17 44.5519 119.046 44.9041L119.049 44.9008ZM9.99036 46.813C10.8492 47.5812 15.1399 55.4816 15.1399 56.2934C15.1399 56.4309 14.8849 56.5282 14.536 56.5282C14.2072 56.5282 13.3719 55.6493 12.701 54.5959L11.4731 52.6636L7.45419 52.6468C3.04609 52.63 1.76794 52.1906 1.36202 50.5568C0.96616 48.9566 1.83503 47.5644 3.78748 46.6821C6.20624 45.5851 8.67531 45.6388 9.99036 46.813ZM22.8255 52.3013C23.4093 52.4556 23.7615 52.8716 23.7615 53.4083C23.7615 54.0726 23.6474 54.1531 23.2549 53.7706C22.6477 53.1769 20.6785 53.1366 19.6251 53.6968C19.0817 53.9853 18.8435 54.5422 18.8435 55.5151C18.8435 57.2696 17.6257 57.5615 17.5284 55.8271C17.458 54.5791 17.4647 53.2138 17.5418 52.7844C17.6458 52.2174 21.2622 51.8886 22.8222 52.3013H22.8255ZM28.9546 54.1866C28.7734 54.7335 27.5288 55.5721 27.2772 55.3172C27.1665 55.2065 27.1766 54.6328 27.2974 54.0088C27.4852 53.0326 27.6094 52.9454 28.3105 53.3077C28.7399 53.5291 29.0385 53.935 28.9546 54.1866ZM21.695 54.9079C21.695 55.1259 21.4233 55.3172 21.1113 55.3172C20.7993 55.3172 20.4068 55.1259 20.2726 54.9079C20.1317 54.6798 20.39 54.4986 20.8563 54.4986C21.3226 54.4986 21.695 54.6798 21.695 54.9079ZM12.077 55.7298C12.2145 55.9546 12.0367 56.1391 11.6879 56.1391C11.339 56.1391 11.0437 55.9512 11.0437 55.7298C11.0437 55.5084 11.2115 55.3205 11.4329 55.3205C11.6543 55.3205 11.9327 55.495 12.077 55.7298ZM22.5135 56.1391C22.5135 56.8033 22.2418 56.9576 21.071 56.9576C19.1588 56.9576 19.0951 55.8405 20.9939 55.6023C21.7352 55.5084 22.3626 55.4111 22.4196 55.3776C22.4766 55.344 22.5169 55.6694 22.5169 56.1391H22.5135ZM29.0821 57.3468C28.6091 58.9872 28.3071 59.4133 27.6261 59.4133C26.6969 59.4133 26.925 57.481 27.9381 56.7731C29.2431 55.864 29.4746 55.9814 29.0821 57.3468ZM14.905 58.1284C15.7638 58.323 16.2 58.7356 16.4079 59.5542C16.6025 60.3213 16.0758 60.659 14.8279 60.5673C13.1505 60.4465 12.8989 60.2922 12.4091 59.1047C11.8958 57.8567 11.916 57.7795 12.7781 57.8164C13.2813 57.8366 14.2408 57.9775 14.905 58.1284ZM26.1232 58.8899C26.0092 59.8125 25.7139 60.0574 24.3855 60.3224C22.5907 60.6814 22.6813 60.725 22.3659 59.3395C22.0942 58.1452 22.4733 57.9204 24.892 57.8299C26.14 57.7829 26.2473 57.8735 26.1199 58.8899H26.1232ZM21.3058 59.3764C21.3058 60.4767 21.1482 60.6109 19.5882 60.8625C17.7532 61.1611 17.2064 60.7552 17.2064 59.1013C17.2064 58.2626 17.4211 58.1653 19.2561 58.1653C21.2455 58.1653 21.3058 58.1989 21.3058 59.3764ZM27.8039 62.4996C27.5423 62.8116 27.0592 63.0834 26.7673 63.0834C26.3446 63.0834 26.3178 62.8284 26.6499 61.9729C26.8915 61.349 27.284 60.7317 27.549 60.5673C28.2132 60.1513 28.4246 61.7582 27.8039 62.4996ZM52.5215 61.1678C55.0174 62.1273 55.1315 62.3386 54.4572 64.7607C54.2291 65.5793 53.6856 68.877 53.2428 72.1176C52.8033 75.3549 52.3538 78.079 52.2464 78.1863C52.0217 78.4111 44.5608 75.2375 42.9975 74.2479C41.3134 73.1844 33.9062 69.4842 32.0342 68.7696C30.3569 68.1322 30.3267 68.0852 30.7091 66.7501C30.9272 65.9885 30.9876 64.4286 30.8467 63.2175C30.6219 61.3053 30.6856 61.0437 31.3734 60.9934C31.8061 60.9598 34.8086 60.8122 38.0862 60.6579C49.1668 60.1446 49.9384 60.1715 52.5249 61.1645L52.5215 61.1678ZM17.1091 63.0062C17.2433 64.2944 17.2064 64.3246 15.8813 64.0797C14.2408 63.7778 14.0529 63.6168 13.7208 62.2648C13.4659 61.2349 13.4994 61.2181 15.217 61.4462C16.8575 61.6643 16.9816 61.7683 17.1091 63.0062ZM25.5898 62.1876C25.2711 63.4759 24.7377 63.9053 23.4495 63.9053C22.6813 63.9053 22.5135 63.6906 22.5135 62.7143C22.5135 61.6643 22.6712 61.5033 23.8387 61.349C24.58 61.2517 25.3214 61.1477 25.516 61.1141C25.7106 61.0806 25.7408 61.5637 25.5898 62.1876ZM21.1884 62.0803C21.232 62.1172 21.3193 62.5969 21.383 63.1404C21.4836 64.0059 21.3058 64.1502 20.0176 64.2542C18.6925 64.3581 18.5114 64.2508 18.3 63.2209C18.1725 62.5969 18.1558 61.926 18.2631 61.7582C18.4342 61.4865 20.7959 61.7482 21.1851 62.0803H21.1884ZM29.8906 65.5424C29.8906 67.3774 29.3974 68.5012 28.9345 67.7263C28.6091 67.1795 29.1693 63.1068 29.5417 63.335C29.7329 63.4524 29.8939 64.4487 29.8939 65.5424H29.8906ZM27.4014 65.3847C27.1464 65.6967 26.6868 65.9684 26.4151 65.9684C25.6368 65.9684 26.1433 63.9791 26.9619 63.8147C27.7805 63.6469 28.0455 64.5963 27.4014 65.3847ZM17.4412 65.2102C17.6962 65.4115 18.0149 65.9718 18.1423 66.4381C18.3537 67.2197 18.2598 67.2734 17.089 67.0453C15.6062 66.7568 15.3143 66.5186 14.9587 65.3075C14.7339 64.5393 14.8245 64.4688 15.8376 64.6433C16.4616 64.7506 17.1795 65.0056 17.4378 65.2102H17.4412ZM24.9726 65.3679C24.9726 66.0959 24.6606 66.5219 23.9192 66.8037C22.9821 67.1616 22.5135 66.8977 22.5135 66.012C22.5135 64.8077 22.5907 64.7506 24.6606 64.3883C24.8384 64.3581 24.9726 64.7842 24.9726 65.3679ZM21.6178 66.0691C21.5373 66.7031 21.1683 67.0285 20.4269 67.1224C19.5681 67.2331 19.3098 67.0486 19.1387 66.2066C18.9408 65.2404 19.0414 65.1532 20.3296 65.1532C21.5407 65.1532 21.7185 65.2807 21.6178 66.0691ZM31.2157 70.1283C33.5975 70.9535 39.4415 73.8487 41.7495 75.3482C43.0109 76.1668 44.4803 76.8444 51.5822 79.8872C59.3081 83.1949 80.6911 93.7556 80.6911 94.2621C80.6911 94.497 80.8857 94.5708 81.1205 94.4232C81.4862 94.195 84.2069 95.5872 84.7671 96.2917C84.8812 96.436 85.3341 96.6943 85.7266 96.8386C86.1157 96.9828 86.3371 97.3149 86.1962 97.5397C86.0386 97.7846 86.156 97.9255 86.468 97.8685C87.2094 97.7309 88.8867 98.3146 88.8867 98.7105C88.8867 99.1802 86.8739 100.046 86.4277 99.7706C86.2063 99.633 86.0285 99.7639 86.0151 100.076C85.9882 100.676 82.2142 103.236 81.3554 103.236C81.0434 103.236 80.7079 103.38 80.6375 103.548C80.2517 104.447 73.2805 108.818 70.627 109.821L69.5736 110.221L70.8215 108.64C71.4992 107.782 72.2607 106.561 72.4855 105.967C73.3141 103.783 71.5629 99.5659 69.9627 99.8914C69.3891 100.009 69.3018 99.7806 69.4931 98.6501C69.6977 97.4391 69.5602 97.1237 68.4196 96.1542C67.7184 95.5571 66.7422 95.0438 66.3128 95.0438C65.8062 95.0438 65.3533 94.6345 65.085 93.9334C64.8434 93.3094 64.2966 92.5378 63.837 92.1789C63.2913 91.7495 63.3696 91.3022 64.0718 90.837C65.3969 89.958 65.4909 88.0391 64.2664 86.8147C63.525 86.0733 63.0956 85.9927 61.1063 86.2175C55.6045 86.8448 54.9202 87.1535 51.6292 90.5216C49.8746 92.3164 48.6636 93.296 48.7777 92.823C49.0427 91.7327 47.9524 90.7632 46.4696 90.7732C44.8694 90.7833 42.9773 91.9641 41.8032 93.6784C40.8706 95.0438 40.1493 95.4698 40.1493 94.6546C40.1493 94.4366 39.8776 94.3695 39.5253 94.507C38.6665 94.8391 38.7303 94.3829 39.7098 93.1349C40.1594 92.5646 40.5385 91.4576 40.5385 90.7162C40.5385 89.3106 39.3844 87.6735 38.3914 87.6735C38.1096 87.6735 37.2978 87.8446 36.5564 88.066C35.0334 88.5155 34.8522 88.1498 36.0498 87.0562C36.6638 86.496 37.3951 86.3316 38.9584 86.4054C40.6357 86.4825 41.2362 86.3249 42.0212 85.5969C43.3095 84.3993 43.3262 82.3965 42.0615 81.2358C40.931 80.1991 37.9486 78.6593 37.0663 78.6593C36.4423 78.6593 36.4423 78.6191 37.0663 77.9951C38.6665 76.3949 36.9086 74.5833 33.7485 74.5699C32.618 74.5632 31.9537 74.3619 31.8028 73.9761C31.4673 73.124 29.1056 72.6175 27.3108 73.01C26.3346 73.2247 25.459 73.1945 24.9692 72.9362C22.8893 71.8291 17.5553 73.3186 15.1768 75.6703C14.4354 76.4016 13.6336 77.0189 13.4222 77.0189C13.2109 77.0189 13.1639 77.2336 13.3048 77.4684C13.4524 77.7133 13.3652 78.4446 13.1103 79.0686L12.6406 80.2193L10.3762 78.9914L8.11172 77.7636L12.1307 75.9118C14.3549 74.8853 18.5114 73.0838 21.4367 71.8727C24.362 70.6617 26.8277 69.5814 26.9585 69.454C27.3645 69.048 28.6762 69.2594 31.2123 70.1383L31.2157 70.1283ZM78.1214 74.8282C77.9537 76.3244 77.5746 76.9048 75.545 78.76C71.6434 82.3294 71.4589 82.4099 69.2616 81.5377C65.2426 79.9442 58.5634 76.4754 58.9995 76.207C59.4423 75.9353 62.2771 76.9887 67.5842 79.3974C70.6337 80.7829 70.7075 80.7694 74.3339 78.1561C76.5179 76.5827 76.8332 76.1735 77.1653 74.476C77.6216 72.1243 78.3931 72.4095 78.1214 74.8282ZM89.239 84.7582C89.8462 85.1809 92.2448 86.5798 94.6233 87.8982C97.0051 89.2166 99.6453 90.7732 100.554 91.3905C101.453 92.0011 104.419 93.6516 107.11 95.0404C109.958 96.5098 112.806 98.3146 113.879 99.3311C114.893 100.291 116.332 101.431 117.06 101.847C117.801 102.273 118.381 102.713 118.371 102.844C118.358 103.075 111.246 107.027 100.984 112.505C97.5889 114.317 93.8114 116.474 92.5736 117.299C91.3457 118.121 88.8465 119.392 87.0517 120.107L83.7741 121.415L80.302 119.6C75.8134 117.255 73.3175 115.672 73.3175 115.172C73.3175 114.598 81.201 109.184 84.3981 107.564C85.8809 106.812 88.0547 105.437 89.2356 104.501C90.667 103.369 91.3435 102.094 91.2652 100.676C91.1511 98.6031 91.0908 98.5126 88.8263 97.0264C87.5415 96.1844 84.4551 94.3795 81.919 92.9873L77.3331 90.4713L80.104 88.6128C82.4859 87.0159 87.5717 84.0437 87.9876 84.0068C88.0715 84 88.6519 84.3456 89.2356 84.7549L89.239 84.7582Z" fill="white"/>
<path d="M29.6961 5.69441C27.3142 6.54315 24.4996 8.20709 22.7887 9.76704C20.0177 12.2999 18.706 17.9995 20.4069 20.1231C21.1684 21.0725 21.1684 21.1362 20.427 22.619C19.9372 23.6019 19.6655 25.0008 19.6655 26.5608C19.6655 29.2915 20.266 30.1537 22.4734 30.5965C23.1745 30.7374 23.7616 30.942 23.7616 31.0494C23.7616 31.1567 23.4529 32.1028 23.0604 33.1964C22.3996 35.0314 22.3996 35.2092 23.0537 36.2022C23.8253 37.373 26.5728 38.933 27.861 38.933C28.5219 38.933 28.6796 39.2047 28.6796 40.3386C28.6796 42.1334 29.0184 43.0325 29.6927 43.0325C30.0886 43.0325 30.159 42.7205 29.9477 41.9019C29.4646 40.03 29.8504 39.0437 31.2527 38.5472C32.7355 38.0239 34.802 36.1821 34.802 35.3837C34.802 35.0281 34.2954 34.8369 33.3594 34.8369C32.2188 34.8369 31.5747 35.1891 30.2865 36.5142C28.4313 38.4231 27.4685 38.4432 25.0464 36.6182C23.5033 35.4541 23.4395 34.8738 24.5902 32.4953C25.4222 30.771 25.4758 30.7408 27.5457 30.7273C30.9004 30.7106 34.2216 28.9493 35.4696 26.5239C36.2814 24.9438 35.6205 24.1823 33.4366 24.1823C31.1185 24.1823 28.6863 25.4705 26.4286 27.8892C24.6472 29.8014 24.3923 29.9356 23.0772 29.684C22.2956 29.5331 21.4066 29.164 21.108 28.8655C20.3733 28.1308 20.749 24.3399 21.7118 22.78C22.3694 21.7132 22.6679 21.6025 25.0498 21.522C28.5219 21.4046 31.6888 20.3143 33.6345 18.5631C35.3521 17.0199 35.7379 15.356 34.4933 14.8662C32.2222 13.9739 27.8979 15.4969 24.1541 18.5094C22.3593 19.952 21.5206 19.848 21.1717 18.1371C20.6551 15.6009 22.0372 12.3099 24.503 10.1931C26.4554 8.52244 31.0581 6.18084 33.0105 5.87221C33.7922 5.74808 34.4162 5.49312 34.4162 5.29855C34.4162 4.70141 31.88 4.91611 29.6961 5.69776V5.69441ZM34.4162 15.9867C34.4162 16.6979 32.4268 18.4558 30.9038 19.0898C30.1087 19.4219 28.3106 19.8077 26.9049 19.9453L24.3486 20.2002L25.1638 19.3414C26.6064 17.8217 31.1789 15.5774 32.8562 15.5674C33.715 15.5606 34.4162 15.7485 34.4162 15.9867ZM34.4162 26.0542C34.4162 26.8224 33.1682 28.0603 31.568 28.8789C30.0852 29.6371 26.603 30.1772 26.6164 29.6438C26.6265 29.1808 29.5384 26.7822 31.0212 26.0173C32.5442 25.229 34.4162 25.2491 34.4162 26.0542ZM33.554 35.8869C32.8428 36.7457 30.7092 37.8293 30.7092 37.3294C30.7092 36.9134 33.128 35.2461 33.7519 35.2294C33.9364 35.226 33.8459 35.5347 33.554 35.8835V35.8869Z" fill="white"/>
<path d="M49.1835 8.24045C48.7676 8.93152 48.308 10.2902 48.1738 11.2262C47.8383 13.5275 47.1305 21.7801 47.2009 22.5416C47.3049 23.6722 46.1207 31.9852 44.8291 39.1643C44.4668 41.1737 44.1347 44.666 44.0911 46.8902L44.0139 50.9494L46.2784 52.3014C48.63 53.7036 58.7244 57.8702 64.736 59.9132C66.6382 60.5607 70.4323 62.1911 73.1262 63.5128C75.9743 64.9151 79.423 66.2604 81.3218 66.7132C83.4755 67.2265 85.9647 68.2497 88.578 69.6989C90.762 70.91 93.2713 72.2921 94.1368 72.7618C94.9956 73.2281 96.2603 73.9863 96.9078 74.419C97.5586 74.8585 98.8401 75.5529 99.7358 75.9589C101.336 76.6835 101.39 76.6801 102.017 75.8817C102.369 75.4322 103.087 73.4227 103.604 71.4333C104.973 66.1664 105.533 64.1301 106.69 60.2353C107.271 58.2828 107.734 56.4444 107.734 56.0989C107.734 55.7534 108.035 54.3612 108.398 53.036C108.763 51.6875 109.2 48.8594 109.374 46.7157C109.545 44.5788 110.078 41.0765 110.558 38.9328C111.692 33.8605 112.058 28.9458 111.467 26.7585C110.941 24.8094 109.686 23.7695 106.915 22.9844C105.905 22.6993 104.221 22.0284 103.168 21.4916C102.111 20.9515 99.0515 19.8612 96.3207 19.0527C93.59 18.2442 90.5305 17.2143 89.4737 16.7514C88.4271 16.2918 85.495 15.3894 82.9958 14.762C80.4999 14.1313 77.0344 13.0545 75.347 12.3802C73.6529 11.7059 70.4122 10.7632 68.1478 10.2935C65.8833 9.82052 62.9782 9.059 61.6899 8.5994C59.2477 7.72718 54.7457 7.00256 51.6996 6.98578C50.1765 6.97907 49.8411 7.14681 49.1835 8.2438V8.24045ZM50.9548 10.5619C50.455 12.7257 49.7404 18.4455 49.3312 23.5548C49.2406 24.6887 48.8716 27.6509 48.5126 30.1099C45.9362 47.8631 45.7047 49.6142 45.8322 50.3623C45.8858 50.6743 45.6913 50.8253 45.3793 50.7146C45.0707 50.6039 44.8694 50.0134 44.9163 49.3492C45.2786 44.2668 45.6108 41.895 47.1606 33.3908C47.8014 29.8784 48.3616 24.9637 48.5596 21.0991C48.989 12.7895 49.462 9.25022 50.2168 8.7034C51.4111 7.83117 51.5218 8.10626 50.9548 10.5653V10.5619ZM57.1242 8.82753C58.2346 8.96507 60.0897 9.43473 61.2203 9.86078C62.3609 10.2902 65.1621 11.0182 67.4634 11.4811C69.7648 11.9441 73.2939 12.9605 75.3269 13.7455C77.3531 14.5272 80.8689 15.6343 83.13 16.2046C85.3944 16.7715 88.1252 17.6169 89.1987 18.0765C90.2688 18.5361 93.2746 19.5324 95.8511 20.2805C98.4275 21.0286 101.762 22.2196 103.225 22.914C104.708 23.6185 106.123 24.1821 106.405 24.1821C106.687 24.1821 106.912 24.3532 106.912 24.5545C106.912 24.7557 107.244 24.8363 107.633 24.7289C108.062 24.6148 108.753 24.9637 109.33 25.5877C110.229 26.5606 110.3 26.9531 110.246 30.6601C110.213 33.0419 109.837 36.2557 109.33 38.5436C108.861 40.6504 108.331 44.0924 108.163 46.1119C107.864 49.6713 107.14 53.4084 105.815 58.209C104.235 63.9288 103.788 65.6632 102 73.0369C101.735 74.1305 101.373 74.9893 101.175 74.9893C100.162 74.9893 97.9008 73.5569 98.1021 73.0369C98.2363 72.6846 98.1256 72.5236 97.8203 72.631C96.8072 72.9933 91.9361 70.0747 92.5031 69.4473C92.6574 69.2763 92.436 69.2595 92.0066 69.4071C91.5772 69.558 91.0169 69.5077 90.7586 69.2997C90.0575 68.7294 84.2035 65.7873 83.9317 65.8645C83.8043 65.9014 82.4087 65.5894 80.8488 65.1768C77.1015 64.1838 72.9216 62.2448 72.8813 61.4832C72.8612 61.0941 72.7672 61.0404 72.633 61.3457C72.4821 61.6879 71.9688 61.5537 70.9154 60.8962C70.0767 60.3728 68.5168 59.7455 67.3829 59.4738C64.2228 58.7156 58.1742 56.2163 58.1742 55.6661C58.1742 55.4984 57.9025 55.4548 57.5905 55.5722C57.0437 55.7769 56.1479 55.4682 52.441 53.7841C51.6593 53.4285 50.8005 53.1098 50.569 53.0897C50.3309 53.0696 49.3781 52.7106 48.4421 52.2913L46.7447 51.5298L46.9795 47.7826C47.1103 45.716 47.3888 43.8173 47.6035 43.5489C47.8215 43.2772 47.892 42.8981 47.7611 42.6901C47.6303 42.4854 47.8048 40.8752 48.1503 39.0804C48.4958 37.2856 48.8347 35.1118 48.9118 34.2026C49.0359 32.7266 49.5727 28.2715 50.7804 18.6334C51.0052 16.8386 51.193 14.6312 51.193 13.7556C51.193 11.8837 51.978 8.95165 52.5986 8.51554C52.8402 8.34445 53.4776 8.29077 54.0613 8.38806C54.6383 8.48534 55.9936 8.67656 57.1242 8.81746V8.82753Z" fill="white"/>
<path d="M121.354 67.2601C118.153 68.7865 117.187 69.6419 118.66 69.6419C119.831 69.6419 126.268 66.455 125.99 66.0121C125.584 65.3613 125.02 65.5123 121.35 67.2601H121.354Z" fill="white"/>
<path d="M118.388 75.5898C118.388 76.0528 118.895 76.2004 120.535 76.2138C121.706 76.2239 123.108 76.3413 123.618 76.4687C124.282 76.6331 124.554 76.5224 124.554 76.0796C124.554 75.2476 123.655 74.986 120.807 74.986C118.935 74.986 118.388 75.1235 118.388 75.5898Z" fill="white"/>
<path d="M116.359 81.7357C116.359 82.2054 119.166 83.9331 120.337 84.1847C121.391 84.4095 121.662 84.3357 121.662 83.8224C121.662 83.4701 121.377 83.1783 121.038 83.1783C120.7 83.1783 119.713 82.8193 118.814 82.3631C117.254 81.568 116.355 81.3399 116.355 81.7357H116.359Z" fill="white"/>
<path d="M113.081 89.0322C113.081 89.6562 114.976 90.8236 115.362 90.4378C115.617 90.1795 113.94 88.529 113.393 88.5022C113.215 88.4921 113.081 88.7202 113.081 89.0322Z" fill="white"/>
<path d="M16.4684 43.5355C15.207 44.8942 14.6535 46.6957 14.9554 48.4535C15.15 49.5841 15.4083 49.9766 15.9584 49.9766C17.8304 49.9766 20.8194 45.7161 20.172 43.9683C19.5782 42.3681 17.7499 42.1567 16.4684 43.5389V43.5355ZM19.236 44.5117C19.236 45.8771 17.1158 48.7655 16.1128 48.7655C15.7639 48.7655 15.5659 48.2388 15.5659 47.3029C15.5659 46.2495 15.9014 45.5014 16.7636 44.6292C17.9612 43.4181 19.236 43.3577 19.236 44.5117Z" fill="white"/>
<path d="M3.82436 48.504C2.45228 49.6815 2.73072 50.6342 4.68317 51.4393C6.32363 52.117 8.49078 52.1975 9.99034 51.6306C10.8491 51.3085 11.0571 50.9864 10.9599 50.1276C10.8357 48.9971 9.69177 47.9269 9.16843 48.4503C9.00405 48.6147 9.20869 49.0206 9.59784 49.3091C9.98699 49.5976 10.205 50.0773 10.0574 50.3222C9.63809 51.0166 5.61914 50.9261 4.64291 50.2014C4.12181 49.8145 4.13523 49.4131 4.68317 48.9971C5.1327 48.6549 6.20621 48.3631 7.06502 48.353C8.00099 48.3429 8.52768 48.1785 8.38343 47.9437C7.88693 47.1453 4.99851 47.5009 3.82772 48.504H3.82436Z" fill="white"/>
<path d="M37.0697 63.7545C36.7175 64.1 36.4458 64.6267 36.4458 64.9555C36.4458 65.2675 36.2545 65.5392 36.0365 65.5392C35.8184 65.5392 35.6272 65.7539 35.6272 65.9887C35.6272 66.294 36.4458 66.3611 38.1634 66.2034C40.6727 65.972 44.2119 65.774 48.6603 65.6164C50.1431 65.5627 50.7503 65.395 50.5524 65.0897C50.3611 64.7945 49.3614 64.7139 47.6438 64.8548C46.2013 64.9723 44.9332 64.9018 44.8158 64.6972C44.6984 64.4925 44.1515 64.4422 43.6047 64.5798C42.8633 64.7676 42.6084 64.6636 42.6084 64.1705C42.6084 63.3251 42.2192 63.3553 41.2027 64.2845C40.7465 64.7039 39.9347 65.187 39.465 65.3211C38.727 65.5358 38.6196 65.4184 38.7806 64.5999C39.0188 63.3888 37.9621 62.8655 37.0664 63.7511L37.0697 63.7545Z" fill="white"/>
<path d="M41.0484 67.4983C38.3546 67.5855 36.4424 67.8103 36.4424 68.0384C36.4424 68.545 49.8814 68.4678 50.1934 67.9613C50.3242 67.7499 50.3645 67.6023 50.294 67.5889C49.348 67.4245 44.6749 67.3776 41.0451 67.4983H41.0484Z" fill="white"/>
<path d="M38.5893 70.494C37.7775 70.7792 43.2322 71.2791 47.174 71.2791C48.734 71.2791 49.982 71.1046 49.982 70.8899C49.982 70.4672 39.6796 70.1116 38.5893 70.4974V70.494Z" fill="white"/>
<path d="M11.0437 77.4619C11.0437 77.6967 11.2383 77.7906 11.453 77.6564C11.6878 77.5122 11.8623 77.3176 11.8623 77.2069C11.8623 77.0962 11.6878 77.0123 11.453 77.0123C11.2383 77.0123 11.0437 77.227 11.0437 77.4619Z" fill="white"/>
<path d="M12.077 78.2435C11.9394 78.4683 12.02 78.6528 12.2514 78.6528C12.4829 78.6528 12.6808 78.4649 12.6808 78.2435C12.6808 78.0221 12.607 77.8342 12.5064 77.8342C12.4057 77.8342 12.2212 78.0087 12.077 78.2435Z" fill="white"/>
<path d="M71.2911 94.2422C71.2911 94.4669 71.4857 94.6514 71.7205 94.6514C71.9554 94.6514 72.0359 94.4636 71.895 94.2422C71.7507 94.0073 71.5662 93.8329 71.4656 93.8329C71.3649 93.8329 71.2911 94.0073 71.2911 94.2422Z" fill="white"/>
<path d="M78.2355 94.2422C78.2355 94.4669 78.43 94.6514 78.6649 94.6514C78.8997 94.6514 78.9802 94.4636 78.8393 94.2422C78.6951 94.0073 78.5106 93.8329 78.4099 93.8329C78.3093 93.8329 78.2355 94.0073 78.2355 94.2422Z" fill="white"/>
<path d="M72.4988 99.9786C72.4988 100.213 72.6732 100.388 72.9081 100.388C73.1429 100.388 73.3173 100.213 73.3173 99.9786C73.3173 99.7438 73.1429 99.5693 72.9081 99.5693C72.6732 99.5693 72.4988 99.7438 72.4988 99.9786Z" fill="white"/>
<path d="M77.0244 99.9786C77.0244 100.203 77.219 100.388 77.4538 100.388C77.6886 100.388 77.7692 100.2 77.6283 99.9786C77.484 99.7438 77.2995 99.5693 77.1989 99.5693C77.0982 99.5693 77.0244 99.7438 77.0244 99.9786Z" fill="white"/>
<path d="M81.5131 99.9786C81.5131 100.213 81.6875 100.388 81.9223 100.388C82.1572 100.388 82.3316 100.213 82.3316 99.9786C82.3316 99.7438 82.1572 99.5693 81.9223 99.5693C81.6875 99.5693 81.5131 99.7438 81.5131 99.9786Z" fill="white"/>
<path d="M78.2355 101.186C78.2355 101.421 78.4099 101.596 78.6447 101.596C78.8796 101.596 79.054 101.421 79.054 101.186C79.054 100.952 78.8796 100.777 78.6447 100.777C78.4099 100.777 78.2355 100.952 78.2355 101.186Z" fill="white"/>
<path d="M86.431 88.4855C85.9613 88.9551 85.6124 89.4717 85.6124 89.6965C85.6124 90.3205 86.8604 91.3739 87.6018 91.3739C88.6552 91.3739 90.1379 90.1662 90.1379 89.3074C90.1379 88.0963 89.3496 87.9454 88.9202 89.0725C88.4908 90.2031 86.857 90.5755 86.857 89.5422C86.857 89.19 86.9946 88.9182 87.169 88.9182C87.3435 88.9182 87.8534 88.6364 88.2794 88.3144C89.0611 87.7239 89.0611 87.7105 88.162 87.6904C87.6554 87.6803 86.8805 88.0359 86.4243 88.4888L86.431 88.4855Z" fill="white"/>
<path d="M91.0605 90.3205C91.3155 90.9914 90.4466 91.8771 89.7052 91.7026C88.7357 91.4711 88.8464 92.548 89.8629 93.2156C90.9565 93.9335 91.9428 93.7087 91.5973 92.8164C91.4798 92.5145 91.7348 91.9542 92.1642 91.5651C93.2981 90.5419 93.1773 89.7334 91.8925 89.7334C91.1511 89.7334 90.9062 89.9078 91.0605 90.3171V90.3205Z" fill="white"/>
<path d="M93.4055 92.3502C91.9194 94.145 94.526 96.4195 96.2637 94.8461C96.8139 94.3463 97.0789 93.6955 97.0051 93.0346C96.9078 92.1624 96.6529 91.9779 95.4049 91.8638C94.469 91.7766 93.7309 91.9577 93.4055 92.3502ZM95.6498 93.0514C96.0557 93.7055 95.2104 94.4 94.3884 94.0846C93.8416 93.8766 93.8148 93.719 94.2341 93.2057C94.8044 92.5045 95.2774 92.4509 95.6498 93.048V93.0514Z" fill="white"/>
<path d="M100.159 97.1104C100.014 97.3453 99.7224 97.4325 99.5211 97.305C99.2997 97.1641 98.9944 97.1675 98.7596 97.3117C98.2061 97.6539 98.6824 98.7509 99.3836 98.7509C99.6956 98.7509 99.9673 98.9421 99.9673 99.1602C99.9673 99.395 100.32 99.5694 100.786 99.5694C101.229 99.5694 102.309 100.009 103.127 100.522C105.664 102.109 107.341 102.881 107.341 102.458C107.341 102.243 106.328 101.421 105.077 100.623C103.829 99.8278 102.812 98.979 102.812 98.7308C102.812 98.4624 102.44 98.402 101.896 98.5731C101.078 98.8348 101.037 98.7945 101.524 98.2041C101.812 97.8518 101.943 97.3386 101.802 97.1104C101.464 96.5636 100.491 96.5636 100.152 97.1104H100.159Z" fill="white"/>
<path d="M92.6473 98.7877C92.8687 99.452 102.839 105.44 103.171 105.108C103.567 104.712 102.041 103.585 98.4107 101.606C96.6562 100.646 94.7641 99.5358 94.1569 99.1098C92.909 98.2275 92.4259 98.1235 92.6473 98.7877Z" fill="white"/>
<path d="M92.5936 102.649C92.5936 102.971 98.1725 106.514 98.6791 106.514C99.7023 106.514 98.9508 105.789 96.2603 104.182C93.5296 102.548 92.5936 102.159 92.5936 102.652V102.649Z" fill="white"/>
<path d="M89.7153 107.255C89.7186 107.644 93.865 109.889 94.1166 109.637C94.4756 109.278 93.7275 108.557 92.1642 107.765C90.4868 106.913 89.7085 106.752 89.7153 107.258V107.255Z" fill="white"/>
<path d="M86.0385 108.503C86.0385 108.678 86.6222 109.151 87.3636 109.577C88.105 110.003 89.259 110.68 89.977 111.116C90.7586 111.589 91.3658 111.737 91.5168 111.489C91.6543 111.264 90.6378 110.419 89.2725 109.617C86.7765 108.154 86.0352 107.899 86.0352 108.503H86.0385Z" fill="white"/>
<path d="M83.972 110.533C83.972 110.952 87.7562 113.498 88.3802 113.498C89.3295 113.498 88.8095 112.871 86.7799 111.563C84.7134 110.231 83.972 109.959 83.972 110.533Z" fill="white"/>
<path d="M55.6044 14.3427C55.0442 14.7755 54.3934 15.6376 54.1518 16.2616C53.4909 17.9658 52.0149 25.94 52.0149 27.8119C52.0149 28.7479 51.7398 29.7275 51.3708 30.0931C51.0185 30.4454 50.9044 30.7372 51.1158 30.7372C51.3506 30.7372 51.3674 31.4786 51.1527 32.6092C50.6763 35.1453 49.0963 45.7966 48.9654 47.3599C48.8681 48.5307 50.0658 50.6978 50.7267 50.5469C50.891 50.51 50.9615 50.6173 50.9011 50.8152C50.8474 51.0031 51.193 51.144 51.6995 51.1406C52.7529 51.1339 57.4931 52.8985 57.6944 53.3715C57.7749 53.5594 57.9527 53.6064 58.1406 53.489C58.5297 53.2474 61.029 54.0559 61.029 54.4249C61.029 54.5759 62.4548 54.6799 64.169 54.6598C67.0943 54.6229 67.3828 54.539 68.396 53.4118C69.5735 52.1001 73.4247 42.5626 73.8172 39.9896C73.9246 39.2884 74.2365 39.1878 75.9911 39.2884C77.1216 39.3522 78.1884 39.6239 78.3729 39.8923C78.5608 40.1674 78.5876 39.9325 78.4299 39.3454C78.2756 38.7617 77.7858 38.0505 77.2994 37.7083C74.8035 35.9538 74.5418 35.5445 74.9578 34.0181C75.1725 33.2231 75.8133 30.858 76.3836 28.7512C77.5108 24.5746 77.7724 20.7234 76.9103 21.0119C76.6184 21.1092 76.2863 22.2934 76.1286 23.8164C75.9776 25.259 75.5482 27.5603 75.1725 28.9089C74.7934 30.2743 74.2131 32.4079 73.8642 33.7095L73.2402 36.0511L74.411 37.0844L75.5818 38.1176L74.2567 37.8627C73.0859 37.6379 72.9316 37.7083 72.9316 38.4665C72.9316 38.9462 72.5458 40.3787 72.0627 41.7038C69.9358 47.5176 68.6711 50.6911 68.0605 51.7311C67.2419 53.1233 65.521 53.5158 62.7869 52.9354C60.291 52.402 51.4882 49.2922 50.5723 48.6213C49.9148 48.1382 49.9383 47.7356 50.9447 42.3882C51.5385 39.228 52.3839 34.7528 52.8368 32.381C53.2897 29.9992 53.6553 27.5838 53.6553 26.9565C53.6553 24.7323 55.44 16.7178 56.121 15.8758C56.7886 15.0506 56.9329 15.0371 59.8616 15.5437C64.6991 16.379 70.4189 18.0228 73.636 19.5056C77.655 21.3574 77.8227 20.5187 73.8306 18.526C70.0297 16.6273 66.6515 15.4934 61.4618 14.3729C56.7786 13.3631 56.8792 13.3631 55.6078 14.3461L55.6044 14.3427Z" fill="white"/>
<path d="M57.7716 18.2107C56.9027 19.2574 57.3992 20.2806 58.8417 20.4181C60.4017 20.5657 61.4484 19.244 60.5862 18.2107C59.9991 17.5096 59.2242 17.8585 59.5429 18.6804C59.818 19.3815 59.0564 19.9082 58.5297 19.3815C58.258 19.1098 58.258 18.8548 58.5297 18.6804C59.0766 18.3349 59.1302 17.6237 58.6069 17.6237C58.419 17.6237 58.0299 17.8954 57.7682 18.2074L57.7716 18.2107Z" fill="white"/>
<path d="M62.1194 18.7174C61.9818 18.8549 61.9919 19.2038 62.1395 19.556C62.2871 19.9083 62.163 20.3041 61.8476 20.5021C61.1062 20.965 61.4182 21.2535 63.0184 21.5789C63.837 21.7433 64.3066 21.6695 64.3066 21.3709C64.3066 21.0992 64.1355 20.9013 63.8974 20.9013C63.6726 20.9013 63.4881 20.3545 63.4881 19.6902C63.4881 18.5597 62.7836 18.0531 62.1227 18.714L62.1194 18.7174Z" fill="white"/>
<path d="M65.7089 19.9652C64.7495 20.9247 65.2024 21.9278 66.7623 22.3102C68.2048 22.6624 68.8993 22.0854 68.7349 20.6664C68.6175 19.6533 68.4061 19.452 67.4265 19.4386C66.7623 19.4285 66.0175 19.6566 65.7089 19.9652ZM67.8962 20.8241C67.9801 21.079 67.6614 21.2937 67.1951 21.2937C66.3362 21.2937 66.0981 20.8777 66.6482 20.341C67.0206 19.9753 67.7016 20.2403 67.8962 20.8274V20.8241Z" fill="white"/>
<path d="M70.4122 20.9616C70.3786 21.0387 70.3115 21.7801 70.2545 22.6389C70.1874 23.6923 70.335 24.1787 70.7242 24.1787C71.0362 24.1787 71.4052 24.2224 71.5427 24.276C71.6836 24.3297 71.8145 23.6521 71.8346 22.753C71.8648 21.505 71.7138 21.0991 71.1704 20.9783C70.7812 20.8911 70.4424 20.8844 70.4088 20.9582L70.4122 20.9616Z" fill="white"/>
<path d="M58.258 22.8168C57.5099 23.112 57.5938 23.6823 58.4157 23.8467C59.0799 23.9808 59.0799 24.0278 58.4157 24.6887C58.0265 25.0778 57.832 25.581 57.9762 25.8192C58.3117 26.3661 60.2105 26.3661 60.2105 25.8192C60.2105 25.5844 60.0595 25.3898 59.8784 25.3898C59.6972 25.3898 59.6234 24.7658 59.7173 23.9842C59.8918 22.5417 59.5798 22.2901 58.2614 22.8134L58.258 22.8168Z" fill="white"/>
<path d="M62.901 24.142C62.7735 24.3533 62.901 24.6318 63.1727 24.7458C63.5384 24.9001 63.4847 25.1182 62.9781 25.5241C61.9784 26.3259 62.079 26.9834 63.2901 27.5336C64.5012 28.0838 65.0513 27.7349 64.3267 26.8727C63.9711 26.4467 63.9577 26.0542 64.2831 25.4302C64.528 24.9605 64.6219 24.3936 64.4911 24.1822C64.1791 23.6757 63.1962 23.6522 62.8976 24.142H62.901Z" fill="white"/>
<path d="M81.5131 24.9806C81.5131 25.2154 81.6875 25.3898 81.9223 25.3898C82.1572 25.3898 82.3316 25.2154 82.3316 24.9806C82.3316 24.7457 82.1572 24.5713 81.9223 24.5713C81.6875 24.5713 81.5131 24.7457 81.5131 24.9806Z" fill="white"/>
<path d="M89.8629 25.3865C89.1618 25.8159 88.2359 26.7384 87.8266 27.4194C87.055 28.7076 85.8373 29.0901 85.4649 28.1608C85.3441 27.8589 85.2535 27.9461 85.2401 28.3755C85.2301 28.7647 85.0221 29.0968 84.7906 29.0968C84.2572 29.0968 81.513 31.9047 81.513 32.4515C81.513 32.6863 81.3721 32.7534 81.1608 32.6259C80.5368 32.2435 80.9327 36.0041 81.5935 36.7455C82.0867 37.2991 82.2007 38.0136 82.0397 39.5736C81.9022 40.8987 82.0229 42.0225 82.3718 42.6566C82.6704 43.2034 82.865 43.8978 82.8012 44.1964C82.7341 44.5084 82.8583 44.6325 83.0931 44.4882C83.3212 44.3473 84.3612 44.7398 85.4548 45.3839C88.0916 46.9405 90.9163 47.8631 93.9993 48.1851C96.8475 48.4804 98.545 47.8597 99.6889 46.1086C100.658 44.6258 102.792 43.5724 103.322 44.3138C103.621 44.7331 103.664 44.7029 103.507 44.1964C103.336 43.6496 104.805 40.8886 105.664 40.1472C105.788 40.0399 105.935 39.3387 105.976 38.6376C106.033 37.7016 105.811 37.1582 105.194 36.7254C104.409 36.1719 104.359 35.8867 104.62 33.3506C104.949 30.1502 104.312 28.4493 102.346 27.2919C101.682 26.8994 101.292 26.3996 101.447 26.1346C101.625 25.8293 101.467 25.7689 100.997 25.9601C100.601 26.1211 98.8301 25.8796 97.0756 25.4267C93.0969 24.4002 91.4967 24.3901 89.8562 25.3898L89.8629 25.3865ZM96.5757 26.2117C96.9649 26.4298 98.3705 27.0168 99.7359 27.5368C101.648 28.2648 102.225 28.6808 102.332 29.4088C102.554 30.9083 101.115 34.9105 99.6822 36.7824C98.9509 37.7385 98.0686 39.5534 97.6929 40.8786C96.7267 44.2735 95.2238 46.7258 94.1167 46.7191C91.9294 46.7057 87.1724 44.8707 84.908 43.1631C83.8848 42.3915 83.5829 41.8514 83.5829 40.798C83.5829 37.5742 86.9879 30.2642 90.034 26.9464C90.9465 25.9534 91.3658 25.8159 93.4726 25.8159C94.7977 25.8159 96.1866 25.9903 96.5757 26.205V26.2117ZM103.429 32.6494C103.097 35.3802 103.081 35.4171 102.272 35.1252C101.772 34.9441 101.782 34.5817 102.349 32.6327C102.712 31.3847 103.171 30.3414 103.362 30.3313C103.557 30.3213 103.584 31.3646 103.426 32.6528L103.429 32.6494ZM84.4115 31.5155C83.9486 32.3743 83.1535 33.0151 83.1535 32.5287C83.1535 32.2167 84.4115 30.7339 84.6765 30.7339C84.7638 30.7339 84.643 31.0861 84.4115 31.5155ZM83.1535 33.3707C83.1535 33.4713 82.979 33.6558 82.7442 33.8001C82.5194 33.9376 82.3349 33.8571 82.3349 33.6257C82.3349 33.3942 82.5228 33.1962 82.7442 33.1962C82.9656 33.1962 83.1535 33.2701 83.1535 33.3707ZM104.11 40.0231C103.372 41.4656 102 43.0424 102 42.4419C102 41.9722 104.547 38.0472 104.731 38.2317C104.842 38.339 104.567 39.1274 104.11 40.0231ZM98.6624 43.8072C99.122 44.0924 99.0851 44.3541 98.4644 45.2129C97.7264 46.226 96.3812 46.9707 95.992 46.5782C95.7807 46.3669 97.552 43.4852 97.9042 43.4684C98.0116 43.4617 98.3537 43.616 98.6657 43.8072H98.6624Z" fill="white"/>
<path d="M65.9773 26.0138C65.2694 26.8659 65.8296 28.238 67.0004 28.5332C68.755 28.9727 69.9828 27.1611 68.755 25.9366C68.0874 25.269 66.561 25.3127 65.9773 26.0138ZM67.8962 26.99C67.98 27.245 67.7586 27.4597 67.4064 27.4597C67.0541 27.4597 66.7623 27.1477 66.7623 26.7954C66.7623 26.0608 67.6378 26.2117 67.8962 26.99Z" fill="white"/>
<path d="M78.2355 26.2487C78.2355 26.4836 78.4233 26.5641 78.6447 26.4232C78.8796 26.2789 79.054 26.0944 79.054 25.9938C79.054 25.8931 78.8796 25.8193 78.6447 25.8193C78.4099 25.8193 78.2355 26.0139 78.2355 26.2487Z" fill="white"/>
<path d="M71.0933 27.5168C71.2644 28.0636 71.1738 28.5132 70.8585 28.7044C70.1842 29.1137 70.7008 29.9154 71.6401 29.9154C72.1769 29.9154 72.358 29.5263 72.4016 28.275C72.452 26.8694 72.3446 26.6345 71.6401 26.6345C70.986 26.6345 70.8752 26.809 71.0933 27.5135V27.5168Z" fill="white"/>
<path d="M83.7573 27.0505C83.6265 27.2652 83.717 27.4598 83.9519 27.4598C84.1867 27.4598 84.4014 27.2652 84.4014 27.0505C84.4014 26.8157 84.3175 26.6412 84.2068 26.6412C84.0961 26.6412 83.9015 26.8157 83.7573 27.0505Z" fill="white"/>
<path d="M86.0385 27.0505C86.0385 27.2753 86.233 27.4598 86.4679 27.4598C86.7027 27.4598 86.7832 27.2719 86.6423 27.0505C86.498 26.8157 86.3135 26.6412 86.2129 26.6412C86.1123 26.6412 86.0385 26.8157 86.0385 27.0505Z" fill="white"/>
<path d="M78.2355 28.2582C78.2355 28.4829 78.43 28.6674 78.6649 28.6674C78.8997 28.6674 78.9802 28.4796 78.8393 28.2582C78.6951 28.0233 78.5106 27.8489 78.4099 27.8489C78.3093 27.8489 78.2355 28.0233 78.2355 28.2582Z" fill="white"/>
<path d="M82.7609 28.2582C82.7609 28.4829 82.9554 28.6674 83.1903 28.6674C83.4251 28.6674 83.5056 28.4796 83.3647 28.2582C83.2205 28.0233 83.036 27.8489 82.9353 27.8489C82.8347 27.8489 82.7609 28.0233 82.7609 28.2582Z" fill="white"/>
<path d="M55.7587 28.7849C54.9234 29.6202 55.2119 30.6971 56.3424 30.9789C57.0838 31.1634 57.6374 31.0057 58.2144 30.4421C58.9558 29.7175 58.9692 29.58 58.372 28.9795C57.5535 28.1609 56.4632 28.0804 55.7587 28.7849ZM57.3589 29.5062C57.3589 29.7309 57.0671 29.9154 56.7148 29.9154C56.3626 29.9154 56.1848 29.7276 56.3257 29.5062C56.4699 29.2713 56.745 29.0969 56.9698 29.0969C57.1945 29.0969 57.3589 29.2713 57.3589 29.5062Z" fill="white"/>
<path d="M60.9887 29.4089C60.9686 29.5834 60.9753 30.0329 61.0089 30.422C61.0424 30.8112 60.7908 31.1232 60.4419 31.1232C59.6234 31.1232 59.6234 31.7841 60.4419 32.0994C61.455 32.4919 62.6661 32.4047 62.6661 31.9417C62.6661 31.7069 62.5084 31.5526 62.2769 31.5526C62.0455 31.5526 61.9884 31.0259 62.1193 30.3248C62.3038 29.3485 62.2166 29.0969 61.6899 29.0969C61.3376 29.0969 61.0089 29.2445 60.9887 29.4089Z" fill="white"/>
<path d="M64.3637 31.1064C63.8571 31.613 63.515 32.2336 63.5988 32.4919C63.8504 33.2736 66.5275 33.3608 67.1548 32.6093C67.7922 31.8478 67.4668 30.7374 66.608 30.7374C66.2189 30.7374 66.0713 30.9655 66.2189 31.3412C66.3564 31.6968 66.1786 32.0524 65.7895 32.2001C64.9306 32.5288 64.3603 32.0256 65.0883 31.5794C65.4003 31.3882 65.558 31.0158 65.4607 30.7173C65.3332 30.3348 65.0313 30.4455 64.3671 31.1064H64.3637Z" fill="white"/>
<path d="M106.761 31.4788C106.627 31.7002 106.878 32.1866 107.344 32.6127C108.274 33.4547 108.401 32.9615 107.552 31.831C107.257 31.4419 106.885 31.2741 106.761 31.4788Z" fill="white"/>
<path d="M68.6745 32.4917C67.601 33.2633 68.2048 34.4039 69.6876 34.4039C71.1704 34.4039 71.7374 33.3102 70.6639 32.5286C69.7279 31.8476 69.5736 31.8442 68.6745 32.4917ZM70.0399 33.176C70.0399 33.4109 69.8654 33.5853 69.6306 33.5853C69.3958 33.5853 69.2213 33.4109 69.2213 33.176C69.2213 32.9412 69.3958 32.7668 69.6306 32.7668C69.8654 32.7668 70.0399 32.9412 70.0399 33.176Z" fill="white"/>
<path d="M56.2452 33.3103C56.0875 33.5619 56.1882 33.8538 56.4599 33.9443C57.1879 34.1825 56.6176 34.8333 55.6783 34.8333C54.7389 34.8333 54.5913 34.1792 55.4065 33.884C55.6783 33.7833 55.7789 33.5552 55.6212 33.3875C55.1214 32.8574 54.0814 33.5451 54.0814 34.4006C54.0814 34.8702 54.4169 35.3969 54.8631 35.6351C56.0037 36.2423 57.7515 35.3768 57.7515 34.206C57.7515 33.1929 56.7082 32.5689 56.2486 33.3069L56.2452 33.3103Z" fill="white"/>
<path d="M77.0244 33.9947C77.0244 34.2195 77.219 34.404 77.4538 34.404C77.6886 34.404 77.7692 34.2161 77.6283 33.9947C77.484 33.7599 77.2995 33.5854 77.1989 33.5854C77.0982 33.5854 77.0244 33.7599 77.0244 33.9947Z" fill="white"/>
<path d="M106.526 33.9947C106.526 34.2296 106.7 34.404 106.935 34.404C107.17 34.404 107.344 34.2296 107.344 33.9947C107.344 33.7599 107.17 33.5854 106.935 33.5854C106.7 33.5854 106.526 33.7599 106.526 33.9947Z" fill="white"/>
<path d="M58.9491 34.6791C58.1809 35.595 58.9793 36.6685 60.4218 36.6685C61.8644 36.6685 62.6628 35.5916 61.8946 34.6791C61.5859 34.3135 60.9284 34.0149 60.4218 34.0149C59.9153 34.0149 59.2577 34.3101 58.9491 34.6791ZM61.2437 35.2427C61.3846 35.4708 61.1263 35.652 60.66 35.652C60.1937 35.652 59.8213 35.4708 59.8213 35.2427C59.8213 35.0146 60.0931 34.8334 60.4051 34.8334C60.717 34.8334 61.1095 35.0247 61.2437 35.2427Z" fill="white"/>
<path d="M64.1893 34.6791C63.6492 35.2192 63.8773 35.7492 64.5415 35.4876C65.0112 35.3031 65.1353 35.4205 64.9709 35.8901C64.8468 36.2424 64.7361 36.6282 64.7361 36.7087C64.7361 36.7959 64.4241 36.8664 64.035 36.8664C63.0554 36.8664 63.8404 37.5306 65.2058 37.856C66.2591 38.1076 66.8093 37.6178 66.0243 37.1247C65.8264 37.0005 65.7492 36.3564 65.8499 35.6553C65.9941 34.6422 65.8801 34.4073 65.246 34.4073C64.8166 34.4073 64.3436 34.5315 64.1926 34.6791H64.1893Z" fill="white"/>
<path d="M68.4263 36.6282C67.5574 37.6815 68.0506 38.7349 69.416 38.7349C70.3922 38.7349 70.6941 38.5303 70.7948 37.799C70.9356 36.7858 70.1372 36.5409 69.7716 37.487C69.6374 37.8392 69.3589 38.0002 69.1409 37.8593C68.9262 37.7184 69.0671 37.2555 69.4529 36.8261C70.05 36.1618 70.0601 36.0444 69.53 36.0444C69.1778 36.0444 68.6947 36.2994 68.423 36.6282H68.4263Z" fill="white"/>
<path d="M54.2391 37.9164C53.8097 38.2385 53.6856 38.5069 53.9674 38.5136C54.6819 38.5304 54.6316 39.1275 53.85 39.9058C53.0348 40.721 53.4206 41.3886 54.7088 41.3886C55.7622 41.3886 56.0674 40.7713 55.1784 40.4425C54.7792 40.2949 54.7826 40.1406 55.1851 39.7112C55.7722 39.0872 55.8796 37.8594 55.373 37.5474C55.1784 37.43 54.6719 37.5944 54.2425 37.9164H54.2391Z" fill="white"/>
<path d="M58.5702 38.9228C58.0636 39.2482 58.0401 39.3857 58.4527 39.6541C59.0029 40.0164 58.7245 41.3919 58.1005 41.3919C57.3994 41.3919 57.7482 42.1634 58.5702 42.4251C59.5833 42.7505 60.3247 42.3278 59.9154 41.6636C59.7544 41.4019 59.6772 40.6102 59.741 39.8688C59.8651 38.4632 59.6101 38.2586 58.5702 38.9228Z" fill="white"/>
<path d="M62.5488 40.4123C62.0724 40.8887 62.2368 41.3248 62.938 41.4523C63.5653 41.5663 63.5619 41.6602 62.8977 42.3211C62.0456 43.1732 62.0791 43.237 63.5619 43.5926C64.6925 43.8643 65.5546 43.2638 64.5751 42.8847C64.2228 42.7472 64.092 42.2238 64.206 41.4053C64.3503 40.3519 64.2497 40.1372 63.6022 40.1372C63.1728 40.1372 62.6998 40.2613 62.5488 40.4089V40.4123Z" fill="white"/>
<path d="M66.6885 42.7941C65.8028 44.7466 67.8358 45.8 69.6507 44.3306L70.5867 43.5724L69.6876 42.6734C68.5068 41.4925 67.2521 41.5428 66.6851 42.7908L66.6885 42.7941ZM68.7147 43.3779C68.7986 43.6328 68.5772 43.8475 68.225 43.8475C67.8727 43.8475 67.5808 43.5355 67.5808 43.1833C67.5808 42.4486 68.4564 42.5996 68.7147 43.3779Z" fill="white"/>
<path d="M106.7 43.0088C106.569 43.2235 106.66 43.418 106.895 43.418C107.13 43.418 107.344 43.2235 107.344 43.0088C107.344 42.7739 107.261 42.5995 107.15 42.5995C107.039 42.5995 106.845 42.7739 106.7 43.0088Z" fill="white"/>
<path d="M52.8737 44.5117C51.6592 45.3638 51.78 46.6286 53.1085 46.9741C54.4739 47.3297 55.4903 46.6923 55.4903 45.4846C55.4903 44.2769 54.0377 43.6965 52.877 44.5117H52.8737ZM54.8999 45.4846C54.8999 46.0415 54.0814 46.3803 53.3769 46.1119C52.8703 45.9174 52.8435 45.763 53.2393 45.2867C53.7123 44.7197 54.8966 44.8573 54.8966 45.4813L54.8999 45.4846Z" fill="white"/>
<path d="M78.2355 44.2769C78.2355 44.5118 78.4233 44.5923 78.6447 44.4514C78.8796 44.3071 79.054 44.1226 79.054 44.022C79.054 43.9213 78.8796 43.8475 78.6447 43.8475C78.4099 43.8475 78.2355 44.0421 78.2355 44.2769Z" fill="white"/>
<path d="M57.9059 45.3236C57.6107 45.441 57.4899 45.7799 57.6141 46.1321C57.7382 46.4844 57.6241 46.9809 57.3457 47.323C56.762 48.0309 57.1276 48.7656 58.0636 48.7656C58.6003 48.7656 58.7882 48.3362 58.8587 46.9305C58.9526 45.0955 58.8587 44.9412 57.9093 45.3236H57.9059Z" fill="white"/>
<path d="M102 45.4679C102 45.7027 102.175 45.8771 102.41 45.8771C102.644 45.8771 102.819 45.7027 102.819 45.4679C102.819 45.233 102.644 45.0586 102.41 45.0586C102.175 45.0586 102 45.233 102 45.4679Z" fill="white"/>
<path d="M61.0458 46.8902C60.7908 47.1989 60.6264 47.8262 60.7036 48.2153C60.8915 49.1916 63.4444 49.2218 64.055 48.2556C64.9909 46.7728 62.1965 45.5047 61.0458 46.8902ZM62.7064 48.061C62.1864 48.581 61.6597 48.1784 62.0488 47.5545C62.1931 47.3196 62.5017 47.2391 62.7265 47.38C62.9882 47.541 62.9815 47.7893 62.7064 48.0644V48.061Z" fill="white"/>
<path d="M80.302 46.7158C80.302 46.9506 80.4764 47.1251 80.7113 47.1251C80.9461 47.1251 81.1206 46.9506 81.1206 46.7158C81.1206 46.481 80.9461 46.3065 80.7113 46.3065C80.4764 46.3065 80.302 46.481 80.302 46.7158Z" fill="white"/>
<path d="M65.9136 47.8263C65.8868 48.0041 65.8264 48.3128 65.7694 48.5476C65.7157 48.769 65.6452 49.1917 65.6117 49.4634C65.5781 49.7486 65.2796 49.97 64.9273 49.97C64.5751 49.97 64.3033 50.1411 64.3033 50.3591C64.3033 50.906 65.9539 51.379 66.3464 50.9429C66.8395 50.3961 67.5407 48.041 67.2857 47.7827C66.9502 47.4439 65.9639 47.4707 65.9103 47.823L65.9136 47.8263Z" fill="white"/>
<path d="M78.2355 48.7824C78.2355 49.0172 78.43 49.1112 78.6447 48.977C78.8796 48.8327 79.054 48.6382 79.054 48.5275C79.054 48.4168 78.8796 48.3329 78.6447 48.3329C78.43 48.3329 78.2355 48.5476 78.2355 48.7824Z" fill="white"/>
<path d="M100.964 48.7455C100.833 48.9602 100.923 49.1547 101.158 49.1547C101.393 49.1547 101.608 48.9602 101.608 48.7455C101.608 48.5106 101.524 48.3362 101.413 48.3362C101.303 48.3362 101.108 48.5106 100.964 48.7455Z" fill="white"/>
<path d="M72.4988 50.0135C72.4988 50.2483 72.6866 50.3289 72.9081 50.188C73.1429 50.0437 73.3173 49.8592 73.3173 49.7586C73.3173 49.6579 73.1429 49.5841 72.9081 49.5841C72.6732 49.5841 72.4988 49.7787 72.4988 50.0135Z" fill="white"/>
<path d="M81.1038 50.1879C80.8153 50.5401 80.6744 50.9293 80.7918 51.0467C80.9092 51.1641 81.238 50.9695 81.5131 50.6173C81.7882 50.2651 81.9324 49.8759 81.8251 49.7585C81.7177 49.6411 81.3889 49.8357 81.1038 50.1879Z" fill="white"/>
<path d="M91.9327 52.4525C90.8022 53.3549 89.2389 54.4317 88.4002 54.888C87.5816 55.3342 86.7765 55.9011 86.6322 56.1359C86.1794 56.8673 85.8003 56.6056 85.2803 55.2C84.965 54.3412 84.9348 53.8245 85.1998 53.7373C85.4346 53.6602 85.6091 53.4253 85.6091 53.1905C85.6091 52.9557 85.3541 52.8785 85.0052 53.016C84.653 53.1536 84.4014 53.006 84.4014 52.6638C84.4014 51.8083 80.7716 53.2106 80.4629 54.1868C80.3321 54.5961 80.6206 55.9816 81.1037 57.2698C81.5868 58.558 81.9994 60.1113 82.0195 60.7218C82.043 61.3458 82.2141 61.7383 82.4087 61.6209C82.5999 61.5035 82.7609 61.6981 82.7609 62.0503C82.7609 62.5166 83.1501 62.6944 84.1665 62.6944C84.9482 62.6944 85.6762 62.53 85.807 62.3254C85.9345 62.1241 86.6054 61.8289 87.2697 61.6813C87.944 61.5303 89.7488 60.7151 91.2685 59.8697C96.1462 57.1591 95.8812 57.4711 95.7537 54.6196C95.6598 52.5531 95.4988 52.0465 94.8782 51.8889C94.4488 51.7782 94.2307 51.5064 94.3817 51.2649C94.9318 50.3692 93.9623 50.8388 91.9327 52.4558V52.4525Z" fill="white"/>
<path d="M100.964 53.2708C100.833 53.4856 100.923 53.6801 101.158 53.6801C101.393 53.6801 101.608 53.4856 101.608 53.2708C101.608 53.036 101.524 52.8616 101.413 52.8616C101.303 52.8616 101.108 53.036 100.964 53.2708Z" fill="white"/>
<path d="M56.5405 54.4786C56.5405 54.7134 56.715 54.8879 56.9498 54.8879C57.1846 54.8879 57.3591 54.7134 57.3591 54.4786C57.3591 54.2438 57.1846 54.0693 56.9498 54.0693C56.715 54.0693 56.5405 54.2438 56.5405 54.4786Z" fill="white"/>
<path d="M71.4657 55.73C71.6099 55.9648 71.8045 56.1392 71.9152 56.1392C72.0259 56.1392 72.1098 55.9648 72.1098 55.73C72.1098 55.5153 71.8951 55.3207 71.6603 55.3207C71.4254 55.3207 71.3315 55.5153 71.4657 55.73Z" fill="white"/>
<path d="M77.9402 55.9446C77.3431 56.6089 77.2961 56.9578 77.806 56.9578C78.1583 56.9578 78.7856 55.7266 78.5474 55.5052C78.4803 55.4414 78.2187 55.6293 77.9402 55.9413V55.9446Z" fill="white"/>
<path d="M103.248 57.7596C103.248 57.9844 103.443 58.1689 103.678 58.1689C103.912 58.1689 103.993 57.981 103.852 57.7596C103.708 57.5248 103.523 57.3503 103.423 57.3503C103.322 57.3503 103.248 57.5248 103.248 57.7596Z" fill="white"/>
<path d="M71.2911 60.2554C71.2911 60.4903 71.4857 60.5842 71.7004 60.45C71.9352 60.3058 72.1097 60.1112 72.1097 60.0005C72.1097 59.8898 71.9352 59.8059 71.7004 59.8059C71.4857 59.8059 71.2911 60.0206 71.2911 60.2554Z" fill="white"/>
<path d="M73.532 60.2152C73.6762 60.45 73.8607 60.6245 73.9614 60.6245C74.062 60.6245 74.1358 60.45 74.1358 60.2152C74.1358 59.9804 73.9413 59.8059 73.7064 59.8059C73.4716 59.8059 73.3911 59.9938 73.532 60.2152Z" fill="white"/>
<path d="M75.7764 60.2152C75.7764 60.45 75.9508 60.6245 76.1856 60.6245C76.4205 60.6245 76.5949 60.45 76.5949 60.2152C76.5949 59.9804 76.4205 59.8059 76.1856 59.8059C75.9508 59.8059 75.7764 59.9804 75.7764 60.2152Z" fill="white"/>
<path d="M78.2355 60.2554C78.2355 60.4903 78.43 60.5842 78.6447 60.45C78.8796 60.3058 79.054 60.1112 79.054 60.0005C79.054 59.8898 78.8796 59.8059 78.6447 59.8059C78.43 59.8059 78.2355 60.0206 78.2355 60.2554Z" fill="white"/>
<path d="M91.7751 60.2554C91.7751 60.4903 91.9697 60.5842 92.1844 60.45C92.4193 60.3058 92.5937 60.1112 92.5937 60.0005C92.5937 59.8898 92.4193 59.8059 92.1844 59.8059C91.9697 59.8059 91.7751 60.0206 91.7751 60.2554Z" fill="white"/>
<path d="M94.0193 60.2152C94.1635 60.45 94.3481 60.6245 94.4487 60.6245C94.5493 60.6245 94.6231 60.45 94.6231 60.2152C94.6231 59.9804 94.4286 59.8059 94.1937 59.8059C93.9589 59.8059 93.8784 59.9938 94.0193 60.2152Z" fill="white"/>
<path d="M100.964 60.2152C101.108 60.45 101.303 60.6245 101.413 60.6245C101.524 60.6245 101.608 60.45 101.608 60.2152C101.608 60.0005 101.393 59.8059 101.158 59.8059C100.923 59.8059 100.83 60.0005 100.964 60.2152Z" fill="white"/>
<path d="M80.4797 62.2851C80.3489 62.4998 80.4394 62.6944 80.6743 62.6944C80.9091 62.6944 81.1238 62.4998 81.1238 62.2851C81.1238 62.0503 81.0399 61.8759 80.9292 61.8759C80.8185 61.8759 80.624 62.0503 80.4797 62.2851Z" fill="white"/>
<path d="M95.227 63.4928C95.0962 63.7075 95.1868 63.9021 95.4216 63.9021C95.6564 63.9021 95.8711 63.7075 95.8711 63.4928C95.8711 63.2579 95.7873 63.0835 95.6766 63.0835C95.5658 63.0835 95.3713 63.2579 95.227 63.4928Z" fill="white"/>
<path d="M82.9388 64.744C83.0831 64.9788 83.2777 65.1533 83.3884 65.1533C83.4991 65.1533 83.5829 64.9788 83.5829 64.744C83.5829 64.5293 83.3682 64.3347 83.1334 64.3347C82.8986 64.3347 82.8046 64.5293 82.9388 64.744Z" fill="white"/>
<path d="M89.4939 67.1997C89.6381 67.4345 89.8327 67.609 89.9434 67.609C90.0541 67.609 90.138 67.4345 90.138 67.1997C90.138 66.985 89.9233 66.7904 89.6885 66.7904C89.4536 66.7904 89.3597 66.985 89.4939 67.1997Z" fill="white"/>
<path d="M95.227 68.0216C95.0962 68.2363 95.1868 68.4309 95.4216 68.4309C95.6564 68.4309 95.8711 68.2363 95.8711 68.0216C95.8711 67.7868 95.7873 67.6123 95.6766 67.6123C95.5658 67.6123 95.3713 67.7868 95.227 68.0216Z" fill="white"/>
<path d="M97.5117 70.4974C97.5117 70.7322 97.6996 70.8127 97.921 70.6718C98.1558 70.5276 98.3303 70.3431 98.3303 70.2424C98.3303 70.1418 98.1558 70.068 97.921 70.068C97.6862 70.068 97.5117 70.2626 97.5117 70.4974Z" fill="white"/>
<path d="M88.9236 31.8276C88.0044 32.9984 87.9507 33.2131 88.3298 34.2094C88.9135 35.7324 92.5936 34.0148 92.5936 32.2201C92.5936 31.2774 91.9462 31.4384 91.1981 32.5723C90.8357 33.1191 90.2386 33.5854 89.9031 33.5854C89.1349 33.5854 89.1349 33.156 89.9031 32.1429C91.1712 30.4655 90.2352 30.167 88.9269 31.8309L88.9236 31.8276Z" fill="white"/>
<path d="M93.8449 33.4278C93.3853 34.0115 92.9861 34.8838 92.9861 35.2998C92.9861 37.0845 95.908 36.7054 96.8943 34.7932C97.7397 33.1527 97.2432 32.6562 96.1932 34.0921C95.737 34.716 95.1029 35.2226 94.7809 35.2226C94.0697 35.2226 94.0831 34.7529 94.8211 33.7801C96.0892 32.1027 95.1566 31.7639 93.8482 33.4278H93.8449Z" fill="white"/>
<path d="M90.0475 36.2759C89.4637 37.5641 90.2085 38.3189 91.4229 37.6681C92.3219 37.1884 92.4226 36.2893 91.5403 36.6248C90.7989 36.9066 90.7352 36.4168 91.4229 35.7291C91.8187 35.3332 91.7751 35.2225 91.2283 35.2225C90.8392 35.2225 90.3125 35.6922 90.0475 36.2759Z" fill="white"/>
<path d="M86.7028 37.8157C85.6126 38.6209 85.9614 40.9088 87.3268 41.9253C88.8499 43.0558 92.2482 43.3376 93.6102 42.4453C95.821 40.996 94.2342 38.537 91.074 38.5135C90.2152 38.5068 89.1619 38.2317 88.7324 37.903C87.7562 37.1549 87.6053 37.1481 86.7028 37.8157ZM89.239 39.1207C89.8462 39.4495 91.0137 39.8152 91.8725 39.946C92.7313 40.0768 93.4123 40.3519 93.4123 40.57C93.4123 40.8048 93.3184 40.9591 93.1775 40.9591C92.3958 40.9591 88.4775 39.6273 87.83 39.1409C86.7834 38.3525 87.7898 38.3391 89.2357 39.1207H89.239ZM91.0539 41.7206C90.3528 41.7944 89.1686 41.5563 88.4976 41.2107C86.3707 40.107 87.1322 39.8353 89.8227 40.7377C92.1241 41.5093 92.2381 41.5999 91.0506 41.724L91.0539 41.7206Z" fill="white"/>
</g>
<defs>
<clipPath id="clip0_31_384">
<rect width="126" height="123.279" fill="white" transform="translate(0 0.128784)"/>
</clipPath>
</defs>
</svg>
