<svg width="52" height="46" viewBox="0 0 52 46" fill="none" xmlns="http://www.w3.org/2000/svg">
<path d="M51.4468 26.2401L51.4468 19.8955L13.3789 19.8955L13.3789 13.5508L7.03427 13.5508L7.03427 19.8955L0.689627 19.8955L0.689626 26.2401L7.03427 26.2401L7.03427 32.5848L13.3789 32.5848L13.3789 26.2401L51.4468 26.2401ZM19.7236 38.9294L13.3789 38.9294L13.3789 32.5848L19.7236 32.5848L19.7236 38.9294ZM19.7236 38.9294L26.0682 38.9294L26.0682 45.274L19.7236 45.274L19.7236 38.9294ZM19.7236 7.20618L13.3789 7.20618L13.3789 13.5508L19.7236 13.5508L19.7236 7.20618ZM19.7236 7.20618L26.0682 7.20618L26.0682 0.861536L19.7236 0.861535L19.7236 7.20618Z" fill="white"/>
</svg>
