<svg width="107" height="132" viewBox="0 0 107 132" fill="none" xmlns="http://www.w3.org/2000/svg">
<g clip-path="url(#clip0_216_80)">
<path d="M29.3202 1.33652C8.05233 1.69893 3.00907 1.92401 2.04772 2.56109L0.865112 3.33933L3.75678 12.4645C5.34759 17.4925 7.11006 23.0546 7.67847 24.8552C8.57497 27.6935 8.75045 30.3601 9.00986 45.1389C9.1739 54.4891 9.51342 62.5194 9.76521 62.9619C10.0628 63.4922 9.58209 65.022 8.36896 67.4368C4.16116 75.7837 2.56273 87.4267 4.55791 95.1862C5.60318 99.2566 9.05946 106.822 9.86821 106.806C10.1162 106.802 10.3222 107.05 10.3222 107.352C10.3222 108.492 16.9562 115.435 20.8779 118.403C26.0547 122.318 34.4207 126.571 38.9261 127.571C41.0357 128.04 43.1301 128.902 44.0533 129.684C47.3951 132.511 55.517 132.133 59.1335 128.982C59.7057 128.482 61.6703 127.788 63.4328 127.46C65.2105 127.128 68.6592 126.254 71.074 125.526C73.4888 124.793 75.835 124.091 76.2775 123.966C84.571 121.608 92.1321 117.324 97.6942 111.827C101.105 108.458 102.428 106.673 104.256 103.003C106.365 98.7607 106.564 98.0015 106.793 93.2253C107.006 88.8382 106.835 87.2436 105.667 82.7688C103.321 73.7695 99.8839 66.4793 95.2412 60.6501L93.1201 57.9874L93.3948 43.5862C93.6695 29.208 93.6733 29.1736 95.3289 24.0808C96.2445 21.2654 97.4042 17.3094 97.9193 15.257C98.4304 13.2198 99.3842 9.62624 100.029 7.31442C100.677 5.00261 101.246 2.74039 101.284 2.31313C101.345 1.66841 100.002 1.47767 93.4177 1.203C82.7589 0.760475 60.7395 0.806254 29.3202 1.34034V1.33652ZM99.4986 2.78617C99.4986 3.06084 98.7623 6.10511 97.8658 9.52323C96.9693 12.9414 96.05 16.4739 95.8287 17.3399C95.6074 18.2097 94.6346 21.3875 93.6657 24.4012L91.907 29.8794L61.5177 29.4788C44.8277 29.2576 26.4476 29.1317 20.7482 29.2042L10.368 29.33L10.017 27.8232C9.82243 26.9915 8.14389 21.4638 6.27078 15.4821C4.39387 9.49653 2.88699 4.35408 2.90225 3.99167C2.92133 3.54152 4.18405 3.32407 6.99942 3.28973C9.24257 3.26303 16.651 3.0761 23.4873 2.87773C43.2445 2.3055 99.4986 2.23683 99.4986 2.78617ZM59.3814 31.1154C66.4695 31.2413 76.7696 31.3405 82.2058 31.3405H92.1092L92.0596 39.1343C92.0329 43.4069 91.8498 49.0148 91.659 51.5517L91.3081 56.1753L88.9467 54.0123C87.6382 52.8182 86.0321 51.4677 85.3531 50.9947C84.3765 50.3157 84.1819 49.8388 84.407 48.6829C84.7694 46.8403 84.2696 46.5466 80.5005 46.3673C78.7915 46.2871 76.7238 45.8522 75.8235 45.3906C73.7139 44.2996 72.7983 44.3301 71.959 45.5204C71.4135 46.2948 70.62 46.5199 68.5104 46.5008C66.6488 46.4855 65.4547 46.7564 64.7909 47.3553C63.8639 48.187 63.7113 48.1488 62.0022 46.6686C60.2436 45.1465 57.8288 44.5094 57.8288 45.57C57.8288 45.8751 56.772 46.1231 55.4674 46.1231C52.7741 46.1231 52.5795 46.3253 52.2285 49.442C51.847 52.8144 52.4002 53.2645 56.9246 53.2645H60.8463L62.2616 55.2254C63.8219 57.3884 63.78 57.5067 61.8039 56.6178C60.7586 56.1486 60.2207 56.2058 59.1144 56.9116C57.9623 57.644 56.753 57.7546 51.8242 57.5639C48.5548 57.438 44.7361 57.1366 43.2788 56.8849L40.639 56.4309L42.5502 54.9736C43.7061 54.0924 45.0947 53.5163 46.0675 53.5163C47.9788 53.5163 48.5663 52.864 47.8338 51.5555C47.4447 50.8612 47.624 50.3004 48.6006 49.1407C49.9625 47.5308 50.2639 45.1427 49.2339 44.1127C48.2534 43.1322 46.2697 43.3535 44.1563 44.6773C43.0996 45.3372 41.7834 45.8751 41.215 45.8751C40.5398 45.8751 40.0705 46.3291 39.8569 47.1836C39.6814 47.8856 39.2999 48.4807 39.0291 48.4654C37.9228 48.4082 35.2638 47.485 34.2033 46.7869C33.5509 46.3558 32.6087 46.1689 32.0402 46.352C31.4375 46.5466 30.7661 46.3558 30.3655 45.8751C29.4042 44.723 26.8139 44.8871 24.9522 46.2185C23.8039 47.0387 22.4382 47.3668 19.7754 47.4583C17.765 47.527 15.911 47.7368 15.602 47.9275C14.7169 48.4769 14.9191 53.3141 15.8652 54.2679C16.7922 55.2025 16.5595 55.6259 12.5234 60.3526L10.9783 62.1608L10.6503 52.4825C10.471 47.1531 10.3222 40.1185 10.3222 36.8224V30.8407L15.9796 30.6385C19.0926 30.5279 27.2144 30.5394 34.0507 30.6652C40.864 30.7911 52.301 30.9933 59.389 31.1192L59.3814 31.1154ZM48.3221 45.9438C48.3221 47.0578 47.067 48.5875 42.6914 52.8068C39.5746 55.8129 36.6105 58.3765 36.0573 58.5558C34.9014 58.922 34.7221 59.8452 35.8055 59.8452C36.229 59.8452 37.3887 59.4904 38.4454 59.0403C39.4831 58.5977 41.4363 58.2353 42.7944 58.2353C47.0212 58.2353 45.6593 59.6735 38.8231 62.424C35.4545 63.7783 32.3798 65.0906 31.9372 65.3577C27.7142 67.9098 21.4082 75.6464 21.3967 78.2939C21.3815 80.8384 20.8779 81.0788 16.9066 80.4417C13.2367 79.8542 8.52156 78.1642 7.20543 76.9663C5.62226 75.5281 9.62787 66.8836 15.6287 58.7885C20.1378 52.7038 26.7833 45.9438 28.0194 46.1841C29.4423 46.4588 29.4271 47.279 27.9621 48.9881C26.1119 51.1473 27.2144 51.3838 29.6788 49.3581C31.5405 47.8284 33.5509 47.1913 33.5509 48.1335C33.5509 48.3891 32.849 49.2551 31.9411 50.1211C29.1486 52.7839 30.1328 53.3485 33.2496 50.8726C36.9195 47.9581 38.701 49.217 35.3592 52.3642C34.3521 53.3103 33.6501 54.3709 33.8294 54.6684C34.188 55.2673 35.0578 54.6036 39.5822 50.2813C42.3976 47.5918 46.8152 44.5437 47.9292 44.5209C48.1543 44.517 48.3297 45.1427 48.3297 45.9476L48.3221 45.9438ZM77.4792 47.6986C81.8472 49.7739 86.9248 53.6613 91.1898 58.1857C95.6418 62.9124 98.0604 66.4602 97.6675 67.6886C97.1067 69.451 87.4818 75.6807 85.3225 75.6807C85.1318 75.6807 84.5062 74.8262 83.9606 73.8191C82.2363 70.6375 77.9293 67.948 70.7917 65.5904C63.7533 63.2671 59.9346 60.7302 59.9346 58.3841C59.9346 57.3426 61.2431 57.5982 64.5086 59.2806C68.3807 61.2758 69.323 60.6425 66.5686 57.9034C64.1538 55.5001 60.1596 50.0028 59.4272 48.0763C58.4201 45.4326 60.0452 46.4664 64.7108 51.4449C67.2095 54.1076 69.548 56.1715 69.9372 56.0456C70.4178 55.8892 70.1088 55.2178 68.9567 53.9093C67.4079 52.1506 66.7823 50.3385 67.7245 50.3385C67.9763 50.3385 69.1322 51.1587 70.3377 52.1926C73.0005 54.4739 74.1297 53.6994 71.5928 51.3304C69.8342 49.6862 69.384 48.2289 70.6391 48.2289C71.3601 48.2289 74.1221 50.1402 74.7821 51.0939C75.0262 51.4449 75.3657 51.4449 75.7167 51.0939C76.0982 50.7124 75.7663 50.0601 74.66 49.0033C73.0997 47.5117 72.5923 46.1193 73.6033 46.1193C73.9046 46.1193 75.6633 46.8365 77.4754 47.6986H77.4792ZM58.4735 49.4878C59.7019 52.0972 58.3247 53.0852 54.8074 52.1277C53.8079 51.8569 53.6019 51.4487 53.6019 49.7396C53.6019 47.7292 53.6515 47.6796 55.6123 47.6796C57.371 47.6796 57.7296 47.9047 58.4735 49.4878ZM68.6058 48.206C68.4265 48.496 67.7017 48.7325 66.9959 48.7325C66.2902 48.7325 65.7141 48.496 65.7141 48.206C65.7141 47.9161 66.416 47.6796 67.324 47.6796C68.2777 47.6796 68.8003 47.8932 68.6058 48.206ZM82.8848 48.206C83.068 48.5036 82.8581 48.7325 82.408 48.7325C81.9578 48.7325 81.4619 48.4998 81.275 48.206C81.088 47.9123 81.3017 47.6796 81.7518 47.6796C82.202 47.6796 82.6979 47.9123 82.881 48.206H82.8848ZM21.3777 49.1864C21.3777 49.7892 17.7459 53.5087 17.1546 53.5087C16.8799 53.5087 16.651 52.4291 16.651 51.1206V48.7325H19.0125C20.321 48.7325 21.3739 48.9347 21.3739 49.1864H21.3777ZM60.2855 61.4284C61.4949 62.7369 62.2006 63.8623 61.8458 63.9195C59.6828 64.2628 38.9146 64.3086 39.1245 63.9653C39.258 63.7478 40.7305 63.1374 42.3404 62.6339C44.5034 61.9548 45.5296 61.3025 46.1362 60.2191L46.964 58.7351L52.5185 58.8877L58.0729 59.0403L60.2855 61.4284ZM71.4479 67.2346C73.8627 68.0853 76.8993 69.3976 78.1353 70.1225C80.348 71.4195 83.6669 75.0589 83.6669 76.1843C83.6669 76.581 75.2208 76.6573 54.0063 76.459C37.6672 76.3064 24.2541 76.0927 24.1435 75.9821C23.6056 75.4442 28.1643 70.1339 30.9797 68.0128L34.146 65.6285L50.5843 65.6552L67.0226 65.682L71.4479 67.2422V67.2346ZM99.8915 70.5535C100.357 71.553 100.235 72.0108 99.1934 73.2163C97.5988 75.0627 97.6141 76.8366 99.2506 79.2476C100.819 81.5594 100.853 81.8723 99.6817 83.1693C98.6059 84.3596 99.0446 84.9394 100.452 84.1841C102.039 83.3334 102.318 81.8112 101.234 79.9C98.8653 75.7265 98.8882 75.7914 99.5978 74.6736C99.9831 74.0708 100.574 73.5673 100.906 73.5673C101.913 73.5673 106.621 90.2268 105.732 90.6426C102.867 91.9817 101.376 93.0689 100.544 94.4308C99.1515 96.7159 99.1629 100.714 100.567 103.026C101.147 103.979 101.608 104.914 101.608 105.135C101.608 105.357 100.422 106.871 98.9454 108.531C96.3933 111.396 96.214 111.499 94.6957 110.968C93.5398 110.564 92.6929 110.587 91.5522 111.052C89.6562 111.83 88.939 112.979 88.939 115.241C88.939 116.668 88.5881 117.026 85.8223 118.407L82.7055 119.968L81.7175 118.861C79.4629 116.332 74.6104 115.584 71.7454 117.328C69.8799 118.465 68.0908 121.123 67.5758 123.538C67.2744 124.946 66.87 125.285 64.9092 125.785C61.1897 126.731 60.8044 126.628 61.6703 124.946C63.1467 122.081 62.9674 118.167 61.2469 115.596C60.5411 114.539 59.9346 113.52 59.9346 113.383C59.9346 113.242 60.5869 113.131 61.4414 113.131C68.5295 113.131 74.618 105.7 73.1417 98.8522C72.4931 95.8347 70.6582 92.6798 68.6287 91.0814C66.9005 89.7195 62.296 88.3308 58.6757 88.0791C56.1617 87.9036 55.9251 87.7701 55.4788 86.2327C54.361 82.3835 51.0993 82.4102 49.5467 86.2823C48.7532 88.2584 48.6197 88.3423 46.2583 88.3575C42.5388 88.3766 38.1402 89.5859 36.0535 91.1615C35.0235 91.9397 33.631 93.6221 32.9367 94.9268C32.2424 96.2353 31.365 97.2882 30.9759 97.2882C29.7818 97.2882 25.0209 92.4128 23.7124 89.8492C22.6785 87.8273 22.4306 86.5302 22.4306 83.2151C22.4306 80.9529 22.6366 78.7746 22.8845 78.3893C23.2622 77.8056 28.4657 77.7293 53.8003 77.9353C70.5399 78.0726 84.3688 78.3015 84.4909 78.4389C84.6168 78.5762 84.9792 80.0983 85.2997 81.8074C86.6425 88.9946 84.5023 93.9082 77.7805 99.0392C76.7734 99.806 75.5145 100.458 75.0415 100.458C74.5379 100.458 74.1602 100.802 74.1602 101.263C74.1602 104.323 84.1285 96.4374 86.0435 91.8634C86.6005 90.532 87.2834 89.956 88.8399 89.4906C92.1092 88.5216 93.7153 86.9804 93.7153 84.825C93.7153 82.5017 91.804 80.6362 88.8399 80.064C87.333 79.7741 86.5471 79.2972 86.2496 78.4923C85.8681 77.4546 86.1733 77.1723 89.2404 75.7456C92.5594 74.2044 96.7099 71.328 97.5454 69.9966C98.2054 68.9437 99.2583 69.1916 99.8877 70.5497L99.8915 70.5535ZM7.39999 78.7708C8.3537 79.6596 12.7294 81.0482 16.651 81.7082L20.5727 82.3682L20.9504 85.3324C21.1564 86.9422 21.7286 89.0709 22.2055 89.9827C22.9456 91.4018 22.9837 91.9702 22.4535 93.5763C21.3891 96.7922 21.8774 98.4937 24.193 99.6229C26.3561 100.68 28.1758 100.504 29.572 99.1078C30.7623 97.9176 31.0102 98.4059 31.1819 102.225C31.2658 104.086 31.6816 106.425 32.1127 107.455C33.3335 110.358 37.816 113.135 41.2837 113.135C42.7829 113.135 42.7944 113.387 41.379 115.195C40.3795 116.473 39.9256 116.607 36.5075 116.645C32.4866 116.687 30.0641 117.579 28.027 119.773L26.9054 120.979L23.9909 119.033C19.5656 116.084 13.7327 110.263 10.8181 105.895C9.37609 103.731 8.20492 101.748 8.20492 101.469C8.20492 101.191 8.85727 100.722 9.6622 100.416C11.8252 99.6038 14.4384 97.4369 15.3197 95.7355C15.7431 94.9153 16.0979 93.1719 16.0979 91.913C16.0979 87.7014 12.9316 85.1759 7.65177 85.1759C4.98899 85.1759 4.94321 85.1492 5.21407 83.7187C5.36284 82.9328 5.65278 81.3573 5.8397 80.3005C6.1983 78.2901 6.53401 77.9582 7.39999 78.767V78.7708ZM90.8503 82.2385C93.3033 83.959 92.3572 86.782 88.8399 88.2469C87.4245 88.8344 87.3826 88.8039 87.3559 87.1444C87.3406 86.1907 87.1842 84.5541 87.0049 83.4478C86.6921 81.5366 86.7379 81.4603 88.2104 81.4603C89.0649 81.4603 90.2323 81.8036 90.8503 82.2347V82.2385ZM54.0024 87.194L54.7044 89.4066H57.4206C60.8387 89.4066 65.4967 90.5931 67.2744 91.9168C68.6821 92.9659 71.1541 96.2848 70.7917 96.6473C70.6811 96.7579 69.7121 96.2543 68.6554 95.5409C67.591 94.8237 65.3631 93.8128 63.7037 93.2978C57.9241 91.5048 42.7829 92.4738 37.259 94.9878C35.6987 95.6974 34.2796 96.178 34.1422 96.0407C33.7493 95.6478 35.5499 93.3436 37.2094 92.1228C38.9566 90.8334 44.5988 89.4371 48.1199 89.4181C50.1304 89.4066 50.3058 89.2922 50.611 87.7472C51.0001 85.7863 51.9081 84.5312 52.7474 84.8021C53.0487 84.9013 53.621 85.9885 54.0024 87.194ZM10.3145 86.7591C13.3817 87.6213 14.5376 89.0595 14.5376 92.016C14.5376 94.0264 14.2362 94.9382 13.1376 96.2391C11.6955 97.9481 9.30742 99.4054 7.95314 99.4054C6.94602 99.4054 5.54214 94.6292 5.14158 89.853L4.83639 86.2327H6.64464C7.62125 86.2327 9.30742 86.473 10.3145 86.7553V86.7591ZM105.545 94.53C105.011 97.7993 103.638 102.022 102.917 102.625C101.91 103.464 101.108 101.618 101.108 98.4517C101.108 96.2887 101.376 95.5486 102.646 94.179C104.824 91.8291 105.965 91.9664 105.545 94.53ZM28.5153 98.1007C28.5153 98.898 25.1468 99.0926 24.2426 98.3449C23.4873 97.7231 23.2012 94.6139 23.8421 93.9769C24.2426 93.5763 28.5191 97.3454 28.5191 98.1007H28.5153ZM94.772 112.529C94.772 113.181 90.9495 115.806 90.4497 115.5C90.0072 115.229 90.3963 113.837 91.2089 112.78C91.7887 112.025 94.772 111.815 94.772 112.529ZM57.2718 114.692C57.2718 115.786 56.5165 116.027 51.4389 116.553C47.9711 116.912 45.4495 116.301 45.2206 115.046C45.0757 114.245 45.4075 114.18 48.1199 114.467C49.829 114.65 52.3544 114.57 53.827 114.291C55.2842 114.013 56.6462 113.765 56.8674 113.738C57.0887 113.711 57.268 114.138 57.268 114.692H57.2718ZM77.9827 118.087C78.9364 118.491 80.0008 119.189 80.3975 119.666C81.0079 120.406 80.7981 120.654 78.8373 121.535C75.9723 122.821 69.5099 124.515 69.0826 124.091C68.4417 123.451 70.7421 119.727 72.5008 118.556C74.5799 117.175 75.6175 117.087 77.9789 118.087H77.9827ZM39.3991 120.826C39.5784 122.283 40.1354 124.275 40.6313 125.224C41.4973 126.884 41.4935 126.945 40.555 126.682C40.0171 126.529 38.8727 126.235 38.0181 126.029C36.0573 125.556 31.2849 123.477 29.5224 122.329C28.4161 121.608 28.3169 121.356 28.8777 120.673C30.1519 119.128 33.6959 117.881 36.4083 118.022L39.071 118.159L39.3991 120.822V120.826Z" fill="white"/>
<path d="M57.8249 5.56719C20.8245 6.16613 9.03269 6.53235 8.45664 7.10077C7.65934 7.89045 9.0098 13.4754 10.1657 14.1621C12.9582 15.8178 16.0978 16.4739 21.4272 16.5159L27.058 16.5578L27.3746 14.948C28.0269 11.629 31.323 8.61527 34.2986 8.61527C37.2742 8.61527 39.071 10.8317 38.1325 13.5937C37.751 14.7114 36.8622 15.4439 34.703 16.4243C30.9568 18.1257 31.7884 18.6636 38.7238 19.0146C44.2554 19.2969 48.2763 18.4042 47.7727 17.008C47.6354 16.6227 47.5209 15.0471 47.5209 13.5403C47.5209 10.0726 48.9134 8.40164 51.744 8.47794C57.123 8.62672 58.6832 13.7882 54.258 16.7982C52.4497 18.0304 52.4307 18.08 53.556 18.6789C55.9175 19.9378 66.2748 19.0261 66.2748 17.5611C66.2748 17.3628 65.9582 16.4281 65.5462 15.4248C65.1342 14.4177 64.8824 13.071 64.9663 12.3348C65.0464 11.6328 65.1418 10.6562 65.1685 10.2252C65.1952 9.77118 65.9239 8.99676 66.828 8.45123C68.888 7.2114 71.3639 7.59289 73.3629 9.46218C74.6141 10.6295 74.7744 11.1026 74.4959 12.762C74.2822 14.0171 73.6032 15.1921 72.5617 16.1115C70.517 17.9121 71.1541 18.3623 75.7281 18.3432C79.8291 18.3241 84.6244 17.0805 89.7554 14.7C93.9288 12.762 94.6727 12.0792 95.6493 9.26762C96.5077 6.80321 96.5191 5.48708 95.6875 5.365C94.1615 5.13993 79.2988 5.22004 57.8325 5.56719H57.8249Z" fill="white"/>
<path d="M67.3239 10.7288C66.0917 13.0406 66.9805 16.0696 68.8803 16.0391C71.3447 16.001 73.3895 12.1708 71.7949 10.58C70.6008 9.38597 67.9915 9.47371 67.32 10.7326L67.3239 10.7288Z" fill="white"/>
<path d="M31.3535 11.7588C30.499 12.6133 29.8199 13.8722 29.8199 14.6008C29.8199 15.8788 29.8695 15.8979 32.0822 15.4134C34.394 14.906 36.7058 13.1932 36.7058 11.9877C36.7058 11.2132 35.0463 10.229 33.7416 10.229C33.2648 10.229 32.2081 10.9081 31.3535 11.7626V11.7588Z" fill="white"/>
<path d="M49.8557 11.3048C48.9973 12.1632 48.8486 12.7392 49.1232 14.0935C49.5658 16.2565 49.7565 16.5579 50.6835 16.5579C51.538 16.5579 55.1584 13.506 55.1584 12.7888C55.1584 11.9343 53.0487 10.2252 51.992 10.2252C51.4045 10.2252 50.4584 10.7021 49.8557 11.3048Z" fill="white"/>
<path d="M89.1945 16.886C86.8713 17.8397 82.961 19.0147 80.4966 19.4992C76.6741 20.2507 75.4305 20.2927 71.9742 19.7738C68.4035 19.2436 67.6558 19.2817 65.6148 20.1134C62.3989 21.4219 54.5326 21.4028 52.0911 20.079C50.4583 19.1902 50.1302 19.1825 47.5171 19.9531C43.3436 21.1815 35.5994 21.0556 31.9333 19.7014C29.7092 18.8773 27.4585 18.5836 22.4305 18.4463C17.9556 18.328 15.022 17.9808 13.2824 17.3667C11.8747 16.8707 10.6044 16.577 10.467 16.7143C9.99017 17.195 12.981 25.5419 13.6334 25.5534C13.9653 25.5572 25.1466 25.6411 38.5178 25.7403C51.8889 25.8357 68.7163 26.1981 75.9722 26.5452L89.1449 27.1747L90.049 25.9692C90.5374 25.3168 91.0676 24.2792 91.205 23.707C91.3423 23.1309 91.9489 20.9679 92.5363 18.9575C93.1238 16.947 93.5702 15.238 93.5168 15.2113C93.4634 15.1846 91.5063 15.9437 89.1945 16.8936V16.886Z" fill="white"/>
<path d="M18.7606 35.43C16.2466 35.7352 15.5942 36.4143 15.5942 38.7299C15.5942 42.0984 15.8842 42.3998 19.1115 42.3998C22.7319 42.3998 23.4834 41.6902 23.4834 38.2759C23.4834 35.7123 22.8806 34.8921 21.1716 35.1248C20.8359 35.1706 19.7639 35.3041 18.7568 35.4262L18.7606 35.43ZM21.9307 38.6803C21.9307 40.8204 21.2288 41.3431 18.36 41.3431C17.3033 41.3431 17.1545 41.0913 17.1545 39.3326C17.1545 36.8148 17.3567 36.6165 19.9203 36.6165C21.8811 36.6165 21.9307 36.6661 21.9307 38.6765V38.6803Z" fill="white"/>
<path d="M43.0193 35.514L40.6312 35.8153V42.148H47.5171L47.8451 39.2563C48.1007 36.9941 47.9901 36.2197 47.3416 35.6856C46.8876 35.3156 46.262 35.0524 45.9606 35.1058C45.6592 35.1592 44.3278 35.3423 43.0193 35.5063V35.514ZM46.4603 38.5773C45.9949 41.1409 45.8423 41.3431 44.3507 41.3431C42.1381 41.3431 41.4362 40.7861 41.4362 39.0313C41.4362 36.8186 41.6879 36.6165 44.4537 36.6165H46.8151L46.4603 38.5773Z" fill="white"/>
<path d="M27.5844 37.8257C27.2029 41.6482 27.7217 42.6515 30.1747 42.8423C33.4441 43.1017 34.9204 42.2968 35.3439 40.0345C35.5995 38.6764 35.4621 37.7532 34.8746 36.8415C34.1536 35.7237 33.6424 35.5597 30.9301 35.5597H27.8133L27.5882 37.8219L27.5844 37.8257ZM34.043 38.4781C34.043 40.8585 33.5394 41.343 31.0788 41.343H28.767V39.3326C28.767 38.2263 28.87 37.2192 28.9921 37.0971C29.1142 36.975 30.3235 36.9636 31.632 37.0704C33.7416 37.2459 34.0468 37.4213 34.0468 38.4781H34.043Z" fill="white"/>
<path d="M53.0982 36.0405C52.5069 36.4143 52.4459 37.1201 52.8235 39.3327L53.3004 42.1481H60.1862L60.3388 40.088C60.4228 38.9321 60.3579 37.4863 60.1862 36.7958C59.9154 35.6857 59.5835 35.5636 56.8673 35.5636C55.2078 35.5636 53.5102 35.7772 53.0982 36.0405ZM58.7595 38.8825C58.5802 41.2439 57.8363 41.7742 55.513 41.1867C54.6738 40.9731 54.319 40.4428 54.2198 39.2335C54.0367 36.9942 54.4067 36.6203 56.8215 36.6203H58.9312L58.7595 38.8825Z" fill="white"/>
<path d="M65.8399 36.193C65.4928 36.5401 65.2104 37.9516 65.2104 39.3593V41.8962L67.4231 41.9801C71.9475 42.1518 73.1034 41.5109 73.1034 38.829C73.1034 35.8801 72.7524 35.5597 69.4831 35.5597C67.8236 35.5597 66.1832 35.842 65.8399 36.1891V36.193ZM71.4211 38.8824L71.5965 40.8433H66.7707V36.7194L69.0062 36.8186C71.1693 36.914 71.2494 36.9865 71.4211 38.8786V38.8824Z" fill="white"/>
<path d="M77.0023 36.8187C76.8497 37.2345 76.9298 38.604 77.1778 39.8591L77.6318 42.148H84.468L84.6206 39.1076L84.7732 36.0671H81.027C78.2612 36.0671 77.2083 36.2655 77.0061 36.8225L77.0023 36.8187ZM83.1595 38.9817C83.1595 40.8205 83.1328 40.8434 80.7714 40.8434C78.41 40.8434 78.3833 40.7632 78.3833 39.3365C78.3833 37.3642 78.6847 37.1239 81.1491 37.1239C83.1099 37.1239 83.1595 37.1696 83.1595 38.9855V38.9817Z" fill="white"/>
<path d="M92.9141 96.7922C93.3566 98.8027 92.3342 101.919 91.0029 102.621C90.3505 102.965 88.3897 103.041 85.8757 102.824C82.1562 102.503 81.6717 102.576 80.2945 103.67C78.3871 105.189 77.3533 107.649 77.7004 109.862C78.1048 112.448 79.1882 111.972 79.1882 109.21C79.1882 107.348 79.4819 106.547 80.5692 105.441C81.8777 104.109 82.202 104.037 86.6768 104.132C90.5489 104.216 91.6018 104.063 92.5097 103.304C94.421 101.698 95.1038 95.1862 93.3643 95.1862C92.7348 95.1862 92.6356 95.5371 92.9141 96.796V96.7922Z" fill="white"/>
<path d="M16.6853 102.373C14.9762 106.116 16.9027 108.206 21.6294 107.737C25.4519 107.356 26.0813 108.08 24.5477 111.071C23.5177 113.082 23.5063 113.219 24.3951 113.059C24.9254 112.96 25.7838 112.002 26.3293 110.896C27.2487 109.034 27.2525 108.824 26.4056 107.527C25.5434 106.211 25.3489 106.161 22.3847 106.47C19.7219 106.749 19.1154 106.642 18.2112 105.742C17.2232 104.754 17.2079 104.586 17.9442 103.129C18.8865 101.267 18.8941 101.019 18.009 101.019C17.6199 101.019 17.0286 101.622 16.6853 102.377V102.373Z" fill="white"/>
</g>
<defs>
<clipPath id="clip0_216_80">
<rect width="106" height="130.694" fill="white" transform="translate(0.865112 0.897827)"/>
</clipPath>
</defs>
</svg>
