<svg width="107" height="61" viewBox="0 0 107 61" fill="none" xmlns="http://www.w3.org/2000/svg">
<g clip-path="url(#clip0_216_235)">
<path d="M28.7465 0.536679C28.722 0.558772 28.0617 0.622597 27.2737 0.676602C25.548 0.794431 24.4212 1.10864 23.481 1.7297C22.5703 2.33113 21.829 3.53888 21.6768 4.66808C21.6129 5.14185 21.5688 13.3016 21.5761 22.8065L21.5908 40.0832L19.5386 41.7869C18.4094 42.7246 17.0863 43.8415 16.5929 44.2711C16.102 44.7007 15.2256 45.4371 14.6438 45.9084C14.0596 46.3822 13.0605 47.2193 12.405 47.7814C11.7496 48.346 10.7898 49.1488 10.2547 49.5783C5.74767 53.2065 4.9376 53.9331 4.8124 54.4511C4.75594 54.6892 4.67739 55.8356 4.64057 56.9942C4.56201 59.5227 4.74367 60.1143 5.6593 60.3008C6.37364 60.4457 97.5713 60.4383 98.2783 60.2935C99.1424 60.1167 99.3486 59.5079 99.3486 57.144C99.3486 54.4216 99.2086 54.0681 97.5934 52.7548C96.8864 52.1804 95.6148 51.142 94.7532 50.4375C92.7747 48.8223 90.3616 46.8118 89.3085 45.906C87.8356 44.6369 86.8046 43.7728 85.8423 43.002C85.3244 42.5871 84.3179 41.7476 83.633 41.1609L82.3762 40.0832L82.413 22.9636C82.4351 12.4178 82.3909 5.43152 82.2952 4.77364C81.9392 2.30658 80.324 1.04482 77.0223 0.654509C76.3988 0.580865 28.8202 0.46549 28.7416 0.539134L28.7465 0.536679ZM75.4218 2.09056C78.6498 2.23048 80.2258 2.881 80.7192 4.28022C80.9033 4.80064 80.9401 7.79056 80.9401 22.3082C80.9401 31.8867 80.9131 39.7371 80.8812 39.769C80.8297 39.8206 37.925 39.8599 25.3418 39.8206L23.0662 39.8132L23.0514 23.6092C23.0441 14.7008 23.0269 6.87493 23.0122 6.22932C22.9508 3.20748 24.242 2.26239 28.6876 2.07583C29.8021 2.02919 30.7398 1.97764 30.7546 1.96291C30.8307 1.89417 73.6961 2.01446 75.4218 2.09056ZM70.7651 41.3769H81.49L82.7395 42.3809C83.4317 42.9382 84.718 43.9888 85.6239 44.7375C86.5321 45.4887 87.6147 46.3798 88.0566 46.7382C88.4935 47.0941 89.4239 47.8772 90.1235 48.4786C90.828 49.0849 92.0038 50.0767 92.7648 50.7026C93.5135 51.3212 94.8244 52.421 95.659 53.128L97.1834 54.4216L74.5233 54.4585C62.0579 54.4781 41.7201 54.4781 29.321 54.4585L6.77868 54.4216L7.87106 53.4839C8.46512 52.9733 9.26292 52.3056 9.61887 52.0184C9.97972 51.7263 10.7186 51.0979 11.2709 50.6118C11.8208 50.1282 12.3903 49.6643 12.5425 49.5783C12.6923 49.4924 13.4189 48.891 14.1479 48.2478C14.877 47.6047 15.8908 46.7406 16.3867 46.3356C16.885 45.933 17.9553 45.0517 18.758 44.3865C19.5607 43.7212 20.7243 42.7688 21.3306 42.2754L22.4377 41.3745L41.0303 41.3376C51.2643 41.318 59.7161 41.318 59.8315 41.3376C59.9468 41.3573 64.8589 41.3745 70.7626 41.3745L70.7651 41.3769ZM97.7333 56.1032C97.8364 56.2063 97.8511 58.7224 97.748 58.8255C97.7112 58.8623 67.1222 58.8795 13.0556 58.8722H6.15517L6.10607 57.711C6.0447 56.2971 6.08398 56.0958 6.42274 56.0295C7.00207 55.9166 97.6228 55.9927 97.7358 56.1032H97.7333Z" fill="white"/>
<path d="M99.2184 8.27899C98.7422 8.52692 98.0033 8.86568 97.5663 9.03261C96.7563 9.34436 94.844 10.1962 93.5061 10.8418C93.0741 11.0504 92.6273 11.2493 92.4947 11.2935C91.6012 11.5929 87.7055 13.4463 87.5925 13.6231C87.514 13.7458 87.4968 14.0256 87.5508 14.2466C87.7251 14.9486 88.1964 14.9069 90.0694 14.033C92.7918 12.7639 93.2606 12.5528 94.8292 11.8875C95.6467 11.5414 96.7391 11.0603 97.2546 10.8172C97.775 10.5742 98.261 10.3508 98.347 10.3189C98.4353 10.2845 98.3298 10.4539 98.1039 10.7068C97.6523 11.2125 95.8848 13.6083 94.8342 15.1401C94.2303 16.0189 93.921 16.4338 93.0937 17.4599C92.8065 17.8158 92.4947 18.4983 92.4947 18.7683C92.4947 19.2273 93.1354 19.4851 95.3055 19.8975C96.4666 20.1184 97.7652 20.3737 98.1898 20.4621C99.0073 20.6339 102.483 21.2206 102.682 21.2206C102.753 21.2206 102.8 21.2722 102.8 21.3483C102.8 21.417 102.324 21.5888 101.744 21.7287C101.158 21.8687 99.9598 22.2074 99.0515 22.4873C98.1432 22.7671 96.7317 23.1992 95.8824 23.4569C94.083 24.0019 93.7442 24.3087 94.1812 25.001C94.3285 25.2366 94.9152 25.789 95.465 26.2136C96.0149 26.6383 96.8692 27.3183 97.338 27.7061C98.4378 28.6144 101.168 30.8286 101.695 31.2459C101.919 31.4227 101.985 31.5258 101.845 31.4841C101.528 31.3859 100.387 31.1158 97.0999 30.3671C93.3809 29.5178 92.6322 29.3459 91.8933 29.1643C91.0317 28.9507 90.4646 29.1766 90.4646 29.7338C90.4646 30.291 90.9261 30.5341 92.9636 30.9784C93.9455 31.1919 95.5215 31.5528 96.4666 31.7786C97.4191 32.0045 98.4623 32.245 98.8085 32.3138C99.1546 32.385 100.237 32.6304 101.234 32.8636C102.23 33.0993 103.345 33.3472 103.733 33.4209C104.121 33.4945 104.653 33.6001 104.931 33.659C105.348 33.7449 105.471 33.6983 105.687 33.362C106.028 32.8317 105.861 32.5445 104.715 31.6903C104.216 31.3171 103.212 30.5144 102.483 29.9056C101.754 29.2944 100.753 28.4819 100.252 28.0965C97.397 25.8871 96.3291 25.0034 96.415 24.9175C96.4469 24.8856 96.8544 24.7432 97.3307 24.5984C97.7971 24.456 98.6464 24.1958 99.1963 24.0264C101.354 23.3636 104.472 22.4554 105.37 22.2295C106.44 21.9595 106.858 21.6576 106.858 21.1543C106.858 20.5603 106.575 20.4375 104.359 20.057C103.627 19.9318 102.299 19.6913 101.391 19.517C100.483 19.3452 99.3264 19.134 98.8109 19.0481C98.2979 18.9622 97.3454 18.7855 96.7072 18.6529C96.0665 18.5228 95.276 18.3706 94.9594 18.319L94.38 18.2233L95.1459 17.1972C97.257 14.3718 99.0294 11.8949 99.2577 11.4555C99.3952 11.1879 99.621 10.9252 99.7486 10.8761C99.8837 10.8271 99.9868 10.7092 99.9868 10.6086C99.9868 10.5079 100.24 10.1323 100.542 9.7764C101.172 9.03261 101.322 8.57847 101.082 8.12434C100.848 7.68248 100.267 7.73403 99.211 8.2839L99.2184 8.27899Z" fill="white"/>
<path d="M1.05904 11.8531C0.712915 12.2361 0.843019 12.8252 1.3487 13.1566C1.55491 13.2917 2.03359 13.6672 2.41899 13.9986C3.17261 14.6442 3.98023 15.2997 5.35 16.3847C5.84096 16.7725 7.10517 17.7888 8.16073 18.6455C10.2866 20.3688 10.2694 20.3025 8.78424 20.9506C6.59703 21.9055 1.09341 24.7579 0.960848 25.0059C0.769375 25.3618 0.914208 25.8773 1.25788 26.0565C1.40516 26.1326 2.6571 26.2406 4.02442 26.2922C11.2832 26.572 11.1997 26.5647 10.7775 26.8985C10.6474 27.0016 10.0288 27.6914 9.41021 28.418C8.79161 29.1471 7.8146 30.264 7.25246 30.8875C6.68786 31.5111 6.08153 32.2229 5.90724 32.4635C5.73295 32.7041 5.0137 33.5264 4.31654 34.285C2.03359 36.7692 1.7832 37.189 2.31589 37.6357C2.7332 37.9843 3.50646 37.7045 7.4022 35.7947C9.49858 34.7661 11.7717 33.6639 12.4591 33.3399C13.1439 33.0183 14.1651 32.5372 14.7199 32.2769C15.2698 32.0167 15.854 31.6952 15.9989 31.5724C16.507 31.1355 16.2517 30.2935 15.611 30.2984C15.4539 30.2984 14.1234 30.8875 12.6358 31.6092C7.54949 34.0837 5.97352 34.8054 5.97352 34.6581C5.97352 34.5771 6.27545 34.1966 6.63631 33.8259C7.00207 33.4479 8.06745 32.2499 9.01499 31.1477C9.96254 30.048 11.2783 28.5285 11.9509 27.7577C13.9 25.5189 13.7085 25.2244 10.1982 25.0599C8.86034 24.9985 7.59613 24.9298 7.38011 24.9101C7.16409 24.8905 6.47184 24.8635 5.84832 24.8512C5.10452 24.8365 4.74367 24.7727 4.80749 24.6647C4.8615 24.5738 5.92933 23.9773 7.19354 23.3342C8.45776 22.691 9.59187 22.1068 9.72197 22.0331C9.85453 21.9595 10.4216 21.687 11.0009 21.4194C12.0859 20.9187 12.3707 20.548 12.0835 20.0104C11.9951 19.8459 11.1433 19.0948 10.1761 18.3289C9.20892 17.563 8.16809 16.7161 7.84897 16.4313C7.53721 16.1539 7.18618 15.9183 7.09044 15.9183C6.98734 15.9183 6.91124 15.8716 6.91124 15.8078C6.91124 15.7464 6.34664 15.2432 5.66176 14.6933C4.50065 13.763 4.15698 13.3579 4.82959 13.7163C4.98424 13.7973 5.43101 13.9127 5.81886 13.9716C6.20672 14.0281 7.7606 14.3251 9.26293 14.6271C12.5793 15.2948 15.0464 15.7612 15.3017 15.7661C15.4122 15.7685 15.6036 15.5991 15.7485 15.3758C15.9669 15.0345 15.9743 14.9388 15.7877 14.6541C15.5472 14.2834 14.9899 14.1508 8.71305 12.9676C5.07016 12.2803 4.1447 12.0937 2.76266 11.7697C1.5279 11.48 1.39535 11.4874 1.06149 11.8556L1.05904 11.8531Z" fill="white"/>
<path d="M51.414 3.04781C50.9206 3.64187 51.8313 4.55505 52.4254 4.05918C52.7077 3.82352 52.7322 3.24911 52.4696 2.98644C52.2143 2.73115 51.6472 2.76306 51.414 3.04536V3.04781Z" fill="white"/>
<path d="M26.277 5.43396L25.9358 5.70889L25.9284 21.282C25.9235 32.4218 25.9702 36.9043 26.0929 37.027C26.2157 37.1498 33.062 37.1939 50.5966 37.1841C63.9825 37.1768 75.4733 37.1669 76.1361 37.1645C78.1761 37.1547 77.9649 39.0007 77.9649 21.0906C77.9649 7.09339 77.9429 5.68434 77.7121 5.42905C77.4715 5.15902 76.3276 5.14675 52.04 5.15411C28.0027 5.16148 26.6011 5.1762 26.2795 5.43641L26.277 5.43396ZM76.1803 6.69326C76.5093 6.70553 76.5191 7.83719 76.4233 34.2973L76.4184 35.7113H39.2628L39.7145 35.0558C40.9321 33.2884 43.2052 31.543 45.957 30.2641C46.3375 30.0873 47.0273 29.5669 47.4741 29.1202C48.0387 28.5556 48.3431 28.3518 48.456 28.4647C48.5444 28.5531 48.6205 28.7176 48.6205 28.8207C48.6205 29.2085 50.2112 31.3859 51.0311 32.115C52.0989 33.0675 54.0946 34.0911 55.7172 34.5158C57.5019 34.9846 62.2543 35.0337 63.764 34.5992C64.3139 34.4397 64.9178 34.2187 65.0872 34.1156C65.2639 34.0076 65.6076 33.8726 65.8751 33.8063C66.5576 33.6394 68.0918 32.6747 68.9682 31.8572C72.3067 28.7519 73.7452 24.164 72.8958 19.3158C72.3189 16.0141 70.4484 12.7099 68.0157 10.6946C65.5094 8.61781 62.9589 7.87892 59.1957 8.13667C54.809 8.43861 51.4116 10.3656 49.1212 13.8563C47.641 16.1123 47.0052 18.3633 46.9831 21.4121C46.9709 23.2704 46.9365 23.5552 46.7376 23.4643C46.61 23.4054 46.0896 23.3048 45.5692 23.236C44.5161 23.0961 43.4581 23.3244 42.1791 23.9676C41.7618 24.1762 41.3985 24.3407 41.3543 24.3407C41.3101 24.3407 41.3862 24.0731 41.5188 23.7614C42.3853 21.7239 44.3001 16.019 44.5578 14.7032C44.9334 12.7836 44.5234 10.7289 43.5931 9.88693C42.8861 9.24623 41.5556 9.02285 40.5737 9.37879C40.1269 9.54081 40.0385 9.51381 39.6065 9.08176C38.9805 8.4558 37.5838 8.03848 36.5282 8.15877C35.9047 8.22995 35.6494 8.18331 35.2051 7.91083C34.4883 7.47143 32.8706 7.44197 32.0826 7.85683C31.2111 8.31342 30.2047 9.34934 29.5787 10.4344C29.0387 11.3721 27.6934 14.7032 27.6934 15.1058C27.6934 15.1942 27.6296 15.3096 27.5511 15.3586C27.4701 15.4102 27.4136 13.5519 27.416 11.0824C27.4234 7.31923 27.4553 6.71044 27.6615 6.67117C27.8579 6.63435 75.2131 6.65153 76.1803 6.68835V6.69326ZM34.6969 9.47698C35.0529 9.83047 35.1339 10.0539 35.1584 10.7657C35.1756 11.2444 35.075 12.0447 34.935 12.5651C34.7951 13.0855 34.6233 13.7459 34.5496 14.0527C34.3066 15.0616 34.1102 15.69 33.4794 17.4894C32.0335 21.6085 32.2004 21.1667 31.6555 22.3671C31.3192 23.1109 31.4517 23.6902 31.9893 23.8252C32.5073 23.9553 32.8878 23.6018 33.1431 22.7549C33.2535 22.3867 33.6168 21.417 33.9531 20.5972C34.6527 18.8862 35.8139 15.3955 35.8139 15.0052C35.8139 14.8554 35.8703 14.6713 35.9415 14.5878C36.0102 14.5068 36.2655 13.8514 36.5061 13.1371C36.8719 12.0521 36.9308 11.6568 36.8621 10.751L36.781 9.666H37.3456C38.4258 9.666 39.1082 10.589 39.118 12.0619C39.1229 12.7026 38.2269 15.9134 37.6697 17.2537C37.5985 17.4256 37.4561 17.8478 37.353 18.1915C37.2524 18.5327 37.1075 18.9402 37.0339 19.0924C36.9602 19.2446 36.7491 19.7699 36.565 20.2608C36.3809 20.7518 36.1035 21.4416 35.9464 21.7926C35.5046 22.7893 35.2812 23.7884 35.3965 24.2474C35.48 24.5837 35.5905 24.6647 35.9611 24.6647C36.4717 24.6647 36.4153 24.7531 37.4095 22.3302C38.2662 20.2388 39.0468 17.973 40.3184 13.8661C40.5074 13.2574 40.6449 12.3884 40.6449 11.8139C40.6449 11.1495 40.8085 10.7837 41.1358 10.7167C41.9238 10.5546 42.1742 10.5964 42.594 10.9597C43.161 11.4531 43.3648 12.8842 43.08 14.3424C42.864 15.4446 41.9655 18.432 41.4599 19.7404C41.1432 20.5603 40.2349 22.9243 39.7194 24.2769C39.2088 25.6147 39.199 25.7276 39.5476 26.0762C39.9305 26.4592 40.4411 26.4886 40.9149 26.1523C41.3887 25.8185 44.1871 24.731 44.9015 24.6034C46.0822 24.3898 47.2065 25.3324 47.2065 26.5377C47.2065 27.6768 46.4627 28.3592 43.5317 29.9057C42.7584 30.3132 41.7814 30.9122 41.3445 31.2411C40.1981 32.1101 38.7301 33.6738 38.1336 34.6582C37.8464 35.1344 37.5617 35.5566 37.5003 35.6032C37.4389 35.6474 35.1584 35.6843 32.4214 35.6843H27.4529L27.4602 27.7111C27.4676 18.9353 27.4038 19.5981 28.4814 17.2096C28.6434 16.8536 28.776 16.5099 28.776 16.4584C28.776 16.4068 29.0215 15.6925 29.3259 14.8603C30.5925 11.3942 31.1375 10.3681 32.0924 9.639C33.0449 8.91238 34.0611 8.85102 34.6945 9.47944L34.6969 9.47698ZM63.4032 9.88202C66.0838 10.6332 68.7202 12.9849 70.1784 15.9306C72.5595 20.7346 71.9262 26.5132 68.6392 30.0014C67.2793 31.4448 65.6198 32.5249 64.147 32.9251C62.5538 33.3571 62.0653 33.4308 60.3543 33.4848C57.7964 33.5658 55.133 33.011 53.4539 32.0487C52.3984 31.4448 50.8298 29.8615 50.2455 28.8109C49.6908 27.8142 49.0771 26.3487 48.9961 25.8357C48.969 25.6638 48.8365 24.974 48.699 24.3039C48.3013 22.34 48.4167 19.3575 48.9543 17.6416C49.3127 16.4952 50.491 14.2515 51.1415 13.4758C52.1259 12.3 54.4408 10.6725 55.4914 10.4172C55.7074 10.3656 56.2573 10.211 56.7335 10.071C57.2098 9.93112 57.9388 9.75928 58.3782 9.6881C59.4927 9.50399 62.4605 9.61936 63.4056 9.88448L63.4032 9.88202Z" fill="white"/>
<path d="M22.8649 42.835C22.4083 43.326 21.4141 45.7709 21.5099 46.1662C21.667 46.8069 22.4746 46.8069 22.8796 46.1662C22.9975 45.9771 23.2601 45.3855 23.4614 44.8504C23.7609 44.0477 23.891 43.8734 24.1979 43.8611C24.4065 43.8537 24.7919 43.8366 25.0742 43.8243C25.548 43.8022 25.6192 43.8758 26.2034 44.9928C26.5471 45.6482 26.8858 46.2619 26.9546 46.3601C27.119 46.5933 27.7205 46.5884 27.9586 46.3552C28.263 46.0557 28.1992 45.7218 27.6149 44.5313C27.3154 43.9225 27.0675 43.3456 27.0675 43.2597C27.0675 43.1738 26.8736 42.9798 26.6502 42.835C26.336 42.6313 25.8622 42.5601 24.7011 42.538C23.3166 42.511 23.1398 42.538 22.8649 42.835Z" fill="white"/>
<path d="M31.9893 42.7982C31.5278 43.1615 30.4305 45.7906 30.563 46.2104C30.6833 46.5884 31.1718 46.7553 31.5572 46.5491C31.7192 46.4632 32.0924 45.8176 32.3747 45.1327C32.657 44.4478 32.954 43.8685 33.0227 43.8612C33.0939 43.8538 33.4769 43.8391 33.8917 43.8317L34.6355 43.817L35.259 45.0002C35.6052 45.6556 35.9415 46.2619 36.0102 46.3601C36.2164 46.6498 36.862 46.5541 37.1124 46.1957C37.321 45.8962 37.2891 45.7636 36.7319 44.6491C36.398 43.979 36.1231 43.3628 36.1231 43.2818C36.1231 43.2008 35.9292 43.0069 35.6911 42.8498C35.0504 42.4276 32.5023 42.3932 31.9868 42.8007L31.9893 42.7982Z" fill="white"/>
<path d="M40.6989 42.8202C40.3675 43.1909 39.3954 45.4984 39.3954 45.9133C39.3954 46.4631 40.2619 46.7577 40.6179 46.3306C40.7062 46.225 40.9861 45.6089 41.2389 44.9706L41.7004 43.8021H43.5292L44.1135 44.978C44.7345 46.2275 45.1322 46.6178 45.6256 46.4631C46.2025 46.2815 46.1681 45.8126 45.4832 44.3839C44.5971 42.5379 44.5087 42.479 42.5915 42.4716C41.1481 42.4667 40.9885 42.4962 40.6964 42.8227L40.6989 42.8202Z" fill="white"/>
<path d="M49.9632 42.754C49.8208 42.9136 49.4501 43.6697 49.1457 44.4282C48.6892 45.5574 48.618 45.8765 48.7505 46.1686C48.9469 46.6007 49.5582 46.6473 49.8994 46.257C50.0295 46.1097 50.329 45.4764 50.5671 44.8504L50.9991 43.7114H52.7837L53.3753 44.9756C54.016 46.3429 54.4162 46.689 54.998 46.3822C55.4668 46.1343 55.4079 45.7341 54.696 44.2907C53.8123 42.5036 53.7485 42.4619 51.8141 42.4619C50.4615 42.4619 50.1841 42.5061 49.9632 42.7516V42.754Z" fill="white"/>
<path d="M59.2202 42.8497C58.8054 43.2793 57.8259 45.4812 57.8259 45.9869C57.8259 46.2103 57.956 46.4288 58.1524 46.5343C58.6679 46.8093 59.2031 46.3011 59.694 45.0664C59.9248 44.4871 60.1923 43.9593 60.2856 43.8979C60.3814 43.8365 60.7913 43.7973 61.2086 43.8095L61.9598 43.8316L62.5808 45.1106C63.224 46.4337 63.6438 46.7725 64.2059 46.419C64.633 46.1514 64.5815 45.7955 63.9212 44.4404C63.0227 42.5944 62.9564 42.5502 61.081 42.5257C59.6989 42.5085 59.5173 42.538 59.2178 42.8473L59.2202 42.8497Z" fill="white"/>
<path d="M68.2563 42.8644C67.8291 43.3554 66.884 45.5057 66.884 45.9869C66.884 46.2545 67.0019 46.4287 67.2719 46.5515C67.8144 46.7994 68.1581 46.4631 68.7006 45.1547C68.9411 44.5754 69.1743 44.0599 69.2283 43.9936C69.2824 43.9273 69.7046 43.8586 70.1661 43.8365L71.0056 43.7997L71.6414 45.0933C72.2968 46.4312 72.7141 46.7724 73.2665 46.4214C73.6936 46.1514 73.6396 45.793 72.9743 44.4404C72.0612 42.5821 72.017 42.5502 70.1415 42.5183C68.6687 42.4937 68.5606 42.5134 68.2563 42.8644Z" fill="white"/>
<path d="M77.0567 42.8277C76.8677 43.029 76.47 43.8022 76.1705 44.546C75.574 46.0336 75.6108 46.5246 76.3276 46.5246C76.6689 46.5246 77.3537 45.9011 77.3537 45.5868C77.3537 45.5132 77.5329 45.0591 77.749 44.5828L78.1442 43.7138H79.8552L80.5032 45.0517C81.2298 46.554 81.6496 46.8412 82.2388 46.2423L82.5628 45.9158L81.954 44.6221C81.6177 43.9078 81.1709 43.1345 80.9574 42.8964C80.5842 42.4791 80.518 42.4644 78.9862 42.4644C77.4544 42.4644 77.3758 42.4938 77.0592 42.8277H77.0567Z" fill="white"/>
<path d="M16.1044 47.5874C15.7263 47.6635 15.4612 48.1299 14.8156 49.8556C14.2142 51.4611 14.1945 52.0698 14.737 52.2368C15.1666 52.3693 15.5962 52.0698 15.8122 51.4905C15.9153 51.2156 16.1363 50.6363 16.2983 50.2189C16.4603 49.8016 16.5953 49.3549 16.5953 49.237C16.5953 49.0799 16.8408 49.021 17.5109 49.021H18.4266L18.8807 50.0766C19.6785 51.9348 19.7694 52.0723 20.2112 52.1239C20.7464 52.1852 21.1686 51.6501 20.9697 51.1616C20.1376 49.1094 19.6957 48.1618 19.4527 47.9188C19.2318 47.6979 18.866 47.6242 17.7638 47.585C16.9905 47.5555 16.2443 47.5555 16.1044 47.585V47.5874Z" fill="white"/>
<path d="M25.2215 47.6022C25.0276 47.6292 24.7624 47.8108 24.6397 47.9974C24.2199 48.6381 23.2871 51.4365 23.3755 51.79C23.5596 52.5191 24.5317 52.3694 24.8361 51.5667C24.9245 51.331 25.1675 50.6731 25.3712 50.1232L25.7419 49.1119L26.6109 49.0677L27.4799 49.0235L27.934 50.0791C28.7588 51.9987 28.8079 52.0723 29.2964 52.0723C29.5787 52.0723 29.834 51.9521 29.9592 51.7606C30.1311 51.4906 30.0672 51.2254 29.4953 49.8409C28.6017 47.6832 28.5502 47.639 26.903 47.5899C26.1739 47.5678 25.4179 47.5752 25.2215 47.6022Z" fill="white"/>
<path d="M33.4867 47.8919C33.1037 48.4418 32.2102 50.8867 32.2102 51.3875C32.2102 51.8883 32.4753 52.146 32.9245 52.146C33.3738 52.146 33.4941 51.9668 34.012 50.5087C34.255 49.8238 34.5128 49.1831 34.584 49.0874C34.6552 48.9892 35.0602 48.9327 35.5217 48.9523L36.3318 48.9892L36.8375 50.1429C37.1173 50.7836 37.3751 51.4145 37.4168 51.5642C37.4585 51.714 37.6696 51.9153 37.893 52.0184C38.2342 52.1779 38.3398 52.1632 38.6074 51.9226C39.0443 51.5274 39.0198 51.3433 38.2809 49.647C37.6459 48.1889 36.6836 47.4598 35.3941 47.4598C33.8181 47.4598 33.7813 47.4672 33.4867 47.8919Z" fill="white"/>
<path d="M67.1664 47.5948C66.9283 47.6194 66.6435 47.8059 66.4987 48.0269C66.1697 48.5325 65.286 51.0561 65.286 51.493C65.2836 52.2073 65.9979 52.5756 66.4152 52.0723C66.5183 51.9496 66.8252 51.2402 67.1075 50.4816L67.6132 49.1143H69.442L69.9501 50.3638C70.635 52.0453 70.7111 52.1484 71.2561 52.1484C71.612 52.1484 71.7765 52.0527 71.9115 51.7606C72.0637 51.4341 72.0048 51.1886 71.5408 50.1625C71.2364 49.4924 70.9443 48.8026 70.8854 48.6234C70.8265 48.4393 70.6178 48.1422 70.4091 47.9458C70.0925 47.6488 69.8519 47.5924 68.8111 47.5752C68.1409 47.5629 67.3947 47.5752 67.1664 47.5973V47.5948Z" fill="white"/>
<path d="M76.2245 47.5948C75.6918 47.6562 75.4218 48.0858 74.7688 49.9146C74.3024 51.223 74.2583 51.4684 74.4252 51.8195C74.6535 52.2957 75.1813 52.4307 75.4636 52.0871C75.5716 51.9545 75.8858 51.2402 76.1656 50.4816L76.6713 49.1143H78.4854L79.0181 50.3638C79.5058 51.5045 79.928 52.0928 80.2847 52.1288C80.6726 52.1681 80.8125 52.0993 80.9475 51.7998C81.0875 51.4905 81.0506 51.2647 80.7462 50.5798C80.545 50.1232 80.2136 49.3377 80.0245 48.8615C79.8282 48.3705 79.5238 47.9066 79.3323 47.8059C78.996 47.6316 77.0567 47.5015 76.2245 47.5973V47.5948Z" fill="white"/>
<path d="M84.4873 47.8698C84.2958 48.0932 84.0945 48.4319 84.0405 48.6136C83.9865 48.7977 83.7607 49.4384 83.5398 50.0349C82.9531 51.6109 83.0365 52.146 83.8687 52.146C84.3081 52.146 84.5634 51.7434 85.0102 50.3467C85.1992 49.7526 85.425 49.1733 85.506 49.0677C85.6705 48.8566 87.1311 48.9032 87.3324 49.1266C87.3987 49.2003 87.6834 49.841 87.9657 50.5553C88.248 51.2697 88.6113 51.9226 88.7758 52.0134C89.1833 52.2368 89.6669 52.0429 89.7749 51.6133C89.8977 51.1273 88.8568 48.4761 88.3168 47.8943C87.9314 47.4819 87.8479 47.4623 86.375 47.4623C84.9022 47.4623 84.8163 47.4844 84.4849 47.8722L84.4873 47.8698Z" fill="white"/>
<path d="M40.5639 48.0343C40.4092 48.1889 40.3405 48.4295 40.392 48.621C40.4411 48.8001 40.4853 49.5955 40.4878 50.3835C40.4927 51.4832 40.5516 51.876 40.7406 52.065C40.9591 52.2835 42.184 52.3105 51.9099 52.3105H62.8337L63.2215 51.9226C63.5627 51.5814 63.6069 51.4022 63.602 50.3908C63.5971 49.0677 63.4007 48.1005 63.1012 47.9164C62.9859 47.8452 57.9241 47.7839 51.8559 47.7814C41.8011 47.7741 40.7971 47.7961 40.559 48.0343H40.5639ZM62.004 50.0202L61.9598 50.8082L52.0081 50.8155L42.0564 50.8229V49.2616L52.0523 49.2469L62.0481 49.2322L62.004 50.0202Z" fill="white"/>
<path d="M32.3674 26.3094C32.0556 26.6874 32.3158 27.2397 32.986 27.6153C33.9777 28.1726 34.3999 29.2404 34.3999 31.2042C34.3999 32.0658 34.4441 32.8784 34.4957 33.0183C34.616 33.3301 35.3843 33.3399 35.6396 33.033C36.1576 32.4095 35.8802 28.8231 35.2321 27.797C34.3508 26.3978 32.9099 25.6515 32.3674 26.3094Z" fill="white"/>
<path d="M64.5176 16.6252C63.6584 17.4427 63.0153 17.5335 62.0334 16.9763C61.3927 16.613 61.0735 16.6743 60.7274 17.2242C60.5188 17.5556 60.7274 17.9042 61.4098 18.3706C62.8238 19.3378 65.1141 18.7855 65.8579 17.2979C66.1476 16.7185 66.1672 16.3577 65.9168 16.1073C65.5952 15.7857 65.2761 15.9035 64.5176 16.6252Z" fill="white"/>
<path d="M55.8449 18.5179C55.2042 19.2323 55.1772 19.2446 54.5144 19.1341C54.1438 19.0727 53.6896 18.8837 53.5104 18.7143C53.0931 18.3216 52.5874 18.3387 52.2978 18.7561C51.5221 19.8656 54.3598 21.2231 55.8155 20.4425L56.1567 20.2584L56.0536 21.4858C55.9971 22.1559 55.9063 23.1919 55.8523 23.7687C55.7713 24.6623 55.7983 24.8734 56.0389 25.1434C56.196 25.3226 56.4292 25.4208 56.5666 25.3668C56.7017 25.3128 57.1239 25.2048 57.5117 25.1262C58.8496 24.8513 60.9583 24.2278 61.1865 24.0388C61.4836 23.7933 61.4836 23.2017 61.1865 22.9562C60.9263 22.7402 60.131 22.8187 58.9257 23.182C58.5378 23.2974 58.0174 23.4373 57.7867 23.4864L57.362 23.5748L57.4356 22.4456C57.4774 21.8221 57.578 20.9359 57.6639 20.467C57.9241 19.0236 57.8677 18.3142 57.4676 18.0319C56.9029 17.6342 56.5396 17.7447 55.8449 18.5179Z" fill="white"/>
<path d="M65.4823 21.849C65.394 22.0135 65.3203 22.4136 65.3178 22.7426C65.3129 23.5748 64.7606 25.5901 64.4317 25.9706C63.9825 26.491 63.408 26.9746 62.9858 27.1931C61.81 27.797 61.4246 28.1161 61.4246 28.4843C61.4246 29.4932 62.9122 29.2478 64.4587 27.986C65.4062 27.2127 65.9929 26.2971 66.4691 24.8562C66.8374 23.7417 66.9699 22.3056 66.7441 21.881C66.506 21.4342 65.718 21.417 65.4823 21.8515V21.849Z" fill="white"/>
</g>
<defs>
<clipPath id="clip0_216_235">
<rect width="106" height="59.8918" fill="white" transform="translate(0.865112 0.514526)"/>
</clipPath>
</defs>
</svg>
