<svg width="185" height="34" viewBox="0 0 185 34" fill="none" xmlns="http://www.w3.org/2000/svg">
<g clip-path="url(#clip0_3_45)">
<path d="M53.2445 26.3303C58.8884 26.3303 63.4637 21.7549 63.4637 16.111C63.4637 10.467 58.8884 5.89172 53.2445 5.89172C47.6005 5.89172 43.0252 10.467 43.0252 16.111C43.0252 21.7549 47.6005 26.3303 53.2445 26.3303Z" fill="#FBD707"/>
<path d="M52.4068 11.5923C51.5864 12.861 50.8669 14.1958 50.1683 15.4853C49.4904 16.7367 48.8231 17.9463 48.0896 19.0829L52.1217 23.115C53.4113 21.3979 54.4958 19.6043 55.4239 17.8907C56.3693 16.1458 57.3252 14.599 58.3923 13.2538L54.2907 9.15216C53.606 9.91339 52.9699 10.7198 52.4068 11.5888V11.5923Z" fill="white"/>
<path d="M45.0412 22.7327C42.4169 24.9642 38.9375 26.2051 35.2426 26.226C33.5602 26.2573 31.7597 25.9618 30.046 25.43C34.3527 20.4594 37.6236 13.2503 35.0549 6.79894C33.6853 3.36471 30.564 0.900272 26.7022 0.20856C22.8613 -0.4762 19.1142 0.733427 16.6637 3.45509C11.4185 9.27381 13.2433 18.6067 18.0401 24.2655C18.6032 24.9329 19.2081 25.5586 19.8511 26.146C19.1976 26.4589 18.5198 26.7369 17.8212 26.9803C12.8436 28.7009 7.36552 28.2733 2.70081 25.8332C2.2107 26.803 1.70321 27.7658 1.19572 28.7252C0.806418 29.4586 0.403209 30.1851 0 30.9115C8.17194 35.1939 17.9463 34.7629 25.2597 29.768C29.0693 31.572 33.4246 32.3332 37.7487 31.8257C43.3763 31.1688 47.3771 28.5097 50.3768 25.2388L46.4594 21.3214C46.0215 21.8254 45.5557 22.3016 45.0412 22.7396V22.7327ZM29.0345 16.1736C28.9754 16.33 28.9164 16.4864 28.8503 16.6393C27.8736 18.9786 26.4762 21.0364 24.7313 22.7396C22.034 20.7201 20.004 17.8768 19.4166 14.3556C18.93 11.4289 19.6808 7.51499 22.538 6.00643C25.1415 4.63343 28.1586 5.88477 29.2779 8.55429C30.272 10.9284 29.9035 13.8169 29.0311 16.1701L29.0345 16.1736Z" fill="white"/>
<path d="M183.874 28.5653C183.352 27.6129 182.831 26.6535 182.278 25.7115C182.07 25.795 181.851 25.8888 181.621 26.0035C177.103 28.2629 171.76 28.6383 166.97 27.0324C166.185 26.7682 165.42 26.4554 164.68 26.0904C166.31 24.568 167.714 22.7917 168.809 20.8174C170.523 17.7273 171.322 14.4634 171.117 11.3698C170.881 7.78263 169.278 4.52915 166.713 2.44706C164.099 0.319784 160.439 -0.500538 157.165 0.302404C153.89 1.10535 151.026 3.5246 149.691 6.61819C147.988 10.5564 148.85 14.7623 149.872 17.5987C150.898 20.442 152.472 23.0733 154.457 25.3466C150.54 26.6952 146.584 26.3928 143.212 24.3594C139.549 22.1452 137.154 18.1548 134.842 14.2931L134.102 13.0626C129.656 5.67273 126.441 0.333688 116.156 0.187698C112.398 0.159891 108.599 1.37299 105.352 3.47594C105.307 3.45161 105.265 3.43075 105.22 3.40642C104.146 2.7738 103.01 2.23503 101.835 1.77968C101.532 1.65802 101.223 1.54332 100.907 1.43209C100.879 1.42166 100.851 1.41123 100.82 1.4008C100.124 1.16096 99.3911 0.945453 98.5777 0.761228C98.4908 0.740373 98.4074 0.729945 98.3205 0.712565C93.6523 -0.337169 88.6434 -0.0903772 84.229 1.60936C82.5988 2.2385 81.0485 3.05535 79.599 4.03557C77.291 2.98931 74.7432 2.33583 72.0458 2.14118C66.1298 1.71364 60.464 3.6115 56.2372 7.24038L60.2554 11.2586C61.2009 10.4 62.2471 9.66311 63.4637 9.08611C66.5921 7.60188 70.2766 7.26124 73.8429 8.12327C74.1418 8.19627 74.4373 8.27621 74.7327 8.36659C71.7434 11.8286 69.71 16.0936 69.1191 20.5463C68.5143 25.1206 70.0506 29.1388 73.3354 31.565C75.4001 33.091 77.8889 33.8939 80.3325 33.8939C81.5664 33.8939 82.79 33.6888 83.9405 33.2717C86.7873 32.2394 88.9354 30.1538 90.159 27.2444C91.7753 23.3931 91.6015 18.2383 89.721 14.1193C88.5843 11.634 87.0063 9.46499 85.0841 7.67835C86.8916 6.82675 88.8555 6.24626 90.8959 5.98557C94.4031 5.53022 97.806 6.05509 100.764 7.46284C98.9079 9.54493 97.3298 12.0163 96.1341 14.7971C94.0729 19.6008 94.0068 24.6583 95.9568 28.3254C97.4689 31.1653 100.107 33.018 103.593 33.6784C104.316 33.8174 105.029 33.8835 105.731 33.8835C108.279 33.8835 110.643 32.9867 112.534 31.2626C115.467 28.5966 117.035 24.2065 116.625 19.8024C116.242 15.7147 114.053 11.0465 110.326 7.24038C112.381 6.13851 114.48 5.61364 116.538 5.71792C120.407 5.91953 123.973 8.34226 126.858 12.7254C127.609 13.8655 128.339 15.0161 129.069 16.1666C130.41 18.28 131.797 20.4629 133.288 22.5519C138.419 29.7367 145.562 32.9763 153.414 31.6728C155.517 31.3252 157.544 30.6578 159.431 29.7228C160.926 30.7204 162.528 31.5546 164.214 32.1976C170.61 34.6412 178.076 34.2519 184.187 31.1549C184.451 31.0193 184.729 30.849 184.997 30.6474C184.625 29.9522 184.253 29.257 183.874 28.5653ZM85.2405 24.0709C84.8755 25.2979 84.229 26.4206 83.2384 27.3279C79.2862 30.9463 74.4164 26.6952 74.6771 22.2147C74.8683 18.9404 76.422 15.6 78.3929 13.0174C78.598 12.7498 78.817 12.4925 79.0359 12.2353C79.095 12.1658 79.1506 12.0928 79.2132 12.0233C79.3453 11.8738 79.4913 11.7313 79.6303 11.5888C79.7728 11.4393 79.9188 11.2933 80.0683 11.1473C81.695 12.4056 83.0785 13.9385 84.0587 15.6348C85.4491 18.0436 86.0643 21.311 85.244 24.0674L85.2405 24.0709ZM110.851 24.0778C110.587 25.3361 110.014 26.5597 109.065 27.4252C108.13 28.2837 106.85 28.753 105.582 28.7078C102.582 28.6 100.194 25.6246 100.065 22.7466C99.909 19.2359 101.744 15.6348 103.84 12.927C103.938 12.8019 104.035 12.6802 104.132 12.5586C104.633 11.9468 105.147 11.3733 105.665 10.838C107.66 12.6768 109.221 14.8214 110.111 17.0182C111.001 19.215 111.334 21.7385 110.848 24.0744L110.851 24.0778ZM160.199 22.1278C160.022 22.2704 159.841 22.4059 159.66 22.5415C158.138 21.0503 156.859 19.3054 155.903 17.3797C154.592 14.738 153.897 11.5784 155.18 8.7837C155.903 7.20562 157.318 5.89867 159.017 5.5476C161.291 5.07487 163.202 6.5452 164.294 8.41178C167.21 13.3824 164.252 18.9022 160.199 22.1278Z" fill="white"/>
</g>
<defs>
<clipPath id="clip0_3_45">
<rect width="185" height="33.8939" fill="white"/>
</clipPath>
</defs>
</svg>
