<svg width="38" height="46" viewBox="0 0 38 46" fill="none" xmlns="http://www.w3.org/2000/svg">
<path d="M37.1201 9.44595C37.1201 14.2083 28.8099 18.0672 18.56 18.0672C8.31016 18.0672 0 14.2061 0 9.44595C0 4.68585 8.30787 0.824707 18.56 0.824707C28.8122 0.824707 37.1201 4.68585 37.1201 9.44595Z" fill="#FFEA1F"/>
<path d="M37.1201 22.9348C37.1201 27.6972 28.8099 31.5561 18.56 31.5561C8.31016 31.5561 0 27.6949 0 22.9348C0 18.1747 8.31016 14.3136 18.56 14.3136C28.8099 14.3136 37.1201 18.1747 37.1201 22.9348Z" fill="#FFEA1F"/>
<path d="M37.1201 36.554C37.1201 41.3164 28.8099 45.1752 18.56 45.1752C8.31016 45.1752 0 41.3141 0 36.554C0 31.7939 8.31016 27.9327 18.56 27.9327C28.8099 27.9327 37.1201 31.7939 37.1201 36.554Z" fill="#FFEA1F"/>
</svg>
