<svg width="22" height="39" viewBox="0 0 22 39" fill="none" xmlns="http://www.w3.org/2000/svg">
<path d="M0.136555 38.2122L0.136555 32.7955L5.55322 32.7955L5.55322 38.2122L0.136555 38.2122ZM10.9699 27.3788L10.9699 32.7955L5.55322 32.7955L5.55322 27.3788L10.9699 27.3788ZM16.3866 21.9622L16.3866 27.3788L10.9699 27.3788L10.9699 21.9622L16.3866 21.9622ZM16.3866 16.5455L21.8032 16.5455L21.8032 21.9622L16.3866 21.9622L16.3866 16.5455ZM10.9699 11.1288L10.9699 16.5455L16.3866 16.5455L16.3866 11.1288L10.9699 11.1288ZM10.9699 11.1288L5.55322 11.1288L5.55322 5.71215L10.9699 5.71216L10.9699 11.1288ZM0.136558 0.295487L0.136558 5.71215L5.55322 5.71215L5.55323 0.295488L0.136558 0.295487Z" fill="white"/>
</svg>
